<svg width="127" height="102" viewBox="0 0 127 102" fill="none" xmlns="http://www.w3.org/2000/svg">
<g clip-path="url(#clip0_2990_6703)">
<path d="M2.47623 62.4848C-3.85066 36.7504 6.15466 0.269364 36.9139 0C37.3401 0 37.7739 0 38.2077 0.0177882C38.6415 0.0355764 39.0753 0.0457411 39.5167 0.0838586C39.5788 0.0724516 39.6424 0.0724516 39.7044 0.0838586C48.0265 0.981421 56.1167 3.38541 63.5812 7.1788C64.9917 7.80647 66.4022 8.43414 67.7924 9.09484C71.5342 10.7669 75.2253 12.4543 78.9164 13.8443C82.7631 15.2187 86.7038 16.3134 90.7077 17.1199C91.1694 17.2342 91.6235 17.3232 92.0852 17.435C92.5469 17.5468 93.001 17.6383 93.4627 17.7501C98.7384 18.7776 103.922 20.2352 108.96 22.1082C110.916 22.9017 112.799 23.8624 114.59 24.9797L115.373 25.4879C126.589 32.9996 129.265 49.3139 124.23 61.8267L123.499 63.5572C123.098 64.4466 122.659 65.2903 122.172 66.1517C121.248 67.8551 120.221 69.5006 119.098 71.079H119.072C118.976 71.2112 118.902 71.3332 118.818 71.4729C117.76 72.8865 116.629 74.2437 115.429 75.5388C115.061 75.9606 114.668 76.3926 114.265 76.7738C112.863 78.2642 111.375 79.6702 109.808 80.9845C108.509 82.1204 107.141 83.1979 105.749 84.1991C105.704 84.2634 105.645 84.3165 105.576 84.3541C105.267 84.6082 104.934 84.8624 104.594 85.0834C104.211 85.3375 103.811 85.6501 103.42 85.8915C102.073 86.8546 100.68 87.7491 99.2797 88.6207C98.3411 89.2027 97.4176 89.7541 96.4689 90.3106C89.1503 94.5543 81.2602 97.7208 73.0411 99.7129C71.5038 100.084 69.9969 100.424 68.4443 100.691C68.1399 100.75 67.833 100.808 67.5184 100.841C61.0925 101.995 54.5398 102.267 48.0405 101.652C47.6042 101.652 47.1577 101.576 46.7163 101.538C46.2749 101.499 45.8537 101.428 45.4123 101.388C44.1262 101.21 42.8755 100.989 41.6274 100.722C36.2545 99.6712 31.0758 97.7957 26.2744 95.1617C25.4524 94.717 24.6432 94.2189 23.8568 93.7107C15.3291 88.2536 8.77202 80.2025 5.14753 70.7385C4.74671 69.7754 4.38648 68.7742 4.05161 67.7425C3.44277 66.0704 2.92779 64.317 2.47623 62.4848Z" fill="#6693CA"/>
<path d="M53.3867 68.1568L47.0235 74.52C44.3855 77.158 40.1133 77.158 37.4775 74.5205C34.8411 71.8841 34.8411 67.6116 37.477 64.9757L50.2056 52.2471C52.8415 49.6111 57.114 49.6111 59.7499 52.2471C60.6285 53.1258 62.0533 53.1258 62.9319 52.2471C63.8106 51.3684 63.8106 49.9437 62.9319 49.065C58.5386 44.6717 51.4169 44.6717 47.0235 49.065L34.295 61.7936C29.9017 66.1869 29.9017 73.3086 34.295 77.702C38.6878 82.0976 45.8101 82.0976 50.2057 77.702L56.5689 71.3387C57.4476 70.4601 57.4476 69.0353 56.5689 68.1567C55.6903 67.278 54.2654 67.2781 53.3867 68.1568Z" fill="white"/>
<path d="M81.705 30.2925C77.3117 25.8992 70.1876 25.8992 65.7943 30.2925L58.1598 37.927C57.2811 38.8057 57.2811 40.2304 58.1598 41.1091C59.0385 41.9878 60.4632 41.9878 61.3419 41.1091L68.9764 33.4746C71.6122 30.8387 75.887 30.8387 78.5229 33.4746C81.1588 36.1105 81.1588 40.383 78.5229 43.0189L64.523 57.0189C61.8871 59.6548 57.6146 59.6548 54.9788 57.0189C54.1001 56.1402 52.6754 56.1402 51.7967 57.0189C50.918 57.8976 50.918 59.3223 51.7967 60.201C56.19 64.5943 63.3118 64.5943 67.7051 60.201L81.705 46.2011C86.0983 41.8077 86.0983 34.6859 81.705 30.2925Z" fill="white"/>
</g>
<defs>
<clipPath id="clip0_2990_6703">
<rect width="126" height="102" fill="white" transform="translate(0.666992)"/>
</clipPath>
</defs>
</svg>
