<svg width="126" height="102" viewBox="0 0 126 102" fill="none" xmlns="http://www.w3.org/2000/svg">
<g clip-path="url(#clip0_2990_6717)">
<path d="M1.80924 62.4848C-4.51765 36.7504 5.48767 0.269364 36.2469 0C36.6731 0 37.1069 0 37.5407 0.0177882C37.9745 0.0355764 38.4083 0.0457411 38.8497 0.0838586C38.9118 0.0724516 38.9754 0.0724516 39.0374 0.0838586C47.3595 0.981421 55.4497 3.38541 62.9142 7.1788C64.3247 7.80647 65.7352 8.43414 67.1254 9.09484C70.8672 10.7669 74.5583 12.4543 78.2494 13.8443C82.0961 15.2187 86.0368 16.3134 90.0407 17.1199C90.5024 17.2342 90.9565 17.3232 91.4182 17.435C91.8799 17.5468 92.334 17.6383 92.7957 17.7501C98.0714 18.7776 103.255 20.2352 108.293 22.1082C110.249 22.9017 112.132 23.8624 113.923 24.9797L114.706 25.4879C125.922 32.9996 128.598 49.3139 123.563 61.8267L122.832 63.5572C122.431 64.4466 121.992 65.2903 121.505 66.1517C120.581 67.8551 119.554 69.5006 118.431 71.079H118.405C118.309 71.2112 118.235 71.3332 118.151 71.4729C117.093 72.8865 115.962 74.2437 114.762 75.5388C114.394 75.9606 114.001 76.3926 113.598 76.7738C112.196 78.2642 110.708 79.6702 109.141 80.9845C107.842 82.1204 106.474 83.1979 105.082 84.1991C105.037 84.2634 104.978 84.3165 104.909 84.3541C104.6 84.6082 104.267 84.8624 103.927 85.0834C103.544 85.3375 103.144 85.6501 102.753 85.8915C101.406 86.8546 100.013 87.7491 98.6127 88.6207C97.6741 89.2027 96.7507 89.7541 95.8019 90.3106C88.4833 94.5543 80.5932 97.7208 72.3741 99.7129C70.8368 100.084 69.3299 100.424 67.7774 100.691C67.4729 100.75 67.166 100.808 66.8514 100.841C60.4255 101.995 53.8728 102.267 47.3735 101.652C46.9372 101.652 46.4907 101.576 46.0493 101.538C45.6079 101.499 45.1868 101.428 44.7453 101.388C43.4592 101.21 42.2085 100.989 40.9604 100.722C35.5875 99.6712 30.4088 97.7957 25.6074 95.1617C24.7854 94.717 23.9762 94.2189 23.1898 93.7107C14.6621 88.2536 8.10503 80.2025 4.48054 70.7385C4.07972 69.7754 3.71948 68.7742 3.38462 67.7425C2.77578 66.0704 2.2608 64.317 1.80924 62.4848Z" fill="#6693CA"/>
<path fill-rule="evenodd" clip-rule="evenodd" d="M59 27.7347C44.9513 27.7347 33.5625 39.1649 33.5625 53.2647C33.5625 67.3645 44.9513 78.7947 59 78.7947C59.8599 78.7947 60.7094 78.7519 61.5462 78.6686C62.6798 78.5557 63.6898 79.3862 63.8023 80.5239C63.9151 81.6615 63.0873 82.6753 61.9538 82.7884C60.9816 82.8853 59.9963 82.9347 59 82.9347C42.6731 82.9347 29.4375 69.6511 29.4375 53.2647C29.4375 36.8784 42.6731 23.5947 59 23.5947C75.327 23.5947 88.5625 36.8784 88.5625 53.2647C88.5625 54.2647 88.5133 55.2536 88.4168 56.2292C88.304 57.3669 87.2939 58.1977 86.1604 58.0845C85.0268 57.9716 84.1993 56.9579 84.3118 55.8202C84.3949 54.9803 84.4375 54.1278 84.4375 53.2647C84.4375 39.1649 73.0486 27.7347 59 27.7347Z" fill="white"/>
<path fill-rule="evenodd" clip-rule="evenodd" d="M58.9766 41.5345C56.3108 41.5345 54.1545 43.6998 54.1545 46.3645C54.1545 49.0293 56.3108 51.1945 58.9766 51.1945C61.6428 51.1945 63.799 49.0293 63.799 46.3645C63.799 43.6998 61.6428 41.5345 58.9766 41.5345ZM50.0294 46.3645C50.0294 41.4078 54.0379 37.3945 58.9766 37.3945C63.9154 37.3945 67.924 41.4078 67.924 46.3645C67.924 51.3212 63.9154 55.3345 58.9766 55.3345C54.0379 55.3345 50.0294 51.3212 50.0294 46.3645ZM61.4511 64.1284C56.6006 63.415 51.465 64.9744 48.1168 68.4939C47.3302 69.3208 46.0246 69.3512 45.2007 68.5618C44.3769 67.7722 44.3466 66.462 45.1332 65.6351C49.4986 61.0464 56.016 59.1447 62.0489 60.0321C63.1762 60.1979 63.9558 61.2492 63.7908 62.3803C63.6255 63.5116 62.578 64.294 61.4511 64.1284Z" fill="white"/>
<path fill-rule="evenodd" clip-rule="evenodd" d="M76.875 63.6146C72.6983 63.6146 69.3125 67.0127 69.3125 71.2046C69.3125 75.3965 72.6983 78.7946 76.875 78.7946C81.0517 78.7946 84.4375 75.3965 84.4375 71.2046C84.4375 67.0127 81.0517 63.6146 76.875 63.6146ZM65.1875 71.2046C65.1875 64.7263 70.4202 59.4746 76.875 59.4746C83.3298 59.4746 88.5625 64.7263 88.5625 71.2046C88.5625 77.6829 83.3298 82.9346 76.875 82.9346C70.4202 82.9346 65.1875 77.6829 65.1875 71.2046Z" fill="white"/>
</g>
<defs>
<clipPath id="clip0_2990_6717">
<rect width="126" height="102" fill="white"/>
</clipPath>
</defs>
</svg>
