<svg width="127" height="102" viewBox="0 0 127 102" fill="none" xmlns="http://www.w3.org/2000/svg">
<g clip-path="url(#clip0_2990_6738)">
<path d="M2.14323 62.4848C-4.18367 36.7504 5.82165 0.269364 36.5809 0C37.0071 0 37.4409 0 37.8747 0.0177882C38.3085 0.0355764 38.7423 0.0457411 39.1837 0.0838586C39.2458 0.0724516 39.3094 0.0724516 39.3714 0.0838586C47.6935 0.981421 55.7837 3.38541 63.2482 7.1788C64.6587 7.80647 66.0692 8.43414 67.4594 9.09484C71.2012 10.7669 74.8923 12.4543 78.5834 13.8443C82.4301 15.2187 86.3708 16.3134 90.3747 17.1199C90.8364 17.2342 91.2905 17.3232 91.7522 17.435C92.2139 17.5468 92.668 17.6383 93.1297 17.7501C98.4054 18.7776 103.589 20.2352 108.627 22.1082C110.583 22.9017 112.466 23.8624 114.257 24.9797L115.04 25.4879C126.256 32.9996 128.932 49.3139 123.897 61.8267L123.166 63.5572C122.765 64.4466 122.326 65.2903 121.839 66.1517C120.915 67.8551 119.888 69.5006 118.765 71.079H118.739C118.643 71.2112 118.569 71.3332 118.485 71.4729C117.427 72.8865 116.296 74.2437 115.096 75.5388C114.728 75.9606 114.335 76.3926 113.932 76.7738C112.53 78.2642 111.042 79.6702 109.475 80.9845C108.176 82.1204 106.808 83.1979 105.416 84.1991C105.371 84.2634 105.312 84.3165 105.243 84.3541C104.934 84.6082 104.601 84.8624 104.261 85.0834C103.878 85.3375 103.477 85.6501 103.087 85.8915C101.74 86.8546 100.347 87.7491 98.9467 88.6207C98.0081 89.2027 97.0846 89.7541 96.1359 90.3106C88.8173 94.5543 80.9272 97.7208 72.7081 99.7129C71.1708 100.084 69.6639 100.424 68.1113 100.691C67.8069 100.75 67.5 100.808 67.1854 100.841C60.7595 101.995 54.2068 102.267 47.7075 101.652C47.2712 101.652 46.8247 101.576 46.3833 101.538C45.9419 101.499 45.5207 101.428 45.0793 101.388C43.7931 101.21 42.5425 100.989 41.2944 100.722C35.9215 99.6712 30.7428 97.7957 25.9414 95.1617C25.1194 94.717 24.3102 94.2189 23.5238 93.7107C14.9961 88.2536 8.43901 80.2025 4.81452 70.7385C4.4137 69.7754 4.05347 68.7742 3.71861 67.7425C3.10976 66.0704 2.59478 64.317 2.14323 62.4848Z" fill="#6693CA"/>
<path d="M93.2758 46.6336L61.0433 23.0336C60.4217 22.5786 59.5773 22.5786 58.956 23.0336L26.7232 46.6336C25.9359 47.2101 25.7649 48.3157 26.3414 49.103C26.9179 49.8903 28.0236 50.0611 28.8107 49.4848L59.9995 26.6489L91.1883 49.4847C91.5027 49.7151 91.8682 49.826 92.2305 49.826C92.7745 49.826 93.3114 49.5756 93.6575 49.1028C94.2341 48.3157 94.0631 47.2101 93.2758 46.6336Z" fill="white"/>
<path d="M84.7345 49.8848C83.7588 49.8848 82.9677 50.6758 82.9677 51.6515V79.774H68.8338V64.423C68.8338 59.5515 64.8704 55.5884 59.9992 55.5884C55.128 55.5884 51.1647 59.5518 51.1647 64.423V79.7741H37.0306V51.6517C37.0306 50.6759 36.2395 49.8849 35.2638 49.8849C34.2882 49.8849 33.4971 50.6759 33.4971 51.6517V81.541C33.4971 82.5168 34.2882 83.3078 35.2638 83.3078H52.9315C53.8606 83.3078 54.6209 82.59 54.6913 81.6786C54.6956 81.6373 54.6982 81.5921 54.6982 81.541V64.4231C54.6982 61.5001 57.0762 59.1221 59.9992 59.1221C62.9222 59.1221 65.3002 61.5002 65.3002 64.4231V81.541C65.3002 81.5919 65.3029 81.6362 65.3071 81.677C65.3767 82.589 66.1373 83.3078 67.067 83.3078H84.7346C85.7104 83.3078 86.5014 82.5168 86.5014 81.541V51.6517C86.5012 50.6758 85.7102 49.8848 84.7345 49.8848Z" fill="white"/>
</g>
<defs>
<clipPath id="clip0_2990_6738">
<rect width="126" height="102" fill="white" transform="translate(0.333984)"/>
</clipPath>
</defs>
</svg>
