<svg width="222" height="159" viewBox="0 0 222 159" fill="none" xmlns="http://www.w3.org/2000/svg">
<g clip-path="url(#clip0_3233_6146)">
<path d="M107.435 109.273L186.31 38.0482L85.1899 5.35376L6.31501 76.579L107.435 109.273Z" fill="#F2C799"/>
<path d="M117.496 156.271L198.363 83.6513L189.312 41.3716L108.445 113.991L117.496 156.271Z" fill="#E6BD91"/>
<path d="M13.9872 123.12L117.497 156.272L108.446 113.992L4.93654 80.8408L13.9872 123.12Z" fill="#D9B389"/>
<path d="M23.7058 69.76L56.0745 80.2256L69.2089 68.3649L36.8402 57.8993L23.7058 69.76Z" fill="#F4F4F4"/>
<path d="M34.8743 61.7068L63.9532 71.1086L65.9095 69.3418L36.8306 59.94L34.8743 61.7068Z" fill="#858585"/>
<path d="M30.9406 65.246L60.0196 74.6482L61.9759 72.8814L32.897 63.4795L30.9406 65.246Z" fill="#858585"/>
<path d="M37.4691 72.1625L56.1093 78.1893L58.0661 76.4228L39.4254 70.3956L37.4691 72.1625Z" fill="#858585"/>
<path d="M98.7561 59.9269L98.9986 58.7297C100.482 51.4245 100.608 40.3914 93.3028 41.9004C83.9697 43.8182 92.4236 58.6331 97.5588 59.6823L98.7561 59.9269ZM93.7969 44.2903C95.0153 44.0389 95.5851 44.4367 95.9071 44.7581C97.744 46.5871 97.5313 52.4975 96.8834 56.689C93.5742 54.1995 88.6333 45.3609 93.7969 44.2903Z" fill="#DEB68C"/>
<path d="M99 58.7348L99.2446 57.5375C94.6234 56.6015 85.6758 55.3262 82.3475 58.6624C79.7992 61.2206 81.1393 67.1886 86.3453 67.1835C91.4144 67.1791 98.3192 62.066 99 58.7348ZM96.0058 59.4105C93.5154 62.7233 84.6732 67.6593 83.6087 62.4962C83.3569 61.2779 83.7547 60.7081 84.0757 60.3861C85.9072 58.547 91.8142 58.7617 96.0058 59.4105Z" fill="#DEB68C"/>
<path d="M120.308 56.6351C120.946 56.4185 121.287 55.7255 121.07 55.0871C120.852 54.4494 120.159 54.1068 119.522 54.325C119.368 54.3767 104.119 59.5033 97.8427 56.7448C97.2252 56.4747 96.506 56.7542 96.2339 57.3707C94.7914 60.6568 106.783 61.2302 120.308 56.6351Z" fill="#DEB68C"/>
<path d="M101 71.097C101.504 70.6503 101.55 69.8798 101.105 69.3761C101.064 69.3303 97.0709 64.711 97.9831 58.9414C98.0878 58.2754 97.6331 57.6507 96.9682 57.5453C96.3104 57.4432 95.6786 57.8942 95.5722 58.5602C94.4771 65.4912 99.0816 70.7728 99.2776 70.994C99.7269 71.4994 100.496 71.5434 101 71.097Z" fill="#DEB68C"/>
<path d="M109.479 113.466L189.314 41.3736L186.311 38.0481L107.436 109.273L6.31584 76.5788L4.9373 80.8423L107.289 113.934C108.039 114.177 108.879 114.008 109.479 113.466Z" fill="url(#paint0_linear_3233_6146)"/>
<path d="M53.682 96.7825L62.894 139.816C63.641 143.306 66.852 143.345 69.9377 141.039L66.3645 139.889C65.8599 140.04 65.6747 139.963 65.5228 139.253L56.6353 97.7358C56.3258 96.2899 56.8122 94.7927 57.9094 93.7972C140.718 19.023 137.532 21.2032 138.397 22.5542L141.371 23.5213C141.019 19.2873 137.303 18.4794 135.178 20.4027L54.9563 92.8448C53.8585 93.8399 53.3725 95.3366 53.682 96.7825Z" fill="#C69C6D"/>
<path d="M41.3627 44.9301L43.6894 42.8282C43.7626 42.1693 44.3134 41.9237 44.9187 42.1069L148.939 75.7414C149.992 76.084 150.785 76.9591 151.015 78.0366L159.618 118.222C159.77 118.936 159.675 119.147 158.789 119.188L156.106 121.595C160.04 122.571 162.989 121.13 162.246 117.659L153.32 75.9583C153.089 74.8803 152.297 74.0052 151.243 73.6631L45.7454 39.5475C43.01 38.6693 39.9491 40.9168 41.3627 44.9301Z" fill="#C69C6D"/>
<path d="M97.4691 58.6223L98.0596 57.4131C101.666 50.0362 104.859 38.3084 96.6524 37.8923C86.1707 37.3495 91.0763 55.4877 96.2604 58.0301L97.4691 58.6223ZM96.5166 40.5768C97.8856 40.6467 98.3825 41.2285 98.6369 41.6603C100.088 44.1195 98.223 50.3618 96.3703 54.6505C93.5324 51.0797 90.7147 40.2869 96.5166 40.5768Z" fill="#C69C6D"/>
<path d="M98.0572 57.4138L98.6494 56.2051C93.9849 53.9277 84.7968 50.0858 80.3234 52.7205C79.2964 53.326 78.0458 54.5639 77.9202 57.0216C77.3865 67.5159 95.5231 62.5807 98.0572 57.4138ZM94.6777 57.3042C91.1042 60.1457 80.3091 62.9566 80.6055 57.1573C80.675 55.7883 81.2568 55.2914 81.6883 55.0371C84.1505 53.584 90.3889 55.4508 94.6777 57.3042Z" fill="#C69C6D"/>
<path d="M121.501 50.993C122.149 50.633 122.383 49.8151 122.023 49.1655C121.662 48.5169 120.843 48.2817 120.195 48.6431C120.039 48.7292 104.514 57.2765 97.1697 55.5167C96.4473 55.3448 95.7226 55.7887 95.5485 56.5108C94.6288 60.3555 107.741 58.626 121.501 50.993Z" fill="#C69C6D"/>
<path d="M103.631 69.0078C104.076 68.415 103.957 67.5732 103.366 67.1273C103.313 67.0869 97.9862 62.9792 97.702 56.5508C97.6683 55.809 97.041 55.2345 96.2993 55.2669C95.5666 55.3012 94.9838 55.9273 95.0154 56.6695C95.3573 64.3921 101.489 69.0802 101.749 69.2761C102.345 69.7223 103.186 69.6006 103.631 69.0078Z" fill="#C69C6D"/>
<path d="M68.7312 146.498C78.3531 142.822 83.173 132.041 79.4967 122.419C75.8204 112.798 65.04 107.978 55.4181 111.654C45.7962 115.33 40.9763 126.111 44.6526 135.733C48.3289 145.354 59.1093 150.174 68.7312 146.498Z" fill="#FFAA00"/>
<path d="M78.0594 137.603C82.7678 128.782 79.4343 117.815 70.6137 113.106C61.7931 108.398 50.8256 111.731 46.1172 120.552C41.4087 129.372 44.7423 140.34 53.5629 145.048C62.3835 149.757 73.3509 146.423 78.0594 137.603Z" fill="#FFCA39"/>
<path d="M76.0877 131.489C77.4176 123.753 72.2237 116.403 64.4868 115.073C56.7499 113.743 49.3999 118.937 48.07 126.673C46.7402 134.41 51.9341 141.76 59.671 143.09C67.4078 144.42 74.7579 139.226 76.0877 131.489Z" fill="#FFAA00"/>
<path d="M66.6491 137.525L67.4023 140.19L64.642 140.97L63.923 138.426C61.9247 138.835 59.8424 138.724 58.4171 138.167L58.738 133.618C60.2947 134.189 62.1873 134.302 63.6943 133.876C65.006 133.505 65.3807 133.037 65.218 132.46C64.6212 130.348 57.5264 134.193 55.7558 127.928C54.989 125.216 55.9496 122.482 59.0042 121.022L58.265 118.406L61.0254 117.625L61.7511 120.194C63.2471 119.952 64.7854 120.01 66.1185 120.463L65.8885 124.961C64.2999 124.502 62.9127 124.454 61.7183 124.791C60.3672 125.173 60.0724 125.774 60.2351 126.351C60.8049 128.367 67.9065 124.545 69.6568 130.738C70.3898 133.332 69.5004 136.02 66.6491 137.525Z" fill="#C99914"/>
<path d="M66.1315 137.238L66.8848 139.902L64.1244 140.682L63.4054 138.138C61.4071 138.547 59.3248 138.436 57.8995 137.88L58.2204 133.33C59.7771 133.901 61.6697 134.015 63.1767 133.588C64.4884 133.218 64.8631 132.749 64.7004 132.173C64.1036 130.06 57.0088 133.906 55.2382 127.641C54.4714 124.928 55.432 122.194 58.4872 120.735L57.7474 118.118L60.5078 117.338L61.2335 119.906C62.7295 119.665 64.2678 119.722 65.6009 120.175L65.3709 124.673C63.7823 124.215 62.3951 124.166 61.2007 124.503C59.8497 124.885 59.5548 125.487 59.7175 126.063C60.2873 128.08 67.3889 124.258 69.1392 130.451C69.8716 133.044 68.9828 135.732 66.1315 137.238Z" fill="#FFCA39"/>
<path d="M180.903 46.0135C187.39 50.0802 195.946 48.1178 200.013 41.6303C204.079 35.1428 202.117 26.5869 195.629 22.5202C189.142 18.4535 180.586 20.4159 176.519 26.9034C172.453 33.3909 174.415 41.9467 180.903 46.0135Z" fill="#FFAA00"/>
<path d="M190.358 47.5709C197.701 46.4192 202.72 39.5331 201.568 32.1904C200.417 24.8477 193.53 19.8289 186.188 20.9806C178.845 22.1323 173.826 29.0184 174.978 36.3611C176.13 43.7038 183.016 48.7226 190.358 47.5709Z" fill="#FFCA39"/>
<path d="M193.103 43.6642C198.291 40.992 200.33 34.6203 197.658 29.4326C194.985 24.2448 188.614 22.2056 183.426 24.8778C178.239 27.55 176.2 33.9218 178.872 39.1095C181.544 44.2972 187.916 46.3365 193.103 43.6642Z" fill="#FFAA00"/>
<path d="M185.298 40.763L184.053 42.4023L182.355 41.1129L183.543 39.5477C182.406 38.5446 181.541 37.2587 181.233 36.1636L184.077 34.3186C184.435 35.4982 185.214 36.6724 186.142 37.3762C186.949 37.989 187.395 38.0016 187.664 37.6473C188.651 36.3478 183.194 33.8568 186.121 30.0025C187.388 28.3337 189.44 27.6806 191.673 28.8408L192.896 27.2313L194.594 28.5208L193.394 30.1008C194.207 30.8807 194.861 31.8197 195.189 32.8138L192.416 34.6896C191.977 33.5416 191.385 32.6963 190.651 32.1382C189.82 31.507 189.33 31.6013 189.061 31.9556C188.119 33.1962 193.565 35.7015 190.672 39.5117C189.461 41.1072 187.467 41.7819 185.298 40.763Z" fill="#C99914"/>
<path d="M185.237 40.327L183.993 41.9663L182.294 40.6768L183.483 39.1117C182.346 38.1086 181.48 36.8227 181.173 35.7276L184.017 33.8826C184.374 35.0622 185.154 36.2363 186.081 36.9402C186.888 37.553 187.334 37.5656 187.603 37.2112C188.59 35.9117 183.133 33.4207 186.06 29.5665C187.327 27.8977 189.38 27.2446 191.613 28.4051L192.835 26.7953L194.534 28.0847L193.334 29.6648C194.146 30.4447 194.8 31.3837 195.128 32.3777L192.355 34.2535C191.916 33.1056 191.325 32.2603 190.59 31.7022C189.759 31.071 189.27 31.1652 189.001 31.5196C188.059 32.7601 193.505 35.2657 190.612 39.0757C189.4 40.6708 187.407 41.3459 185.237 40.327Z" fill="#FFCA39"/>
<path d="M183.683 148.043L123.357 128.007C121.011 127.228 119.74 124.694 120.519 122.347L132.749 85.5255C133.528 83.179 136.062 81.9082 138.409 82.6876L198.735 102.724C201.082 103.503 202.353 106.037 201.573 108.384L189.344 145.205C188.564 147.552 186.03 148.823 183.683 148.043Z" fill="#006BB3"/>
<path d="M182.577 148.597L122.25 128.561C119.903 127.781 118.633 125.247 119.412 122.9L131.641 86.0788C132.421 83.7323 134.955 82.4614 137.302 83.2409L197.628 103.277C199.975 104.056 201.246 106.591 200.466 108.938L188.237 145.759C187.457 148.106 184.923 149.376 182.577 148.597Z" fill="#0089E5"/>
<path d="M140.91 113.549L129.656 109.811C128.72 109.5 128.213 108.489 128.524 107.553L130.783 100.751C131.094 99.8148 132.104 99.3081 133.041 99.6191L144.295 103.357C145.231 103.668 145.737 104.678 145.426 105.615L143.167 112.417C142.856 113.353 141.846 113.86 140.91 113.549Z" fill="#FFE05E"/>
<path d="M130.26 102.344L144.903 107.208" stroke="#FCFEFF" stroke-width="0.8219" stroke-miterlimit="10"/>
<path d="M129.059 105.961L143.702 110.825" stroke="#FCFEFF" stroke-width="0.8219" stroke-miterlimit="10"/>
<path d="M133.506 107.437L134.707 103.821" stroke="#FCFEFF" stroke-width="0.8219" stroke-miterlimit="10"/>
<path d="M139.254 109.348L140.455 105.732" stroke="#FCFEFF" stroke-width="0.8219" stroke-miterlimit="10"/>
<path d="M138.101 120.934L126.292 117.012C125.842 116.863 125.598 116.377 125.747 115.926L126.434 113.857C126.584 113.408 127.07 113.164 127.52 113.313L139.329 117.235C139.779 117.385 140.023 117.871 139.873 118.321L139.186 120.39C139.036 120.84 138.551 121.084 138.101 120.934Z" fill="#E0FEFD"/>
<path d="M154.148 126.266L142.338 122.344C141.889 122.195 141.645 121.709 141.794 121.258L142.481 119.189C142.631 118.74 143.117 118.496 143.567 118.645L155.376 122.567C155.826 122.717 156.07 123.203 155.92 123.653L155.233 125.722C155.084 126.172 154.597 126.416 154.148 126.266Z" fill="#E0FEFD"/>
<path d="M170.202 131.597L158.393 127.675C157.943 127.526 157.699 127.04 157.849 126.589L158.536 124.52C158.685 124.071 159.172 123.827 159.622 123.976L171.431 127.898C171.881 128.048 172.124 128.534 171.975 128.984L171.288 131.053C171.138 131.503 170.653 131.747 170.202 131.597Z" fill="#E0FEFD"/>
<path d="M186.257 136.929L174.448 133.007C173.998 132.858 173.754 132.372 173.904 131.921L174.591 129.853C174.74 129.403 175.226 129.159 175.676 129.308L187.485 133.23C187.935 133.38 188.179 133.866 188.03 134.316L187.343 136.385C187.193 136.835 186.707 137.079 186.257 136.929Z" fill="#E0FEFD"/>
<path d="M183.375 145.439L146.487 133.188C146.011 133.03 145.753 132.515 145.911 132.038L146.577 130.034C146.735 129.558 147.25 129.3 147.726 129.458L184.614 141.709C185.091 141.868 185.349 142.382 185.19 142.859L184.525 144.863C184.366 145.339 183.851 145.598 183.375 145.439Z" fill="#0071BD"/>
<path d="M176.598 137.437L173.15 136.292C172.915 136.213 172.787 135.96 172.865 135.724L173.241 134.592C173.32 134.357 173.573 134.23 173.808 134.308L177.257 135.453C177.492 135.531 177.619 135.785 177.541 136.02L177.165 137.153C177.087 137.388 176.833 137.515 176.598 137.437Z" fill="#0071BD"/>
<path d="M185.368 140.351L181.919 139.206C181.684 139.128 181.557 138.874 181.635 138.639L182.011 137.507C182.089 137.272 182.343 137.144 182.578 137.222L186.027 138.368C186.262 138.446 186.389 138.7 186.311 138.935L185.935 140.067C185.857 140.302 185.603 140.43 185.368 140.351Z" fill="#0071BD"/>
</g>
<defs>
<linearGradient id="paint0_linear_3233_6146" x1="194.569" y1="65.9189" x2="10.1916" y2="105.388" gradientUnits="userSpaceOnUse">
<stop stop-color="#FFD2A1"/>
<stop offset="1" stop-color="#E0B98E"/>
</linearGradient>
<clipPath id="clip0_3233_6146">
<rect width="222" height="159" fill="white"/>
</clipPath>
</defs>
</svg>
