<svg width="212" height="175" viewBox="0 0 212 175" fill="none" xmlns="http://www.w3.org/2000/svg">
<g clip-path="url(#clip0_3233_5937)">
<path d="M134.864 95.3711L199.463 83.3422L156.746 33.4122L92.1467 45.4411L134.864 95.3711Z" fill="#F2C799"/>
<path d="M124.968 123.392L191.068 111.273L199.971 86.0649L133.87 98.1844L124.968 123.392Z" fill="#E6BD91"/>
<path d="M81.1387 72.4494L124.967 123.393L133.87 98.1846L90.0414 47.2415L81.1387 72.4494Z" fill="#D9B389"/>
<path d="M103.516 47.4718L117.19 63.4544L127.947 61.4512L114.273 45.4686L103.516 47.4718Z" fill="#F4F4F4"/>
<path d="M112.006 46.8397L124.29 61.1979L125.893 60.8994L113.609 46.5412L112.006 46.8397Z" fill="#858585"/>
<path d="M108.79 47.4327L121.074 61.7911L122.676 61.4926L110.392 47.1344L108.79 47.4327Z" fill="#858585"/>
<path d="M109.993 53.1884L117.867 62.3924L119.469 62.0942L111.595 52.8899L109.993 53.1884Z" fill="#858585"/>
<path d="M146.247 66.559L146.762 66.0064C149.906 62.6363 153.54 56.8628 149.202 55.2956C143.664 53.2881 143.328 63.8293 145.695 66.0429L146.247 66.559ZM148.69 56.7148C149.413 56.9763 149.585 57.3702 149.651 57.6438C150.027 59.2016 148.004 62.2476 146.307 64.247C145.368 61.8649 145.622 55.6092 148.69 56.7148Z" fill="#DEB68C"/>
<path d="M146.761 66.0099L147.277 65.458C145.144 63.4704 140.841 59.9049 138.008 60.5867C135.838 61.1108 134.614 64.6892 137.36 66.3701C140.032 68.007 145.325 67.5453 146.761 66.0099ZM144.964 65.3977C142.581 66.3382 136.325 66.0801 137.433 63.0149C137.695 62.2915 138.088 62.1198 138.362 62.054C139.922 61.677 142.965 63.7004 144.964 65.3977Z" fill="#DEB68C"/>
<path d="M158.669 71.7947C159.075 71.8867 159.479 71.6317 159.571 71.2252C159.663 70.8188 159.408 70.4139 159.002 70.323C158.904 70.3006 149.21 68.0711 146.795 64.5876C146.557 64.2456 146.087 64.1603 145.744 64.3972C143.922 65.6625 150.056 69.8426 158.669 71.7947Z" fill="#DEB68C"/>
<path d="M143.818 73.1711C144.228 73.0985 144.501 72.7073 144.429 72.2979C144.423 72.2608 143.812 68.535 146.159 65.7894C146.429 65.4723 146.392 64.9961 146.075 64.7255C145.762 64.459 145.283 64.4924 145.011 64.8089C142.193 68.1074 142.911 72.3798 142.943 72.5597C143.017 72.9714 143.408 73.2434 143.818 73.1711Z" fill="#DEB68C"/>
<path d="M134.585 98.2417L199.971 86.0665L199.463 83.3429L134.864 95.3718L92.1468 45.4418L90.0416 47.2428L133.279 97.7804C133.596 98.1512 134.093 98.3337 134.585 98.2417Z" fill="url(#paint0_linear_3233_5937)"/>
<path d="M110.576 71.4061L101.514 97.0636C100.78 99.1441 102.459 100.203 104.831 99.9859L103.32 98.2241C103.005 98.1404 102.932 98.0402 103.082 97.6171L111.824 72.8635C112.128 72.0015 112.869 71.3697 113.769 71.2C181.589 58.573 179.205 58.6914 179.224 59.6831L180.479 61.1548C181.662 58.8094 179.965 57.1819 178.223 57.5084L112.521 69.743C111.62 69.9125 110.88 70.5441 110.576 71.4061Z" fill="#C69C6D"/>
<path d="M120.851 40.0968L122.757 39.7415C123.009 39.4179 123.379 39.4666 123.638 39.7589L167.58 91.1219C168.024 91.6432 168.159 92.3606 167.932 93.0031L159.47 116.962C159.32 117.388 159.201 117.468 158.721 117.203L156.529 117.604C158.286 119.391 160.307 119.585 161.038 117.516L169.818 92.653C170.045 92.0103 169.911 91.293 169.466 90.7718L124.902 38.6775C123.744 37.3301 121.404 37.5247 120.851 40.0968Z" fill="#C69C6D"/>
<path d="M145.99 65.4551L146.692 65.0088C150.978 62.2873 156.454 57.1396 152.263 54.2663C146.915 50.5907 143.635 61.7358 145.545 64.7521L145.99 65.4551ZM151.324 55.6371C152.023 56.1167 152.096 56.584 152.091 56.8938C152.06 58.6591 149.059 61.3456 146.695 63.0066C146.355 60.2071 148.36 53.6082 151.324 55.6371Z" fill="#C69C6D"/>
<path d="M146.691 65.0081L147.394 64.5627C145.672 61.8541 142.073 56.8582 138.863 56.8001C138.126 56.7871 137.067 57.035 136.206 58.2896C132.531 63.6474 143.685 66.9116 146.691 65.0081ZM144.945 63.8575C142.143 64.1994 135.545 62.1898 137.577 59.2294C138.056 58.5305 138.524 58.4568 138.833 58.4623C140.601 58.4927 143.285 61.4939 144.945 63.8575Z" fill="#C69C6D"/>
<path d="M161.122 69.2062C161.58 69.2262 161.968 68.8708 161.988 68.412C162.008 67.9535 161.652 67.5646 161.194 67.5457C161.084 67.5406 150.139 67.0245 146.837 63.722C146.512 63.3978 145.986 63.3974 145.661 63.7216C143.933 65.4504 151.402 68.779 161.122 69.2062Z" fill="#C69C6D"/>
<path d="M145.879 72.9211C146.305 72.7526 146.514 72.2705 146.347 71.8443C146.332 71.8057 144.853 67.9186 146.782 64.439C147.005 64.0371 146.86 63.5315 146.458 63.3088C146.061 63.0899 145.552 63.2314 145.328 63.6328C143.011 67.8131 144.726 72.2666 144.8 72.4539C144.97 72.8817 145.452 73.0894 145.879 72.9211Z" fill="#C69C6D"/>
<g clip-path="url(#clip1_3233_5937)">
<path d="M124.262 99.2996L126.256 99.4548C126.256 99.4554 126.255 99.4573 126.255 99.4587C126.255 99.4614 126.255 99.4648 126.255 99.4684C126.254 99.4755 126.253 99.4843 126.253 99.4948C126.251 99.5163 126.248 99.5453 126.244 99.5806C126.237 99.6514 126.227 99.7495 126.211 99.8734C126.181 100.121 126.132 100.474 126.054 100.917C125.899 101.804 125.629 103.058 125.172 104.583C124.257 107.633 122.584 111.772 119.546 116.211C113.439 125.132 101.939 135.08 80.4758 139.931L80.0189 140.035L79.5637 139.925C58.1699 134.741 46.8257 124.614 40.86 115.598C37.8923 111.113 36.2857 106.948 35.4197 103.884C34.9866 102.353 34.7378 101.094 34.5967 100.205C34.5262 99.7606 34.4829 99.4076 34.4564 99.159C34.4431 99.0349 34.4343 98.9367 34.4284 98.8658C34.4255 98.8304 34.4228 98.8014 34.4213 98.7798C34.4205 98.7694 34.42 98.7606 34.4195 98.7535C34.4193 98.7499 34.4188 98.7464 34.4186 98.7437C34.4185 98.7423 34.4187 98.7405 34.4186 98.7398C34.4189 98.7382 34.4449 98.7354 36.4148 98.6166L34.4187 98.7368L34.4143 98.6684L34.8611 41.2122L37.0498 41.4392C48.1545 42.5877 58.8342 40.0109 66.8003 37.0971C70.7716 35.6445 74.0384 34.1189 76.3064 32.96C77.4396 32.3809 78.322 31.8944 78.916 31.5554C79.2129 31.386 79.438 31.2536 79.5861 31.1651C79.6599 31.1209 79.7149 31.0872 79.7499 31.0658C79.7672 31.0552 79.7797 31.0473 79.7872 31.0426C79.7909 31.0404 79.7938 31.0396 79.7951 31.0388L79.796 31.0378L79.796 31.0388L80.8716 30.3674L81.9356 31.0554L81.9366 31.0545L81.9376 31.0554C81.9389 31.0563 81.9418 31.0571 81.9454 31.0594C81.9528 31.0642 81.9651 31.0722 81.9823 31.0831C82.017 31.1051 82.0713 31.1396 82.1446 31.185C82.2913 31.2758 82.5142 31.4116 82.8085 31.5857C83.3972 31.9338 84.2718 32.434 85.396 33.0306C87.6456 34.2247 90.8875 35.8009 94.8356 37.3151C102.755 40.3525 113.395 43.095 124.516 42.1192L126.708 41.9263L126.261 99.3835L126.256 99.4518L124.262 99.2996Z" fill="white" stroke="#18C662" stroke-width="4"/>
<path d="M124.691 44.1113L124.262 99.2993C124.262 99.2993 122.028 128.489 80.0347 137.981C38.1775 127.837 36.4148 98.6163 36.4148 98.6163L36.8439 43.4283C59.882 45.8112 80.8531 32.7355 80.8531 32.7355C80.8531 32.7355 101.618 46.1357 124.691 44.1113Z" fill="white"/>
<path d="M121.655 47.2963L121.256 98.6135C121.256 98.6135 119.179 125.74 80.1256 134.569C41.2329 125.134 39.5955 97.9786 39.5955 97.9786L39.9945 46.6614C61.4095 48.8778 80.9047 36.73 80.9047 36.73C80.9047 36.73 100.209 49.1794 121.655 47.2963Z" fill="#19BA5E"/>
<path d="M121.654 47.2959L121.255 98.6131C121.255 98.6131 119.177 125.74 80.124 134.569L80.8848 36.7295C80.9031 36.7296 100.207 49.179 121.654 47.2959Z" fill="#94E54B" fill-opacity="0.31"/>
</g>
<path d="M81.1076 63.2698L63.144 69.7758L63.008 83.485C62.8952 94.8531 70.4185 105.561 80.661 108.292C90.9549 105.845 98.6885 95.3479 98.8013 83.9798L98.9372 70.2705L81.1076 63.2698ZM94.3271 83.9179C94.2378 92.9223 88.4506 101.173 80.7074 103.61C73.0148 100.959 67.3926 92.5738 67.4821 83.5468L67.5889 72.7866L81.0587 68.1998L94.4338 73.1576L94.3271 83.9179ZM73.8019 82.5085L70.5937 85.6386L78.4339 93.717L91.2222 81.1508L88.0994 77.9331L78.5195 87.3467L73.8019 82.5085Z" fill="#F1F4F7"/>
<path d="M141.251 158.124L91.3516 147.39C89.4107 146.973 88.1753 145.061 88.5929 143.12L95.1444 112.663C95.5619 110.722 97.4738 109.486 99.4151 109.904L149.314 120.638C151.255 121.055 152.491 122.967 152.073 124.908L145.522 155.365C145.104 157.307 143.192 158.542 141.251 158.124Z" fill="#99288E"/>
<path d="M140.415 158.662L90.5156 147.929C88.5747 147.511 87.3394 145.599 87.7569 143.658L94.3084 113.201C94.7259 111.26 96.6379 110.024 98.5792 110.442L148.479 121.176C150.42 121.593 151.655 123.505 151.237 125.447L144.686 155.904C144.268 157.845 142.356 159.08 140.415 158.662Z" fill="#D83AD5"/>
<path d="M104.1 134.319L94.7916 132.317C94.0176 132.15 93.5247 131.388 93.6913 130.613L94.9016 124.987C95.0681 124.212 95.8306 123.72 96.605 123.887L105.914 125.889C106.688 126.055 107.181 126.818 107.014 127.592L105.804 133.219C105.637 133.993 104.875 134.486 104.1 134.319Z" fill="#FFE05E"/>
<path d="M94.623 126.304L106.736 128.909" stroke="#FCFEFF" stroke-width="0.8219" stroke-miterlimit="10"/>
<path d="M93.9805 129.295L106.093 131.9" stroke="#FCFEFF" stroke-width="0.8219" stroke-miterlimit="10"/>
<path d="M97.6574 130.086L98.3008 127.095" stroke="#FCFEFF" stroke-width="0.8219" stroke-miterlimit="10"/>
<path d="M102.411 131.11L103.055 128.119" stroke="#FCFEFF" stroke-width="0.8219" stroke-miterlimit="10"/>
<path d="M102.503 140.458L92.7347 138.357C92.3626 138.277 92.1255 137.911 92.2056 137.538L92.5738 135.827C92.6538 135.455 93.0207 135.218 93.3928 135.298L103.161 137.399C103.533 137.479 103.77 137.846 103.69 138.218L103.322 139.929C103.241 140.302 102.875 140.539 102.503 140.458Z" fill="#E0FEFD"/>
<path d="M115.776 143.315L106.008 141.214C105.636 141.134 105.399 140.768 105.479 140.395L105.847 138.684C105.927 138.312 106.294 138.075 106.666 138.155L116.434 140.256C116.806 140.336 117.043 140.703 116.963 141.075L116.595 142.786C116.515 143.159 116.148 143.395 115.776 143.315Z" fill="#E0FEFD"/>
<path d="M129.057 146.171L119.289 144.07C118.917 143.99 118.68 143.623 118.76 143.251L119.128 141.539C119.208 141.167 119.575 140.93 119.948 141.01L129.716 143.111C130.088 143.191 130.325 143.558 130.245 143.93L129.877 145.642C129.796 146.014 129.43 146.251 129.057 146.171Z" fill="#E0FEFD"/>
<path d="M142.335 149.028L132.567 146.927C132.195 146.847 131.958 146.48 132.038 146.108L132.406 144.396C132.486 144.024 132.852 143.787 133.225 143.867L142.993 145.968C143.365 146.048 143.602 146.415 143.522 146.787L143.154 148.499C143.074 148.871 142.707 149.108 142.335 149.028Z" fill="#E0FEFD"/>
<path d="M140.777 156.073L110.265 149.509C109.871 149.425 109.62 149.036 109.705 148.642L110.061 146.984C110.146 146.59 110.534 146.339 110.929 146.424L141.441 152.987C141.835 153.072 142.086 153.46 142.001 153.855L141.644 155.512C141.559 155.906 141.171 156.157 140.777 156.073Z" fill="white"/>
<path d="M134.67 150.276L131.818 149.662C131.623 149.62 131.499 149.429 131.541 149.235L131.743 148.298C131.784 148.103 131.976 147.98 132.17 148.022L135.023 148.635C135.217 148.677 135.341 148.868 135.299 149.063L135.098 150C135.056 150.194 134.864 150.318 134.67 150.276Z" fill="white"/>
<path d="M141.924 151.838L139.071 151.224C138.877 151.182 138.753 150.991 138.795 150.797L138.997 149.86C139.038 149.665 139.23 149.542 139.424 149.584L142.277 150.197C142.471 150.239 142.595 150.43 142.553 150.625L142.352 151.562C142.31 151.756 142.118 151.88 141.924 151.838Z" fill="white"/>
<path d="M114.956 56.2991C125.612 56.328 134.273 47.7136 134.302 37.0582C134.331 26.4028 125.716 17.7415 115.061 17.7125C104.405 17.6836 95.7441 26.2981 95.7152 36.9534C95.6863 47.6088 104.301 56.2702 114.956 56.2991Z" fill="#FFAA00"/>
<path d="M127.269 51.1805C135.094 44.4164 135.954 32.5896 129.19 24.7645C122.426 16.9394 110.599 16.0793 102.774 22.8434C94.9489 29.6075 94.0888 41.4343 100.853 49.2594C107.617 57.0844 119.444 57.9446 127.269 51.1805Z" fill="#FFCA39"/>
<path d="M127.637 44.5453C131.797 37.5714 129.516 28.545 122.542 24.3843C115.568 20.2236 106.541 22.5042 102.381 29.4781C98.2204 36.452 100.501 45.4784 107.476 49.6391C114.45 53.7997 123.476 51.5192 127.637 44.5453Z" fill="#FFAA00"/>
<path d="M116.278 46.8614L116.014 49.7136L113.06 49.4405L113.312 46.7171C111.23 46.3691 109.262 45.4873 108.093 44.4201L110.094 40.1478C111.384 41.2781 113.169 42.0912 114.783 42.24C116.187 42.37 116.723 42.0567 116.78 41.44C116.989 39.1787 108.71 40.2526 109.331 33.5464C109.599 30.6429 111.543 28.3608 115.035 28.0877L115.294 25.287L118.249 25.5602L117.994 28.3095C119.528 28.6326 120.992 29.2604 122.11 30.1933L120.216 34.4494C118.853 33.4165 117.532 32.8536 116.253 32.7351C114.807 32.6011 114.299 33.0724 114.242 33.6891C114.042 35.8477 122.318 34.7986 121.705 41.4282C121.448 44.2042 119.59 46.4683 116.278 46.8614Z" fill="#C99914"/>
<path d="M115.885 46.3912L115.622 49.2434L112.667 48.9703L112.919 46.2469C110.838 45.8989 108.869 45.0171 107.7 43.9499L109.701 39.6776C110.992 40.8079 112.777 41.6209 114.39 41.7698C115.794 41.8997 116.33 41.5864 116.387 40.9698C116.597 38.7085 108.318 39.7824 108.938 33.0762C109.207 30.1726 111.151 27.8906 114.643 27.6177L114.901 24.8168L117.856 25.09L117.602 27.8393C119.136 28.1624 120.599 28.7901 121.718 29.7231L119.823 33.9792C118.46 32.9463 117.139 32.3834 115.861 32.2649C114.415 32.1309 113.906 32.6022 113.849 33.2189C113.649 35.3775 121.926 34.329 121.312 40.958C121.055 43.7338 119.198 45.9981 115.885 46.3912Z" fill="#FFCA39"/>
<path d="M144.241 128.902C150.834 134.824 160.979 134.281 166.902 127.688C172.824 121.095 172.28 110.949 165.687 105.027C159.095 99.1047 148.949 99.6483 143.027 106.241C137.104 112.834 137.648 122.98 144.241 128.902Z" fill="#FFAA00"/>
<path d="M154.715 132.55C163.317 132.69 170.404 125.831 170.545 117.23C170.685 108.628 163.826 101.541 155.225 101.401C146.623 101.26 139.536 108.119 139.396 116.72C139.255 125.322 146.114 132.409 154.715 132.55Z" fill="#FFCA39"/>
<path d="M158.62 128.637C165.065 126.617 168.652 119.755 166.632 113.31C164.612 106.865 157.749 103.277 151.304 105.297C144.859 107.317 141.272 114.18 143.293 120.625C145.313 127.07 152.175 130.658 158.62 128.637Z" fill="#FFAA00"/>
<path d="M150.291 123.781L148.547 125.404L146.865 123.597L148.531 122.048C147.433 120.678 146.7 119.041 146.567 117.731L150.175 116.19C150.349 117.606 151.006 119.099 151.924 120.086C152.723 120.944 153.229 121.047 153.606 120.696C154.989 119.41 149.259 115.488 153.36 111.673C155.135 110.021 157.606 109.682 159.922 111.448L161.635 109.854L163.317 111.661L161.635 113.225C162.408 114.276 162.967 115.476 163.144 116.674L159.611 118.264C159.338 116.868 158.83 115.787 158.103 115.005C157.28 114.121 156.704 114.132 156.327 114.482C155.007 115.71 160.721 119.646 156.667 123.418C154.97 124.998 152.563 125.372 150.291 123.781Z" fill="#C99914"/>
<path d="M150.308 123.272L148.564 124.895L146.883 123.088L148.548 121.538C147.45 120.169 146.718 118.531 146.584 117.222L150.193 115.681C150.367 117.097 151.023 118.59 151.942 119.576C152.74 120.435 153.246 120.538 153.624 120.187C155.007 118.901 149.277 114.979 153.377 111.163C155.153 109.511 157.623 109.173 159.94 110.939L161.653 109.345L163.334 111.152L161.653 112.716C162.425 113.766 162.985 114.967 163.162 116.165L159.628 117.755C159.355 116.359 158.848 115.278 158.12 114.496C157.298 113.612 156.721 113.622 156.344 113.973C155.024 115.201 160.739 119.137 156.685 122.909C154.987 124.488 152.58 124.863 150.308 123.272Z" fill="#FFCA39"/>
</g>
<defs>
<linearGradient id="paint0_linear_3233_5937" x1="194.802" y1="100.701" x2="84.8731" y2="61.8772" gradientUnits="userSpaceOnUse">
<stop stop-color="#FFD2A1"/>
<stop offset="1" stop-color="#E0B98E"/>
</linearGradient>
<clipPath id="clip0_3233_5937">
<rect width="212" height="175" fill="white"/>
</clipPath>
<clipPath id="clip1_3233_5937">
<rect width="134.983" height="142.678" fill="white" transform="translate(4.56641 26.4907) rotate(0.445448)"/>
</clipPath>
</defs>
</svg>
