<svg width="212" height="175" viewBox="0 0 212 175" fill="none" xmlns="http://www.w3.org/2000/svg">
<g clip-path="url(#clip0_4666_32603)">
<path d="M4.84861 80.7038C4.84861 38.5419 39.0211 4.37183 81.1861 4.37183C123.351 4.37183 157.524 38.5419 157.524 80.7038C157.524 122.866 123.351 157.036 81.1861 157.036C39.0211 157.036 4.84861 122.849 4.84861 80.7038Z" fill="white"/>
<path d="M81.1861 3.96191C123.505 3.96191 157.933 38.3881 157.933 80.7037C157.933 123.019 123.505 157.446 81.1861 157.446C38.8674 157.446 4.43875 123.019 4.43875 80.7037C4.43875 38.3881 38.8674 3.96191 81.1861 3.96191ZM81.1861 156.626C123.044 156.626 157.114 122.575 157.114 80.7037C157.114 38.8321 123.044 4.78159 81.1861 4.78159C39.3285 4.78159 5.25848 38.8321 5.25848 80.7037C5.25848 122.575 39.3115 156.626 81.1861 156.626Z" fill="#B74400"/>
<path d="M143.964 119.382C136.228 129.884 126.562 136.612 115.82 143.682C115.102 144.16 115.546 145.56 116.452 145.168C128.133 140.284 137.508 129.987 144.049 119.416C144.083 119.365 143.998 119.331 143.964 119.365V119.382Z" fill="white"/>
<path d="M69.8464 153.04C67.114 152.442 64.3987 151.708 61.7345 150.854C59.429 150.103 57.1406 148.873 54.7156 148.668C54.4765 148.651 54.3228 149.01 54.5106 149.164C58.3019 152.357 65.0305 152.835 69.8294 153.211C69.9318 153.211 69.9489 153.057 69.8464 153.04Z" fill="white"/>
<path d="M81.1861 7.0188C121.814 7.0188 154.876 40.0789 154.876 80.7039C154.876 80.9259 154.689 81.1137 154.467 81.1137C154.245 81.1137 154.057 80.9259 154.057 80.7039C154.057 40.5229 121.37 7.83847 81.1861 7.83847C41.0022 7.83847 8.31539 40.5229 8.31539 80.7039C8.31539 109.717 25.4956 135.946 52.1027 147.541C52.3076 147.627 52.4101 147.866 52.3076 148.088C52.2222 148.293 51.9661 148.395 51.7611 148.293C24.8637 136.578 7.47858 110.041 7.47858 80.7039C7.49566 40.0789 40.5411 7.0188 81.1861 7.0188Z" fill="#B74400"/>
<path d="M100.672 12.0222C100.672 12.0222 100.74 12.0222 100.791 12.0222C124.137 18.6821 142.871 37.2784 149.702 60.5707C149.77 60.7927 149.651 61.0147 149.429 61.083C149.207 61.1513 148.985 61.0147 148.916 60.8098C142.171 37.7907 123.641 19.3993 100.569 12.8248C100.347 12.7565 100.228 12.5345 100.279 12.3125C100.33 12.1247 100.501 12.0222 100.672 12.0222Z" fill="#B74400"/>
<path d="M81.1861 9.30688C84.2771 9.30688 87.3853 9.5118 90.4422 9.90456C90.6642 9.93872 90.8179 10.1436 90.8008 10.3656C90.7837 10.5876 90.5617 10.7413 90.3397 10.7242C87.317 10.3315 84.243 10.1436 81.1861 10.1436C64.6207 10.1436 48.5334 16.0009 35.8618 26.6225C35.691 26.7591 35.4348 26.742 35.2811 26.5712C35.1274 26.4005 35.1616 26.1443 35.3324 25.9906C48.1577 15.2495 64.4328 9.32396 81.1861 9.32396V9.30688Z" fill="#B74400"/>
<path d="M10.7063 71.6875C10.7063 71.6875 10.7404 71.6875 10.7575 71.6875C10.9795 71.7217 11.1503 71.9266 11.1161 72.1486C10.7746 74.9662 10.6038 77.8521 10.6038 80.7039C10.6038 80.9259 10.416 81.1137 10.1939 81.1137C9.97193 81.1137 9.78408 80.9259 9.78408 80.7039C9.78408 77.818 9.95485 74.8979 10.2964 72.0461C10.3135 71.8412 10.5013 71.6875 10.7063 71.6875Z" fill="#B74400"/>
<path d="M21.1066 118.135C21.2432 118.135 21.3799 118.204 21.4482 118.323C27.4595 127.852 35.7764 135.912 45.5107 141.599C45.6985 141.718 45.7668 141.957 45.6644 142.162C45.5448 142.367 45.2887 142.418 45.1008 142.299C35.264 136.527 26.8618 128.381 20.7651 118.75C20.6455 118.562 20.6967 118.306 20.8846 118.187C20.9529 118.153 21.0212 118.118 21.1066 118.118V118.135Z" fill="#B74400"/>
<path d="M28.6891 93.3234C26.1958 82.9921 29.9016 73.2244 36.9718 71.5338C44.042 69.8261 51.7782 76.8275 54.2716 87.1588C56.7649 97.4901 53.042 107.241 45.9889 108.948C38.9187 110.656 31.1825 103.655 28.6891 93.3234Z" fill="#FBD5C0"/>
<path d="M39.1065 70.8677C45.7156 70.8677 52.393 77.5958 54.6643 87.0562C57.2089 97.5924 53.3494 107.599 46.0742 109.341C42.5221 110.195 38.7137 109 35.3324 105.943C32.0022 102.937 29.4918 98.4804 28.2793 93.4087C25.7347 82.8725 29.5942 72.8656 36.8694 71.1238C37.6037 70.9531 38.3551 70.8677 39.1065 70.8677ZM43.82 108.812C44.5202 108.812 45.2033 108.726 45.8864 108.573C52.7175 106.933 56.3038 97.3704 53.8788 87.2782C51.4537 77.186 43.8883 70.2871 37.0743 71.9435C30.2432 73.5828 26.6569 83.1457 29.0819 93.2379C30.2603 98.1559 32.6853 102.459 35.8959 105.362C38.4063 107.633 41.1559 108.812 43.82 108.812Z" fill="#B74400"/>
<path d="M39.1236 73.4976C44.5885 73.4976 50.1558 79.5939 52.1027 87.6881C53.1957 92.2476 53.042 96.807 51.6245 100.513C50.3266 103.928 48.1407 106.148 45.4595 106.797C44.93 106.916 44.3836 106.985 43.82 106.985C38.3551 106.985 32.7878 100.888 30.8238 92.794C29.7309 88.2346 29.9016 83.6752 31.302 79.9696C32.5999 76.5543 34.7859 74.3172 37.4671 73.6854C37.9965 73.5659 38.543 73.4976 39.1065 73.4976H39.1236Z" fill="#FBD5C0"/>
<path d="M39.1236 73.0876C44.7593 73.0876 50.5145 79.3206 52.5125 87.5856C53.6397 92.2304 53.4518 96.8752 52.0173 100.649C50.6682 104.184 48.3797 106.506 45.5619 107.189C44.9983 107.326 44.4177 107.394 43.8371 107.394C38.2014 107.394 32.4462 101.161 30.4481 92.8964C29.321 88.2516 29.5088 83.6068 30.9434 79.8329C32.2925 76.298 34.5809 73.9756 37.3988 73.2926C37.9623 73.156 38.543 73.0876 39.1236 73.0876ZM43.8371 106.592C44.3494 106.592 44.8788 106.523 45.3741 106.404C47.9186 105.789 50.0021 103.655 51.2488 100.376C52.6321 96.7557 52.7858 92.2816 51.7099 87.7905C49.6264 79.1157 43.2735 72.7461 37.5866 74.0952C35.042 74.7099 32.9585 76.8445 31.7119 80.1402C30.3286 83.7605 30.1749 88.2345 31.2508 92.7256C33.1464 100.632 38.56 106.592 43.8371 106.592Z" fill="#B74400"/>
<path d="M30.8409 92.8111C32.7878 100.905 38.3722 107.002 43.8371 107.002C44.3836 107.002 44.93 106.933 45.4765 106.814C46.3133 106.609 47.0989 106.233 47.8333 105.738C47.782 105.738 47.7308 105.738 47.6966 105.738C42.2318 105.738 36.6644 99.6417 34.7176 91.5474C33.6246 86.988 33.7783 82.4286 35.1957 78.723C36.0838 76.3835 37.4158 74.6075 39.0041 73.5146C38.5088 73.5146 37.9965 73.583 37.5183 73.7025C34.8371 74.3514 32.6512 76.5884 31.3532 79.9866C29.9529 83.6922 29.7821 88.2517 30.8751 92.8111H30.8409Z" fill="#B74400"/>
<path d="M40.3532 73.0706L39.2261 73.839C37.672 74.8977 36.4083 76.6395 35.5714 78.8595C34.1881 82.4797 34.0344 86.9537 35.1103 91.4449C37.006 99.3513 42.4196 105.311 47.6966 105.311H49.0116L48.0723 106.045C47.2697 106.592 46.4329 106.984 45.579 107.189C45.0154 107.326 44.4348 107.394 43.8541 107.394C38.2185 107.394 32.4633 101.161 30.4652 92.8964C29.3381 88.2516 29.5259 83.6068 30.9605 79.8328C32.3096 76.298 34.598 73.9756 37.4158 73.2925C37.9111 73.173 38.4405 73.1047 38.987 73.1047L40.3532 73.0706ZM46.4329 106.045C41.2071 105.209 36.135 99.3001 34.2906 91.6498C33.1635 87.005 33.3513 82.3602 34.7859 78.5863C35.4861 76.7591 36.4595 75.2222 37.6379 74.0951C37.6208 74.0951 37.6037 74.0951 37.5866 74.0951C35.042 74.7099 32.9586 76.8445 31.7119 80.1402C30.3286 83.7604 30.1749 88.2345 31.2508 92.7256C33.1464 100.632 38.56 106.592 43.8371 106.592C44.3494 106.592 44.8788 106.523 45.3741 106.404C45.7327 106.319 46.0742 106.199 46.4329 106.045Z" fill="#B74400"/>
<path d="M102.653 59.4435C98.1955 52.7325 98.315 44.826 102.892 41.7864C107.486 38.7468 114.812 41.7181 119.252 48.4292C123.693 55.1403 123.59 63.0467 118.996 66.0863C114.419 69.1259 107.076 66.1546 102.636 59.4435H102.653Z" fill="#FBD5C0"/>
<path d="M107.042 40.1812C108.391 40.1812 109.825 40.4715 111.277 41.0691C114.453 42.3499 117.391 44.8772 119.594 48.19C124.154 55.0719 124 63.2515 119.235 66.4107C114.471 69.5698 106.871 66.5473 102.311 59.6654C100.108 56.3526 98.9298 52.647 98.9811 49.2317C99.0323 45.7652 100.347 42.9988 102.67 41.4448C103.934 40.591 105.436 40.1812 107.042 40.1812ZM114.863 66.8717C116.298 66.8717 117.63 66.5131 118.791 65.7447C123.18 62.8246 123.249 55.1572 118.928 48.6511C116.827 45.4749 113.992 43.05 110.987 41.8205C108.032 40.6251 105.232 40.7276 103.131 42.1279C101.03 43.5281 99.852 46.0555 99.8008 49.2488C99.7496 52.5104 100.894 56.0452 102.994 59.2215C106.171 64.0199 110.867 66.8717 114.863 66.8717Z" fill="#B74400"/>
<path d="M107.042 42.8281C110.577 42.8281 114.658 45.5091 117.408 49.6587C119.321 52.5276 120.345 55.7038 120.294 58.6068C120.26 61.1854 119.372 63.1833 117.767 64.2421C116.947 64.7885 115.956 65.0617 114.846 65.0617C111.311 65.0617 107.23 62.3807 104.48 58.2311C100.774 52.6471 100.603 45.9702 104.104 43.6649C104.924 43.1184 105.915 42.8452 107.025 42.8452L107.042 42.8281Z" fill="#FBD5C0"/>
<path d="M107.042 42.4182C110.713 42.4182 114.932 45.1675 117.749 49.4366C119.696 52.3738 120.755 55.6354 120.704 58.6067C120.67 61.3219 119.713 63.4394 118.006 64.5664C117.118 65.1641 116.059 65.4544 114.863 65.4544C111.192 65.4544 106.991 62.7051 104.156 58.436C100.33 52.6641 100.211 45.731 103.899 43.2891C104.787 42.6914 105.846 42.4011 107.042 42.4011V42.4182ZM114.863 64.6518C115.888 64.6518 116.793 64.3957 117.562 63.9004C119.03 62.9271 119.867 61.0316 119.901 58.6067C119.935 55.8062 118.945 52.6983 117.083 49.8977C114.402 45.8506 110.457 43.2379 107.059 43.2379C106.034 43.2379 105.129 43.494 104.378 43.9892C101.065 46.1921 101.287 52.5958 104.873 57.992C107.554 62.0391 111.499 64.6518 114.897 64.6518H114.863Z" fill="#B74400"/>
<path d="M104.412 44.5699C107.964 44.5699 112.028 47.2509 114.778 51.4005C116.691 54.2694 117.715 57.4456 117.664 60.3486C117.63 62.21 117.152 63.7639 116.298 64.891C116.827 64.7544 117.323 64.5494 117.767 64.2421C119.355 63.1833 120.243 61.1854 120.294 58.6068C120.328 55.7209 119.304 52.5447 117.408 49.6587C114.658 45.5091 110.577 42.8281 107.042 42.8281C105.932 42.8281 104.958 43.1013 104.121 43.6478C103.677 43.9381 103.285 44.3138 102.96 44.7407C103.421 44.6212 103.899 44.5529 104.412 44.5529V44.5699Z" fill="#B74400"/>
<path d="M107.042 42.4182C110.713 42.4182 114.932 45.1675 117.749 49.4366C119.696 52.3738 120.755 55.6354 120.704 58.6067C120.67 61.3219 119.713 63.4394 118.006 64.5664C117.545 64.8738 116.998 65.1129 116.417 65.2666L115.273 65.5569L115.99 64.6177C116.81 63.5589 117.237 62.0733 117.271 60.3315C117.305 57.5309 116.298 54.423 114.436 51.6224C111.755 47.5753 107.81 44.9626 104.412 44.9626C103.951 44.9626 103.507 45.0138 103.063 45.1334L101.918 45.4237L102.636 44.4845C102.994 44.0063 103.421 43.5965 103.899 43.2891C104.787 42.6914 105.846 42.4011 107.042 42.4011V42.4182ZM117.288 64.0541C117.374 64.0029 117.459 63.9517 117.562 63.9004C119.03 62.9271 119.867 61.0316 119.901 58.6067C119.935 55.8062 118.945 52.6983 117.083 49.8977C114.402 45.8506 110.457 43.2379 107.059 43.2379C106.034 43.2379 105.129 43.494 104.378 43.9892C104.292 44.0405 104.207 44.1088 104.139 44.16C107.896 43.9722 112.25 46.7898 115.154 51.1784C117.101 54.1156 118.159 57.3772 118.125 60.3485C118.108 61.7488 117.835 63.0125 117.323 64.0541H117.288Z" fill="#B74400"/>
<path d="M56.9015 140.813C52.1198 138.935 48.9775 135.588 49.8655 133.317C50.7536 131.045 55.3475 130.738 60.1121 132.599C64.8939 134.478 68.0362 137.825 67.1482 140.096C66.2601 142.367 61.6662 142.675 56.9015 140.813Z" fill="#FBD5C0"/>
<path d="M54.2545 130.96C56.0818 130.96 58.1994 131.387 60.2658 132.207C65.3209 134.187 68.5144 137.722 67.5239 140.233C66.5334 142.743 61.8028 143.153 56.7308 141.172C54.374 140.25 52.3076 138.935 50.9414 137.466C49.4898 135.929 48.9775 134.392 49.4727 133.146C49.968 131.899 51.3854 131.131 53.5031 130.977C53.7422 130.977 53.9983 130.96 54.2545 130.96ZM62.7934 141.616C64.8256 141.616 66.3455 141.052 66.7725 139.942C67.558 137.927 64.4499 134.734 59.9755 132.975C57.7213 132.087 55.4499 131.677 53.5714 131.814C51.8295 131.933 50.6169 132.531 50.2583 133.47C49.8997 134.392 50.3778 135.656 51.5733 136.937C52.8541 138.303 54.8181 139.549 57.0723 140.437C59.1046 141.24 61.1368 141.633 62.8104 141.633L62.7934 141.616Z" fill="#B74400"/>
<path d="M54.2545 133.59C55.7573 133.59 57.5676 133.966 59.3266 134.666C63.6131 136.339 65.1842 138.764 65.0988 139.293C65.0305 139.379 64.3987 139.806 62.7933 139.806C61.2905 139.806 59.4803 139.43 57.7383 138.747C53.4518 137.073 51.8807 134.649 51.9661 134.119C52.0344 134.034 52.6663 133.607 54.2716 133.607L54.2545 133.59Z" fill="#FBD5C0"/>
<path d="M54.2545 133.18C55.8086 133.18 57.67 133.573 59.4632 134.273C63.6814 135.929 65.6282 138.457 65.4916 139.345L65.4233 139.532C65.2184 139.806 64.3474 140.215 62.7763 140.215C61.2051 140.215 59.3607 139.823 57.5676 139.123C53.3494 137.466 51.4025 134.939 51.5391 134.051L51.6245 133.863C51.8294 133.59 52.7004 133.197 54.2545 133.197V133.18ZM64.6377 139.088C64.3816 138.457 62.8275 136.476 59.1558 135.041C57.448 134.375 55.7061 134 54.2374 134C53.1786 134 52.615 134.187 52.3759 134.307C52.6321 134.939 54.1862 136.92 57.8579 138.354C59.5657 139.02 61.3076 139.396 62.7763 139.396C63.8351 139.396 64.3987 139.208 64.6377 139.088Z" fill="#B74400"/>
<path d="M63.5789 137.773C62.0761 137.773 60.2658 137.398 58.5239 136.715C56.0989 135.758 54.5619 134.58 53.6738 133.624C52.4784 133.709 52.0002 134.051 51.949 134.119C51.8636 134.665 53.4518 137.073 57.7213 138.747C59.4803 139.43 61.2734 139.805 62.7763 139.805C64.3816 139.805 65.0305 139.379 65.0818 139.293C65.1159 139.054 64.8256 138.474 64.1425 137.739C63.9717 137.739 63.7668 137.756 63.5618 137.756L63.5789 137.773Z" fill="#B74400"/>
<path d="M53.8446 133.197L53.9812 133.334C54.7327 134.153 56.1672 135.332 58.6776 136.322C60.3854 136.988 62.1273 137.364 63.596 137.364C63.8009 137.364 63.9717 137.364 64.1425 137.347H64.3303L64.467 137.483C64.8085 137.859 65.5941 138.781 65.5087 139.362L65.4404 139.549C65.2355 139.823 64.3645 140.233 62.7933 140.233C61.2222 140.233 59.3778 139.84 57.5846 139.14C53.3664 137.483 51.4196 134.956 51.5562 134.068L51.6416 133.88C51.7782 133.692 52.3759 133.317 53.6738 133.231H53.8617L53.8446 133.197ZM63.5789 138.183C62.0249 138.183 60.1634 137.791 58.3702 137.09C55.8598 136.1 54.357 134.922 53.5201 134.051C52.9224 134.119 52.5809 134.239 52.393 134.324C52.6492 134.956 54.2033 136.937 57.875 138.371C59.5827 139.037 61.3247 139.413 62.7933 139.413C63.8351 139.413 64.3987 139.225 64.6548 139.123C64.5694 138.952 64.3987 138.627 64.0059 138.2C63.8692 138.2 63.7326 138.2 63.596 138.2L63.5789 138.183Z" fill="#B74400"/>
<path d="M21.1237 137.073C17.3666 133.59 14.9586 130.055 15.7613 129.201C16.5639 128.347 20.2527 130.482 24.0098 133.965C27.7669 137.466 30.1749 140.984 29.3722 141.838C28.5696 142.691 24.8808 140.557 21.1237 137.073Z" fill="#FBD5C0"/>
<path d="M16.3078 128.586C16.9396 128.586 17.8277 128.928 18.989 129.594C20.5772 130.516 22.4558 131.95 24.3001 133.658C26.7593 135.946 31.0459 140.642 29.6796 142.111C28.3134 143.58 23.3096 139.652 20.8504 137.364C19.0061 135.656 17.4349 133.88 16.4102 132.36C15.2319 130.636 14.9245 129.491 15.471 128.911C15.6759 128.689 15.9491 128.586 16.3078 128.586ZM28.8087 141.633C28.9282 141.633 29.0136 141.599 29.0648 141.547C29.4576 141.121 27.9377 138.166 23.7195 134.256C21.9263 132.582 20.099 131.182 18.562 130.294C16.8201 129.287 16.1541 129.355 16.0516 129.457C15.9491 129.56 15.9321 130.243 17.0592 131.899C18.0497 133.368 19.5867 135.093 21.3799 136.749C25.0857 140.198 27.9035 141.616 28.7916 141.616L28.8087 141.633Z" fill="#B74400"/>
<path d="M96.6073 162.5C88.2562 163.866 81.3227 164.003 81.1178 162.808C80.9299 161.612 87.539 159.529 95.89 158.163C104.241 156.797 111.192 156.66 111.379 157.855C111.567 159.051 104.958 161.134 96.6073 162.517V162.5Z" fill="#FBD5C0"/>
<path d="M107.417 156.626C111.106 156.626 111.704 157.241 111.789 157.787C112.199 160.332 97.3074 162.808 96.6756 162.91C92.6111 163.576 88.7515 163.969 85.8141 164.037C81.4764 164.123 80.8103 163.457 80.725 162.876C80.3151 160.332 95.2069 157.855 95.8388 157.753C99.9033 157.087 103.763 156.694 106.7 156.626C106.956 156.626 107.195 156.626 107.435 156.626H107.417ZM85.0285 163.218C87.5902 163.218 91.4669 162.927 96.5389 162.108C105.846 160.588 110.816 158.59 110.987 157.907C110.611 157.36 105.266 157.053 95.9754 158.573C86.668 160.093 81.6984 162.09 81.5447 162.774C81.7155 163.03 82.9109 163.218 85.0456 163.218H85.0285Z" fill="#B74400"/>
<path d="M49.9167 41.257C42.7953 47.1655 34.9567 49.4708 32.4291 46.4141C29.9016 43.3574 33.6075 36.0999 40.746 30.1915C47.8674 24.283 55.7061 21.9777 58.2336 25.0344C60.7611 28.0911 57.0552 35.3486 49.9167 41.257Z" fill="#FBD5C0"/>
<path d="M54.6814 23.2585C56.3892 23.2585 57.7213 23.7708 58.541 24.7613C59.8731 26.3665 59.7023 29.0304 58.0628 32.2579C56.4746 35.3658 53.6738 38.6786 50.19 41.5646C42.7782 47.695 34.8542 49.9491 32.1217 46.6704C30.7897 45.0652 30.9605 42.4013 32.5999 39.1738C34.1882 36.0659 36.9889 32.7531 40.4728 29.8672C43.9566 26.9812 47.7308 24.8467 51.078 23.8562C52.4101 23.4635 53.6055 23.2756 54.6644 23.2756L54.6814 23.2585ZM35.9472 47.3364C39.4652 47.3364 44.7934 44.9628 49.6606 40.9327C53.059 38.1151 55.7915 34.9047 57.3285 31.8822C58.7972 29.0133 59.0021 26.6055 57.9091 25.2906C56.8161 23.9587 54.4082 23.7196 51.3171 24.6417C48.0723 25.598 44.4006 27.6814 41.0022 30.499C37.6037 33.3166 34.8713 36.5441 33.3343 39.5495C31.8656 42.4184 31.6606 44.8262 32.7536 46.1411C33.4197 46.9437 34.5468 47.3364 35.9472 47.3364Z" fill="#B74400"/>
<path d="M54.6814 25.9053C55.1938 25.9053 56.116 25.9736 56.5087 26.4517C56.9869 27.0323 56.9357 28.6887 55.7061 31.0624C54.2886 33.8288 51.6587 36.9196 48.4822 39.5494C44.0932 43.1867 39.1748 45.5433 35.9642 45.5433C35.4519 45.5433 34.5297 45.4749 34.1369 44.9968C32.8732 43.477 35.4348 37.4661 42.1464 31.8991C46.5353 28.2618 51.4537 25.9053 54.6643 25.9053H54.6814Z" fill="#FBD5C0"/>
<path d="M54.6814 25.4954C55.3987 25.4954 56.355 25.6149 56.8332 26.1955C57.5334 27.0493 57.2431 28.979 56.0818 31.2672C54.6473 34.0678 51.9831 37.2098 48.7555 39.8738C44.2982 43.5794 39.2773 45.9701 35.9642 45.9701C35.247 45.9701 34.2906 45.8506 33.8124 45.27C32.2242 43.3574 35.4007 36.9537 41.8902 31.5917C46.3475 27.8861 51.3683 25.4954 54.6814 25.4954ZM35.9813 45.1333C39.1065 45.1333 43.9225 42.8109 48.2431 39.2249C51.3683 36.6292 53.9642 33.5896 55.3645 30.8745C56.5771 28.5179 56.5258 27.0835 56.2184 26.7078C56.0135 26.4516 55.4499 26.315 54.6985 26.315C51.5733 26.315 46.7574 28.6374 42.4367 32.2235C35.7935 37.7221 33.4709 43.5452 34.4785 44.7406C34.6834 44.9967 35.247 45.1333 35.9984 45.1333H35.9813Z" fill="#B74400"/>
<path d="M34.1369 44.9968C34.5297 45.4579 35.4177 45.5433 35.9301 45.5433C36.5278 42.9305 39.209 38.6443 44.1274 34.5631C48.5164 30.9258 53.4348 28.5692 56.6454 28.5692C56.8845 27.5275 56.782 26.7933 56.5087 26.4517C56.116 25.9736 55.1938 25.9053 54.6814 25.9053C51.4708 25.9053 46.5524 28.2618 42.1634 31.8991C35.4348 37.4661 32.8902 43.477 34.154 44.9968H34.1369Z" fill="#B74400"/>
<path d="M54.6814 25.4954C55.3987 25.4954 56.355 25.6149 56.8332 26.1955C57.226 26.6736 57.3114 27.5445 57.0552 28.6716L56.9869 28.996H56.6624C53.5372 28.996 48.7213 31.3184 44.4006 34.9045C39.3115 39.1224 36.8864 43.3232 36.3399 45.6456L36.2716 45.9701H35.9472C35.247 45.9701 34.3077 45.8506 33.8295 45.27C32.2413 43.3574 35.4177 36.9537 41.9073 31.5917C46.3646 27.8861 51.3854 25.4954 54.6985 25.4954H54.6814ZM56.3209 28.1593C56.4575 27.3567 56.355 26.8786 56.2013 26.7078C55.9964 26.4516 55.4328 26.315 54.6814 26.315C51.5562 26.315 46.7403 28.6374 42.4196 32.2235C35.7764 37.7221 33.4538 43.5452 34.4614 44.7406C34.6322 44.9455 35.0591 45.0821 35.6398 45.1333C36.3399 42.6402 38.8674 38.4223 43.8883 34.2727C48.209 30.6866 53.042 28.3471 56.338 28.1934L56.3209 28.1593Z" fill="#B74400"/>
<path d="M124.632 108.248C129.926 102.186 136.21 99.0097 138.687 101.161C141.163 103.313 138.892 109.99 133.598 116.052C128.304 122.114 122.019 125.29 119.543 123.139C117.066 120.987 119.355 114.31 124.632 108.248Z" fill="#FBD5C0"/>
<path d="M136.637 100.086C137.56 100.086 138.362 100.342 138.96 100.854C140.292 102.015 140.463 104.287 139.438 107.275C138.465 110.144 136.501 113.354 133.905 116.325C128.389 122.661 121.951 125.786 119.269 123.446C116.588 121.107 118.808 114.31 124.324 107.975C128.611 103.057 133.427 100.086 136.637 100.086ZM121.592 123.412C124.495 123.412 129.26 120.424 133.29 115.796C135.818 112.893 137.73 109.785 138.67 107.019C139.558 104.406 139.472 102.391 138.414 101.486C136.159 99.5222 129.977 102.733 124.939 108.521C119.901 114.31 117.545 120.868 119.816 122.832C120.277 123.224 120.875 123.412 121.609 123.412H121.592Z" fill="#B74400"/>
<path d="M136.637 102.715C136.911 102.715 137.133 102.767 137.235 102.852C138.055 103.569 137.201 108.573 131.924 114.618C127.928 119.211 123.693 121.619 121.592 121.619C121.319 121.619 121.097 121.568 120.994 121.482C120.755 121.277 120.516 120.116 121.267 117.896C122.121 115.386 123.966 112.398 126.305 109.717C130.302 105.123 134.537 102.715 136.637 102.715Z" fill="#FBD5C0"/>
<path d="M136.637 102.306C136.911 102.306 137.286 102.34 137.491 102.528C138.55 103.45 137.645 108.641 132.231 114.874C128.15 119.553 123.795 122.012 121.592 122.012C121.319 122.012 120.96 121.978 120.738 121.79C120.277 121.38 120.14 119.98 120.892 117.76C121.763 115.198 123.624 112.176 125.998 109.444C130.08 104.765 134.434 102.306 136.637 102.306ZM136.945 103.159C136.945 103.159 136.825 103.125 136.62 103.125C134.656 103.125 130.472 105.533 126.596 109.973C124.29 112.62 122.48 115.54 121.643 118.016C120.943 120.065 121.165 121.039 121.267 121.175C121.267 121.158 121.37 121.175 121.575 121.175C123.539 121.175 127.723 118.767 131.6 114.328C136.911 108.231 137.44 103.586 136.945 103.142V103.159Z" fill="#B74400"/>
<path d="M129.448 112.688C126.357 116.223 123.163 118.443 120.875 119.297C120.619 120.612 120.806 121.312 120.977 121.482C121.08 121.568 121.302 121.619 121.575 121.619C123.675 121.619 127.911 119.211 131.907 114.618C137.184 108.573 138.021 103.569 137.218 102.852C137.133 102.767 136.911 102.715 136.62 102.715C136.142 102.715 135.544 102.852 134.878 103.108C134.434 105.26 132.88 108.76 129.448 112.688Z" fill="#B74400"/>
<path d="M136.637 102.306C136.911 102.306 137.286 102.34 137.491 102.528C138.55 103.45 137.645 108.641 132.231 114.874C128.15 119.553 123.795 122.012 121.592 122.012C121.319 122.012 120.96 121.978 120.738 121.79C120.345 121.448 120.26 120.458 120.499 119.228L120.55 119.006L120.772 118.921C123.3 117.982 126.442 115.557 129.174 112.432C133.307 107.685 134.298 104.03 134.52 103.023L134.571 102.801L134.776 102.716C135.527 102.442 136.159 102.306 136.672 102.306H136.637ZM136.945 103.159C136.945 103.159 136.825 103.125 136.62 103.125C136.262 103.125 135.784 103.228 135.22 103.416C134.878 104.918 133.683 108.453 129.755 112.961C127.023 116.103 123.863 118.562 121.233 119.604C121.063 120.629 121.216 121.107 121.267 121.192C121.25 121.175 121.37 121.192 121.575 121.192C123.539 121.192 127.723 118.784 131.6 114.345C136.911 108.248 137.44 103.603 136.945 103.159Z" fill="#B74400"/>
<path d="M71.3493 54.8499C73.4157 54.662 75.0893 55.2597 75.5163 56.4892C76.0798 58.1456 74.0988 60.3485 71.076 61.3731C68.0533 62.4148 65.1501 61.9025 64.5694 60.246C64.1766 59.119 64.9622 57.7529 66.4651 56.66L71.3493 54.8499Z" fill="#FBD5C0"/>
<path d="M72.0666 54.406C74.0305 54.406 75.465 55.1232 75.892 56.3527C76.5409 58.2482 74.4916 60.6389 71.1956 61.766C67.9167 62.893 64.8256 62.2783 64.1766 60.3828C63.7497 59.1191 64.5182 57.5652 66.2089 56.3357C66.3967 56.199 66.6529 56.2332 66.7895 56.421C66.9262 56.6089 66.8749 56.865 66.7041 57.0016C65.3038 58.0091 64.6377 59.2045 64.9622 60.1266C65.4575 61.544 68.1899 61.9538 70.9565 60.9975C73.706 60.0413 75.6187 58.0433 75.1405 56.6259C74.799 55.6355 73.3303 55.0891 71.4005 55.2598C71.1956 55.294 70.9736 55.1061 70.9565 54.8841C70.9394 54.6622 71.1102 54.4572 71.3322 54.4402C71.5884 54.4231 71.8445 54.406 72.1007 54.406H72.0666Z" fill="#B74400"/>
<path d="M71.076 61.3903C73.2791 60.6389 74.9185 59.2557 75.4309 57.9237C74.2183 57.1894 72.0666 57.1211 69.8635 57.8725C67.6605 58.6239 66.021 60.0071 65.5087 61.339C66.7383 62.0733 68.873 62.1416 71.076 61.3903Z" fill="#FBD5C0"/>
<path d="M72.9034 56.9163C73.9793 56.9163 74.9356 57.1382 75.6529 57.5652L75.9432 57.7359L75.8237 58.0604C75.243 59.5631 73.484 60.9805 71.2127 61.766C68.9584 62.5515 66.6871 62.5173 65.3038 61.6806L65.0135 61.5098L65.133 61.1854C65.7136 59.6827 67.4726 58.2653 69.744 57.4798C70.837 57.1041 71.9299 56.9163 72.9034 56.9163ZM74.9015 58.1116C73.706 57.5822 71.8445 57.6335 70.0001 58.2653C68.1557 58.8971 66.6529 60.0071 66.0381 61.1512C67.2336 61.6806 69.095 61.6294 70.9394 60.9975C72.7667 60.3657 74.2696 59.2557 74.9015 58.1116Z" fill="#B74400"/>
<path d="M117.698 89.8226C116.435 91.1204 115.102 91.7181 114.266 91.2399C113.019 90.5227 113.309 87.688 114.897 84.9387C116.503 82.1723 118.791 80.5159 120.038 81.2331C120.704 81.6259 120.943 82.6334 120.755 83.9141L117.698 89.8397V89.8226Z" fill="#FBD5C0"/>
<path d="M119.389 80.6355C119.713 80.6355 120.004 80.7038 120.26 80.8575C121.08 81.3186 121.387 82.4285 121.165 83.9483C121.131 84.1703 120.926 84.324 120.704 84.2899C120.482 84.2557 120.328 84.0508 120.362 83.8288C120.533 82.7018 120.345 81.8479 119.85 81.5747C119.406 81.3186 118.672 81.5064 117.852 82.1041C116.93 82.7701 116.008 83.8459 115.256 85.1437C114.505 86.4244 114.044 87.7735 113.924 88.9005C113.822 89.908 114.027 90.6252 114.471 90.8985C115.102 91.2571 116.247 90.7277 117.408 89.5494C117.562 89.3787 117.818 89.3787 117.989 89.5494C118.159 89.7031 118.159 89.9593 117.989 90.13C116.52 91.6328 115.051 92.1963 114.061 91.6157C113.309 91.1888 112.968 90.1983 113.104 88.8322C113.224 87.5856 113.736 86.1341 114.539 84.7509C115.342 83.3677 116.332 82.1895 117.357 81.4722C118.091 80.9429 118.774 80.6867 119.372 80.6867L119.389 80.6355Z" fill="#B74400"/>
<path d="M117.852 86.6124C119.099 84.4607 119.526 82.292 119.082 81.0796C117.818 81.3016 116.161 82.7702 114.915 84.9047C113.668 87.0564 113.241 89.2251 113.685 90.4204C114.949 90.1984 116.605 88.7299 117.852 86.5953V86.6124Z" fill="#FBD5C0"/>
<path d="M119.355 80.6355L119.474 80.9599C119.987 82.3261 119.474 84.6314 118.211 86.8343C116.947 89.0371 115.188 90.6252 113.753 90.8643L113.412 90.9156L113.292 90.5911C112.797 89.225 113.292 86.9196 114.556 84.7168C115.82 82.5139 117.579 80.9429 119.013 80.6867L119.355 80.6355ZM117.493 86.4074C118.518 84.6314 119.013 82.7701 118.791 81.5918C117.664 81.9845 116.298 83.3507 115.273 85.1266C114.249 86.9026 113.753 88.7639 113.975 89.9422C115.102 89.5494 116.469 88.1833 117.493 86.4074Z" fill="#B74400"/>
<path d="M113.873 145.629C113.873 145.629 111.294 152.767 111.294 158.095L81.0665 162.773C79.4441 159.153 77.2923 155.772 74.6965 152.767L113.873 145.629Z" fill="white"/>
<path d="M113.873 145.219C113.873 145.219 113.958 145.219 114.009 145.236C114.214 145.321 114.334 145.543 114.249 145.765C114.231 145.834 111.687 152.903 111.687 158.094V158.453L80.8104 163.234L80.6737 162.944C79.0513 159.358 76.9337 156.011 74.3721 153.04C74.2184 152.869 74.2354 152.613 74.4233 152.459C74.5941 152.305 74.8502 152.34 75.0039 152.51C77.5485 155.482 79.6661 158.777 81.3056 162.329L110.884 157.753C110.987 152.459 113.378 145.782 113.48 145.492C113.548 145.321 113.702 145.219 113.873 145.219Z" fill="#B74400"/>
<path d="M96.6073 162.5C88.2562 163.866 81.3227 164.003 81.1178 162.808C80.9299 161.612 87.539 159.529 95.89 158.163C104.241 156.797 111.192 156.66 111.379 157.855C111.567 159.051 104.958 161.134 96.6073 162.517V162.5Z" fill="#FBD5C0"/>
<path d="M107.417 156.626C111.106 156.626 111.704 157.241 111.789 157.787C112.199 160.332 97.3074 162.808 96.6756 162.91C92.6111 163.576 88.7515 163.969 85.8141 164.037C81.4764 164.123 80.8103 163.457 80.725 162.876C80.3151 160.332 95.2069 157.855 95.8388 157.753C99.9033 157.087 103.763 156.694 106.7 156.626C106.956 156.626 107.195 156.626 107.435 156.626H107.417ZM85.0285 163.218C87.5902 163.218 91.4669 162.927 96.5389 162.108C105.846 160.588 110.816 158.59 110.987 157.907C110.611 157.36 105.266 157.053 95.9754 158.573C86.668 160.093 81.6984 162.09 81.5447 162.774C81.7155 163.03 82.9109 163.218 85.0456 163.218H85.0285Z" fill="#B74400"/>
<path d="M104.873 159.051C105.095 159.051 105.266 159.222 105.283 159.426C105.283 159.648 105.129 159.853 104.907 159.853C98.1101 160.28 91.5693 161.356 87.4023 162.722C87.1803 162.791 86.9583 162.671 86.89 162.466C86.8217 162.244 86.9413 162.022 87.1462 161.954C93.4137 159.888 102.277 159.204 104.856 159.034C104.856 159.034 104.856 159.034 104.89 159.034L104.873 159.051Z" fill="#B74400"/>
<path d="M77.2582 150.222C77.3606 150.222 77.446 150.256 77.5314 150.325C79.3417 151.93 80.8274 153.842 81.9375 155.994C82.0399 156.199 81.9716 156.438 81.7667 156.54C81.5618 156.643 81.3227 156.558 81.2202 156.37C80.1614 154.303 78.7439 152.476 77.002 150.939C76.8312 150.786 76.8142 150.53 76.9679 150.359C77.0532 150.273 77.1557 150.222 77.2753 150.222H77.2582Z" fill="#B74400"/>
<path d="M81.0153 150.649C81.1348 150.649 81.2715 150.7 81.3568 150.82L82.9792 153.108C83.1158 153.296 83.0646 153.552 82.8768 153.672C82.6889 153.808 82.4327 153.757 82.2961 153.569L80.6737 151.281C80.5371 151.093 80.5883 150.837 80.7762 150.717C80.8445 150.666 80.9299 150.649 81.0153 150.649Z" fill="#B74400"/>
<path d="M96.6414 107.821C98.6566 107.821 100.108 108.385 100.484 109.495C100.86 110.588 100.091 111.971 98.3663 113.269C98.1955 113.405 97.9222 113.371 97.7856 113.183C97.649 112.995 97.6831 112.739 97.871 112.603C99.2714 111.544 99.9545 110.485 99.6983 109.751C99.2714 108.504 95.9241 108.112 91.8084 109.529C89.8786 110.195 88.1879 111.117 87.0266 112.125C85.9849 113.047 85.5067 113.935 85.7117 114.549C86.0532 115.557 88.1879 115.95 90.8691 115.472C91.0911 115.437 91.2961 115.591 91.3473 115.813C91.3815 116.035 91.2278 116.24 91.0058 116.291C87.761 116.855 85.4384 116.291 84.9261 114.823C84.5845 113.849 85.1481 112.671 86.4802 111.51C87.7098 110.434 89.5029 109.444 91.5352 108.76C93.3796 108.129 95.1386 107.821 96.6243 107.821H96.6414Z" fill="#B74400"/>
<path d="M93.0551 113.149C96.2486 112.056 98.6566 110.28 99.2885 108.778C97.871 107.975 94.8824 108.06 91.6889 109.153C88.4953 110.246 86.0874 112.022 85.4555 113.525C86.8729 114.328 89.8615 114.242 93.0551 113.149Z" fill="#FBD5C0"/>
<path d="M96.6414 107.821C97.8027 107.821 98.8103 108.009 99.4934 108.419L99.8008 108.59L99.6642 108.931C98.964 110.622 96.4365 112.432 93.1917 113.542C89.9469 114.652 86.8388 114.789 85.2506 113.883L84.9432 113.713L85.0798 113.371C85.78 111.681 88.3075 109.888 91.5522 108.76C93.3625 108.129 95.1386 107.821 96.6414 107.821ZM98.742 108.948C97.2733 108.368 94.575 108.59 91.8255 109.529C89.076 110.468 86.8217 111.954 86.0191 113.32C87.4877 113.901 90.186 113.679 92.9355 112.739C95.6851 111.8 97.9393 110.297 98.742 108.948Z" fill="#B74400"/>
<path d="M79.2904 110.963C80.7762 110.963 82.262 111.51 83.372 112.5C83.5428 112.654 83.5599 112.91 83.4062 113.081C83.2525 113.252 82.9963 113.269 82.8255 113.115C81.7838 112.193 80.3663 111.715 78.983 111.783C78.983 111.783 78.983 111.783 78.966 111.783C78.7439 111.783 78.5732 111.612 78.5561 111.39C78.5561 111.168 78.7098 110.963 78.9489 110.963C79.0684 110.963 79.188 110.963 79.2904 110.963Z" fill="#B74400"/>
<path d="M100.501 102.869C100.586 102.869 100.672 102.903 100.74 102.955C100.928 103.091 100.962 103.347 100.825 103.535C100.194 104.372 99.9203 105.482 100.125 106.506C100.177 106.728 100.023 106.95 99.8008 106.985C99.5788 107.036 99.3568 106.882 99.3226 106.66C99.0835 105.396 99.3909 104.047 100.177 103.023C100.262 102.92 100.381 102.869 100.501 102.869Z" fill="#B74400"/>
<path d="M81.4422 19.2795C81.6301 19.2795 81.8009 19.3991 81.835 19.604C81.8862 19.826 81.7496 20.048 81.5276 20.0992C80.2468 20.3895 79.4441 20.9701 79.3758 21.619C79.2563 22.7461 81.4081 24.3171 84.6699 24.7611C86.8559 25.0685 88.9052 24.7611 89.8957 23.9585C90.2202 23.7024 90.391 23.4291 90.4251 23.1388C90.5105 22.2167 89.1955 21.1238 87.2145 20.4578C86.9925 20.3895 86.89 20.1504 86.9583 19.9455C87.0266 19.7235 87.2657 19.6211 87.4707 19.6894C89.8957 20.492 91.3644 21.8752 91.2278 23.2242C91.1765 23.7365 90.8862 24.2147 90.391 24.6074C89.2126 25.5295 86.9754 25.8881 84.5333 25.5808C80.9811 25.1026 78.3512 23.3267 78.539 21.5336C78.6415 20.492 79.6491 19.6723 81.3227 19.2966C81.3568 19.2966 81.391 19.2966 81.4081 19.2966L81.4422 19.2795Z" fill="#B74400"/>
<path d="M85.0115 21.4655C82.4327 21.124 80.1956 21.6021 79.2563 22.5584C79.9735 23.7538 82.057 24.8125 84.6358 25.154C87.2145 25.4956 89.4517 25.0174 90.391 24.0611C89.6737 22.8658 87.5902 21.807 85.0115 21.4484V21.4655Z" fill="#FBD5C0"/>
<path d="M83.3549 20.9531C83.9014 20.9531 84.465 20.9873 85.0627 21.0727C87.7098 21.4313 89.9299 22.5242 90.7325 23.8732L90.9033 24.1464L90.6813 24.3684C89.6225 25.4613 87.2316 25.9395 84.5845 25.5809C81.9375 25.2222 79.7174 24.1294 78.9147 22.7803L78.761 22.5071L78.983 22.2851C79.8028 21.4313 81.4422 20.9531 83.3891 20.9531H83.3549ZM84.9432 21.8753C82.7914 21.585 80.7933 21.8753 79.7857 22.6266C80.6054 23.6341 82.501 24.4709 84.6699 24.7612C86.8217 25.0515 88.8198 24.7612 89.8274 24.0098C89.0077 23.0023 87.112 22.1656 84.9432 21.8753Z" fill="#B74400"/>
<path d="M77.7364 21.7385C77.7364 21.7385 77.7876 21.7385 77.8218 21.7385C78.0438 21.7897 78.1804 22.0117 78.1292 22.2337C77.7534 23.9243 76.8142 25.4783 75.4992 26.5882C75.3284 26.7419 75.0722 26.7078 74.9185 26.537C74.7648 26.3662 74.799 26.1101 74.9698 25.9564C76.1481 24.9489 76.9849 23.5486 77.3265 22.0459C77.3777 21.858 77.5314 21.7214 77.7193 21.7214L77.7364 21.7385Z" fill="#B74400"/>
<path d="M108.323 130.687C108.323 130.687 108.442 130.687 108.493 130.721C108.698 130.806 108.784 131.062 108.698 131.267C108.066 132.651 107.093 133.658 105.966 134.102C104.548 134.666 102.909 134.205 102.158 133.043C102.038 132.855 102.089 132.599 102.277 132.48C102.465 132.36 102.721 132.411 102.841 132.599C103.438 133.521 104.736 133.692 105.658 133.334C106.598 132.975 107.4 132.121 107.947 130.926C108.015 130.772 108.169 130.687 108.323 130.687Z" fill="#B74400"/>
<path d="M29.099 111.885C29.2698 111.885 29.4405 112.005 29.4918 112.176L30.2261 114.498C30.3115 114.789 30.414 115.096 30.5847 115.318C31.1142 116.018 32.2925 115.916 33.2489 115.745C33.4709 115.711 33.6758 115.864 33.7271 116.086C33.7612 116.308 33.6075 116.513 33.3855 116.564C32.1901 116.769 30.7384 116.872 29.9358 115.83C29.6796 115.489 29.5601 115.096 29.4405 114.754L28.7062 112.432C28.6379 112.21 28.7574 111.988 28.9794 111.92C29.0136 111.92 29.0648 111.903 29.099 111.903V111.885Z" fill="#B74400"/>
<path d="M22.3874 63.7981C22.5411 63.7981 22.6778 63.8835 22.7461 64.0201C22.8485 64.225 22.7802 64.4641 22.5753 64.5665C21.3628 65.1984 20.543 66.1205 20.304 67.1109C20.1673 67.6915 20.2869 68.3575 20.6114 68.8869C20.8675 69.2967 21.2432 69.587 21.6531 69.6724C21.8751 69.7236 22.0117 69.9456 21.9605 70.1676C21.9093 70.3896 21.7043 70.5262 21.4652 70.475C20.8334 70.3384 20.2869 69.9286 19.9112 69.3138C19.4671 68.6137 19.3134 67.7086 19.5013 66.9231C19.8941 65.2496 21.3628 64.2762 22.1996 63.8493C22.2508 63.8152 22.3191 63.7981 22.3874 63.7981Z" fill="#B74400"/>
<path d="M133.598 44.7749C134.366 44.7749 135.135 45.1335 135.613 45.7483C136.279 46.6362 136.245 47.9511 135.544 48.822C135.408 48.9928 135.135 49.027 134.964 48.8733C134.793 48.7367 134.759 48.4634 134.913 48.2927C135.374 47.7291 135.408 46.8241 134.964 46.2435C134.52 45.6629 133.649 45.4238 132.983 45.7141C132.778 45.7995 132.539 45.7141 132.436 45.5092C132.351 45.3043 132.436 45.0652 132.641 44.9627C132.949 44.8261 133.273 44.7749 133.598 44.7749Z" fill="#B74400"/>
<path d="M65.9015 82.7529C66.004 82.7529 66.1235 82.7871 66.1918 82.8724C66.3455 83.0432 66.3455 83.2994 66.1918 83.453C65.2184 84.3923 64.7744 85.7755 65.0988 86.8854C65.2696 87.4831 65.7307 88.0466 66.3284 88.354C66.8408 88.6272 67.3702 88.6785 67.8484 88.5248C68.0704 88.4565 68.2924 88.576 68.3607 88.7809C68.429 89.0029 68.3095 89.2249 68.1045 89.2932C67.4214 89.5152 66.6529 89.4298 65.9527 89.0712C65.1672 88.6614 64.5524 87.9271 64.3133 87.1074C63.9034 85.6901 64.4157 84.0337 65.6112 82.8554C65.6966 82.77 65.799 82.7358 65.9015 82.7358V82.7529Z" fill="#B74400"/>
<path d="M93.5674 68.5112C94.353 68.5112 95.1215 68.8698 95.6167 69.4846C96.2486 70.2701 96.3682 71.3971 95.9071 72.2851C95.8046 72.49 95.5484 72.5754 95.3606 72.4559C95.1556 72.3534 95.0703 72.1144 95.1898 71.9094C95.4972 71.3118 95.4118 70.5092 94.9849 69.9798C94.5579 69.4504 93.8065 69.1943 93.1576 69.365C92.9355 69.4163 92.7135 69.2967 92.6623 69.0747C92.6111 68.8527 92.7306 68.6308 92.9526 68.5795C93.1575 68.5283 93.3625 68.4941 93.5845 68.4941L93.5674 68.5112Z" fill="#B74400"/>
<path d="M53.3152 78.5352C53.4689 78.5352 53.6055 78.6205 53.6738 78.7571C56.1843 83.4532 57.5676 88.7469 57.67 94.0748C57.67 94.2968 57.4993 94.4846 57.2602 94.4846C57.0382 94.5188 56.8503 94.3138 56.8503 94.0918C56.7478 88.9006 55.3987 83.7264 52.9395 79.1328C52.837 78.9279 52.9053 78.6888 53.1103 78.5864C53.1786 78.5522 53.2469 78.5352 53.2981 78.5352H53.3152Z" fill="#B74400"/>
<path d="M31.08 103.825C31.1996 103.825 31.3191 103.877 31.4045 103.996C35.9642 110.041 41.2242 112.125 48.004 110.605C48.226 110.554 48.4481 110.69 48.4993 110.912C48.5505 111.134 48.4139 111.356 48.1919 111.407C41.1729 113.013 35.469 110.741 30.7726 104.509C30.636 104.321 30.6701 104.065 30.858 103.928C30.9263 103.877 31.0117 103.843 31.0971 103.843L31.08 103.825Z" fill="#B74400"/>
<path d="M31.746 71.4482C31.8485 71.4482 31.951 71.4824 32.0364 71.5678C32.2071 71.7215 32.2071 71.9776 32.0364 72.1484C29.9529 74.3342 28.2622 76.964 27.1521 79.7645C27.0667 79.9694 26.8276 80.0719 26.6227 79.9865C26.4178 79.9011 26.3153 79.662 26.4007 79.4571C27.5449 76.5541 29.3039 73.8389 31.4557 71.5849C31.5411 71.4995 31.6436 71.4653 31.746 71.4653V71.4482Z" fill="#B74400"/>
<path d="M41.0192 64.9421C41.0192 64.9421 41.1046 64.9421 41.1559 64.9592C41.3779 65.0275 41.4803 65.2666 41.412 65.4715C40.4898 68.2379 38.5088 70.6457 35.9984 72.1143C35.8105 72.2338 35.5544 72.1655 35.4348 71.9606C35.3153 71.7727 35.3836 71.5166 35.5885 71.3971C37.9282 70.0309 39.7726 67.7768 40.6435 65.2154C40.6948 65.0446 40.8655 64.9421 41.0363 64.9421H41.0192Z" fill="#B74400"/>
<path d="M50.1217 107.446C52.5467 107.446 54.9547 107.924 57.1919 108.863C57.3968 108.948 57.4993 109.187 57.4139 109.392C57.3285 109.597 57.0894 109.7 56.8845 109.614C54.3228 108.538 51.505 108.094 48.7555 108.316C48.5334 108.334 48.3285 108.163 48.3114 107.941C48.2944 107.719 48.4651 107.514 48.6871 107.497C49.1653 107.463 49.6606 107.446 50.1388 107.446H50.1217Z" fill="#B74400"/>
<path d="M136.091 88.1833C136.313 88.1833 136.484 88.3541 136.501 88.5761C136.74 92.5037 138.328 96.4142 140.873 99.3343C142.136 101.554 142.393 104.491 141.624 107.258C140.89 109.922 139.336 112.312 138.072 114.088C137.935 114.276 137.679 114.31 137.508 114.191C137.321 114.054 137.286 113.798 137.406 113.627C138.636 111.903 140.138 109.597 140.839 107.053C141.539 104.474 141.317 101.776 140.207 99.8124C137.594 96.8411 135.937 92.7428 135.681 88.6444C135.681 88.4224 135.835 88.2346 136.074 88.2175C136.074 88.2175 136.074 88.2175 136.091 88.2175V88.1833Z" fill="#B74400"/>
<path d="M131.258 121.141C131.378 121.141 131.48 121.192 131.565 121.277C131.719 121.448 131.685 121.704 131.514 121.858C129.123 123.907 125.827 126.264 121.489 126.349C120.789 126.366 120.106 126.213 119.269 125.871C116.315 124.71 113.07 124.163 109.911 124.3C109.672 124.334 109.501 124.129 109.484 123.907C109.484 123.685 109.655 123.497 109.877 123.48C113.156 123.327 116.503 123.89 119.56 125.103C120.311 125.393 120.926 125.53 121.472 125.512C124.666 125.444 127.603 124.129 130.985 121.209C131.053 121.141 131.155 121.107 131.258 121.107V121.141Z" fill="#B74400"/>
<path d="M109.467 114.635C109.467 114.635 109.501 114.635 109.518 114.635C112.797 115.079 116.025 116.206 118.842 117.896C119.03 118.016 119.099 118.272 118.979 118.46C118.86 118.648 118.603 118.716 118.416 118.596C115.683 116.957 112.558 115.864 109.398 115.437C109.176 115.403 109.023 115.198 109.04 114.976C109.074 114.771 109.245 114.618 109.45 114.618L109.467 114.635Z" fill="#B74400"/>
<path d="M116.264 112.552C116.264 112.552 116.332 112.552 116.366 112.552C117.818 112.91 119.201 113.508 120.448 114.345C120.636 114.464 120.687 114.72 120.567 114.908C120.448 115.096 120.192 115.147 120.004 115.028C118.825 114.242 117.545 113.679 116.178 113.337C115.956 113.286 115.82 113.064 115.871 112.842C115.922 112.654 116.093 112.534 116.264 112.534V112.552Z" fill="#B74400"/>
<path d="M132.061 97.8486C132.197 97.8486 132.334 97.9169 132.402 98.0535C132.522 98.2414 132.453 98.4975 132.266 98.6171C128.696 100.803 125.469 103.501 122.719 106.643C122.565 106.814 122.309 106.831 122.138 106.677C121.968 106.523 121.951 106.267 122.104 106.097C124.922 102.886 128.201 100.137 131.856 97.8999C131.924 97.8657 131.992 97.8486 132.061 97.8486Z" fill="#B74400"/>
<path d="M124 52.2373C124.154 52.2373 124.307 52.3398 124.376 52.4935C126.801 58.2482 125.127 65.3691 120.397 69.4333C120.226 69.587 119.97 69.5529 119.816 69.3821C119.662 69.2113 119.696 68.9552 119.867 68.8015C124.341 64.9593 125.93 58.2312 123.624 52.8008C123.539 52.5959 123.624 52.3568 123.846 52.2715C123.897 52.2544 123.949 52.2373 124 52.2373Z" fill="#B74400"/>
<path d="M107.076 37.9272C109.791 37.9272 112.951 39.0543 116.52 41.2742C116.708 41.3938 116.776 41.6499 116.657 41.8378C116.537 42.0256 116.281 42.0768 116.093 41.9744C111.055 38.8323 106.939 37.9785 103.848 39.4471C103.302 39.7032 102.755 40.0277 102.243 40.335C101.782 40.6083 101.338 40.8815 100.86 41.1206C98.4858 42.333 95.7363 42.7599 93.1063 42.333C92.8843 42.2988 92.7306 42.0939 92.7648 41.8548C92.7989 41.6328 93.0209 41.4792 93.2429 41.5133C95.7021 41.9231 98.2809 41.5133 100.501 40.3863C100.962 40.1643 101.389 39.891 101.833 39.6349C102.362 39.3104 102.926 38.986 103.507 38.7128C104.6 38.1834 105.795 37.9272 107.11 37.9272H107.076Z" fill="#B74400"/>
<path d="M118.313 70.1846C118.45 70.1846 118.586 70.2529 118.672 70.3895C118.791 70.5944 118.723 70.8335 118.518 70.953C116.059 72.3704 113.787 74.078 111.738 76.0247C111.567 76.1784 111.311 76.1784 111.157 76.0247C111.004 75.854 111.004 75.5978 111.157 75.4441C113.258 73.4462 115.581 71.7044 118.091 70.2529C118.159 70.2187 118.228 70.2017 118.296 70.2017L118.313 70.1846Z" fill="#B74400"/>
<path d="M110.526 66.1374C110.662 66.1374 110.799 66.2057 110.867 66.3253C110.987 66.5131 110.935 66.7693 110.731 66.8888C108.066 68.5452 105.71 70.7993 103.934 73.3779C103.797 73.5657 103.541 73.6169 103.37 73.4803C103.182 73.3608 103.131 73.1047 103.268 72.9168C105.112 70.2358 107.537 67.8963 110.304 66.1887C110.372 66.1374 110.44 66.1204 110.526 66.1204V66.1374Z" fill="#B74400"/>
<path d="M108.083 64.5493C108.22 64.5493 108.357 64.6176 108.442 64.7542C108.562 64.9421 108.493 65.1982 108.288 65.3178C107.315 65.8813 106.461 66.6327 105.761 67.5206C105.624 67.6914 105.351 67.7256 105.18 67.5889C105.009 67.4523 104.975 67.1962 105.112 67.0083C105.88 66.0521 106.82 65.2495 107.879 64.6176C107.947 64.5835 108.015 64.5664 108.083 64.5664V64.5493Z" fill="#B74400"/>
<path d="M42.6075 138.337C38.3893 138.508 33.9149 139.823 28.9624 141.974L15.7613 129.201C17.8277 123.463 18.118 119.912 18.3742 113.832L42.6075 138.337Z" fill="white"/>
<path d="M18.3742 113.405C18.5962 113.405 18.784 113.61 18.767 113.832C18.5108 119.997 18.1692 123.549 16.2053 129.064L29.0307 141.462C34.3248 139.191 38.6454 138.064 42.5733 137.893C42.8124 137.893 42.9832 138.064 43.0003 138.286C43.0003 138.508 42.8295 138.696 42.6075 138.713C38.7138 138.866 34.4272 140.01 29.1161 142.316L28.8599 142.418L15.266 129.269L15.3514 129.013C17.3666 123.429 17.6911 120.082 17.9472 113.764C17.9472 113.542 18.1351 113.371 18.3571 113.371L18.3742 113.405Z" fill="#B74400"/>
<path d="M21.1237 137.073C17.3666 133.59 14.9586 130.055 15.7613 129.201C16.5639 128.347 20.2527 130.482 24.0098 133.965C27.7669 137.466 30.1749 140.984 29.3722 141.838C28.5696 142.691 24.8808 140.557 21.1237 137.073Z" fill="#FBD5C0"/>
<path d="M16.3078 128.586C16.9396 128.586 17.8277 128.928 18.989 129.594C20.5772 130.516 22.4558 131.95 24.3001 133.658C26.7593 135.946 31.0459 140.642 29.6796 142.111C28.3134 143.58 23.3096 139.652 20.8504 137.364C19.0061 135.656 17.4349 133.88 16.4102 132.36C15.2319 130.636 14.9245 129.491 15.471 128.911C15.6759 128.689 15.9491 128.586 16.3078 128.586ZM28.8087 141.633C28.9282 141.633 29.0136 141.599 29.0648 141.547C29.4576 141.121 27.9377 138.166 23.7195 134.256C21.9263 132.582 20.099 131.182 18.562 130.294C16.8201 129.287 16.1541 129.355 16.0516 129.457C15.9491 129.56 15.9321 130.243 17.0592 131.899C18.0497 133.368 19.5867 135.093 21.3799 136.749C25.0857 140.198 27.9035 141.616 28.7916 141.616L28.8087 141.633Z" fill="#B74400"/>
<path d="M21.2091 115.881C21.4311 115.881 21.6189 116.069 21.6189 116.291C21.6531 119.484 21.0383 122.729 19.8258 125.666C19.7404 125.871 19.5013 125.974 19.2964 125.888C19.0914 125.803 18.989 125.564 19.0744 125.359C20.2527 122.507 20.8504 119.382 20.8163 116.308C20.8163 116.086 20.9871 115.898 21.2262 115.898L21.2091 115.881Z" fill="#B74400"/>
<path d="M23.5316 119.16C23.5316 119.16 23.5658 119.16 23.6 119.16C23.822 119.194 23.9757 119.399 23.9415 119.621C23.7024 121.209 23.3096 122.78 22.7631 124.3C22.6948 124.505 22.4558 124.625 22.2337 124.539C22.0288 124.454 21.9093 124.232 21.9947 124.01C22.5241 122.541 22.8998 121.021 23.1389 119.485C23.173 119.28 23.3438 119.126 23.5487 119.126L23.5316 119.16Z" fill="#B74400"/>
<path d="M19.9966 132.736C20.0819 132.736 20.1844 132.77 20.2527 132.838C22.1996 134.443 24.044 136.185 25.7347 138.047C25.8884 138.217 25.8713 138.474 25.7005 138.627C25.5297 138.781 25.2736 138.764 25.1199 138.61C23.4463 136.783 21.6189 135.058 19.7062 133.487C19.5355 133.351 19.5013 133.077 19.655 132.907C19.7404 132.804 19.8599 132.753 19.9624 132.753L19.9966 132.736Z" fill="#B74400"/>
<path d="M82.928 11.8343C76.0115 7.44568 70.9565 1.04199 70.9565 1.04199L47.4746 7.7189C47.4746 7.7189 47.0135 16.6328 45.3399 21.363L82.928 11.8343Z" fill="white"/>
<path d="M71.1102 0.563721L71.281 0.785715C71.281 0.785715 76.3872 7.1894 83.15 11.4927C83.3379 11.6122 83.3891 11.8684 83.2695 12.0562C83.15 12.244 82.8938 12.2953 82.706 12.1757C76.5238 8.24815 71.7592 2.66413 70.8028 1.50293L47.8674 8.02615C47.7649 9.63134 47.2355 17.1792 45.7156 21.4995C45.6473 21.7044 45.4082 21.824 45.2033 21.7557C44.9813 21.6874 44.8788 21.4483 44.9471 21.2434C46.5866 16.6156 47.0648 7.80416 47.0648 7.71878V7.42847L71.1102 0.563721Z" fill="#B74400"/>
<path d="M58.6093 2.25427C65.0988 0.410009 70.615 -0.13644 70.9565 1.04184C71.2981 2.22012 66.2943 4.66206 59.8218 6.50632C53.3323 8.35058 47.8162 8.89703 47.4746 7.73583C47.1331 6.55755 52.1368 4.11561 58.6093 2.27135V2.25427Z" fill="#FBD5C0"/>
<path d="M68.8218 0.000244141C70.8199 0.000244141 71.2297 0.495463 71.3493 0.922375C71.503 1.43467 71.3151 2.30557 68.1216 3.87661C66.004 4.91828 63.0837 5.9941 59.9243 6.88207C56.7649 7.78713 53.7251 8.40188 51.3683 8.64095C47.8333 8.98248 47.2185 8.35065 47.0648 7.82128C46.9111 7.30899 47.0989 6.43809 50.2924 4.86705C52.4101 3.82538 55.3304 2.74956 58.4898 1.86158C61.6491 0.956528 64.689 0.341774 67.0457 0.102703C67.7459 0.0343971 68.3265 0.000244141 68.8218 0.000244141ZM49.4898 7.92374C51.4025 7.92374 54.9376 7.46268 59.7023 6.09656C66.9603 4.0303 70.6833 1.74205 70.5637 1.14437C70.3417 0.580845 65.9698 0.580845 58.7288 2.6471C51.4879 4.71336 47.7479 7.00161 47.8674 7.59929C47.9357 7.78713 48.4993 7.92374 49.5069 7.92374H49.4898Z" fill="#B74400"/>
<path d="M58.6093 2.25427C65.0988 0.410009 70.615 -0.13644 70.9565 1.04184C71.2981 2.22012 66.2943 4.66206 59.8218 6.50632C53.3323 8.35058 47.8162 8.89703 47.4746 7.73583C47.1331 6.55755 52.1368 4.11561 58.6093 2.27135V2.25427Z" fill="#FBD5C0"/>
<path d="M68.8218 0.000244141C70.8199 0.000244141 71.2297 0.495463 71.3493 0.922375C71.503 1.43467 71.3151 2.30557 68.1216 3.87661C66.004 4.91828 63.0837 5.9941 59.9243 6.88207C56.7649 7.78713 53.7251 8.40188 51.3683 8.64095C47.8333 8.98248 47.2185 8.35065 47.0648 7.82128C46.9111 7.30899 47.0989 6.43809 50.2924 4.86705C52.4101 3.82538 55.3304 2.74956 58.4898 1.86158C61.6491 0.956528 64.689 0.341774 67.0457 0.102703C67.7459 0.0343971 68.3265 0.000244141 68.8218 0.000244141ZM49.4898 7.92374C51.4025 7.92374 54.9376 7.46268 59.7023 6.09656C66.9603 4.0303 70.6833 1.74205 70.5637 1.14437C70.3417 0.580845 65.9698 0.580845 58.7288 2.6471C51.4879 4.71336 47.7479 7.00161 47.8674 7.59929C47.9357 7.78713 48.4993 7.92374 49.5069 7.92374H49.4898Z" fill="#B74400"/>
<path d="M65.5258 1.89574C65.6966 1.89574 65.8503 1.9982 65.9186 2.16896C65.9869 2.39096 65.8844 2.61295 65.6624 2.68126C61.2393 4.18399 56.6624 5.44765 52.0685 6.45516C51.8465 6.50639 51.6245 6.36978 51.5733 6.14779C51.522 5.92579 51.6587 5.7038 51.8807 5.65257C56.4404 4.64506 60.9831 3.38139 65.3721 1.89574C65.4233 1.89574 65.4575 1.87866 65.5087 1.87866L65.5258 1.89574Z" fill="#B74400"/>
<path d="M124.598 29.9183C123.983 26.9983 123.966 23.9586 124.563 21.0215L110.013 12.2612C106.683 14.9081 104.617 15.7961 100.467 16.7524L124.598 29.9183Z" fill="white"/>
<path d="M109.979 11.783L125.025 20.8335L124.973 21.1238C124.393 23.9756 124.41 26.9981 125.008 29.8499C125.059 30.0719 124.905 30.2939 124.683 30.328C124.478 30.3793 124.239 30.2427 124.205 30.0207C123.59 27.1518 123.573 24.1293 124.102 21.2433L110.047 12.7734C106.922 15.2324 104.822 16.1887 100.552 17.1621C100.33 17.2133 100.108 17.0767 100.057 16.8547C100.006 16.6327 100.142 16.4107 100.364 16.3595C104.343 15.4544 106.359 14.6518 109.74 11.9537L109.962 11.783H109.979Z" fill="#B74400"/>
<path d="M118.347 15.147C122.309 17.6573 125.008 20.5091 124.341 21.5507C123.693 22.5753 119.953 21.38 115.99 18.8868C112.028 16.3766 109.347 13.5248 109.996 12.4831C110.645 11.4585 114.385 12.6539 118.347 15.147Z" fill="#FBD5C0"/>
<path d="M110.987 11.7148C112.763 11.7148 115.803 13.0639 118.569 14.8057C120.516 16.0352 122.224 17.3842 123.385 18.6137C124.7 20.014 125.144 21.0728 124.7 21.7558C124.273 22.456 123.129 22.5072 121.302 21.9266C119.696 21.4143 117.732 20.458 115.786 19.2285C112.046 16.8719 108.732 13.7128 109.655 12.2613C109.894 11.8856 110.355 11.7148 110.987 11.7148ZM118.125 15.5058C113.634 12.6711 110.662 12.1759 110.338 12.7053C109.996 13.2347 111.721 15.7107 116.212 18.5284C118.108 19.7237 119.987 20.6459 121.541 21.1411C123.231 21.6875 123.897 21.4997 124 21.3289C124.119 21.1581 124 20.4751 122.77 19.1773C121.66 17.999 120.004 16.6841 118.125 15.4888V15.5058Z" fill="#B74400"/>
<path d="M118.347 15.147C122.309 17.6573 125.008 20.5091 124.341 21.5507C123.693 22.5753 119.953 21.38 115.99 18.8868C112.028 16.3766 109.347 13.5248 109.996 12.4831C110.645 11.4585 114.385 12.6539 118.347 15.147Z" fill="#FBD5C0"/>
<path d="M110.987 11.7148C112.763 11.7148 115.803 13.0639 118.569 14.8057C120.516 16.0352 122.224 17.3842 123.385 18.6137C124.7 20.014 125.144 21.0728 124.7 21.7558C124.273 22.456 123.129 22.5072 121.302 21.9266C119.696 21.4143 117.732 20.458 115.786 19.2285C112.046 16.8719 108.732 13.7128 109.655 12.2613C109.894 11.8856 110.355 11.7148 110.987 11.7148ZM118.125 15.5058C113.634 12.6711 110.662 12.1759 110.338 12.7053C109.996 13.2347 111.721 15.7107 116.212 18.5284C118.108 19.7237 119.987 20.6459 121.541 21.1411C123.231 21.6875 123.897 21.4997 124 21.3289C124.119 21.1581 124 20.4751 122.77 19.1773C121.66 17.999 120.004 16.6841 118.125 15.4888V15.5058Z" fill="#B74400"/>
<path d="M113.77 14.2251C113.856 14.2251 113.941 14.2592 114.027 14.3105C116.127 15.9669 118.433 17.3842 120.858 18.5284C121.063 18.6308 121.148 18.8699 121.045 19.0748C120.943 19.2797 120.704 19.3651 120.499 19.2627C118.023 18.0844 115.666 16.6329 113.514 14.9423C113.343 14.8057 113.309 14.5495 113.446 14.3617C113.531 14.2592 113.651 14.208 113.77 14.208V14.2251Z" fill="#B74400"/>
<path d="M62.9641 131.489C62.9641 131.489 63.0837 131.489 63.1349 131.523C65.4575 132.565 67.4043 134.392 68.5827 136.663C68.6852 136.868 68.6169 137.107 68.4119 137.21C68.207 137.312 67.9679 137.244 67.8654 137.039C66.7725 134.939 64.9622 133.248 62.8104 132.275C62.6055 132.189 62.5201 131.933 62.6055 131.728C62.6738 131.575 62.8275 131.489 62.9812 131.489H62.9641Z" fill="#B74400"/>
<path d="M47.9699 124.915C48.1748 124.915 48.3456 125.068 48.3797 125.273C48.6701 127.715 48.653 131.216 48.5676 133.709C48.5164 135.28 49.097 136.766 50.1387 137.773C53.9129 141.462 61.9395 144.45 66.2601 142.64C67.5751 142.094 68.8559 141.359 70.0855 140.659C71.6738 139.754 73.3132 138.815 75.1064 138.217C75.3113 138.149 75.5504 138.269 75.6187 138.474C75.687 138.696 75.5675 138.918 75.3626 138.986C73.6548 139.566 72.0495 140.471 70.4783 141.359C69.2316 142.077 67.9337 142.811 66.5675 143.392C61.8882 145.338 53.5884 142.282 49.5581 138.354C48.3627 137.176 47.6966 135.468 47.7479 133.675C47.7991 131.66 47.8503 127.886 47.56 125.359C47.5259 125.137 47.6966 124.932 47.9186 124.898C47.9186 124.898 47.9528 124.898 47.9699 124.898V124.915Z" fill="#B74400"/>
<path d="M54.9717 21.5337C55.9281 21.5337 56.9186 21.6703 57.892 22.0118C58.5922 22.2509 59.2583 22.5924 59.8901 22.934L60.4025 23.1901C63.2374 24.6074 66.2601 25.5467 69.3853 25.9736C69.6074 26.0077 69.7611 26.2126 69.7269 26.4346C69.6927 26.6566 69.4878 26.8103 69.2658 26.7762C66.0381 26.3322 62.93 25.3759 60.0268 23.9073L59.5144 23.6341C58.8655 23.2926 58.2677 22.9852 57.6188 22.7632C53.7763 21.4141 49.6947 23.4804 47.6112 24.8465C47.4234 24.9661 47.1672 24.9148 47.0477 24.727C46.9281 24.5391 46.9794 24.283 47.1672 24.1635C48.875 23.0535 51.8124 21.5166 54.9888 21.5166L54.9717 21.5337Z" fill="#B74400"/>
<path d="M33.1293 35.5364C33.1293 35.5364 33.2489 35.5364 33.3172 35.5876C33.5221 35.6901 33.6075 35.9291 33.505 36.1341L33.3001 36.561C31.4045 40.369 29.9187 43.3574 31.3532 47.507C31.746 48.6341 32.2584 49.7611 32.7536 50.854C33.7954 53.1252 34.8713 55.4817 34.9737 58.0944C34.9737 58.3164 34.8029 58.5043 34.5809 58.5214C34.3077 58.5214 34.1711 58.3506 34.154 58.1286C34.0686 55.6696 33.0269 53.3984 32.0193 51.1955C31.5069 50.0856 30.9946 48.9414 30.5847 47.7802C29.0307 43.3062 30.6701 40.0275 32.5658 36.2024L32.7707 35.7755C32.839 35.6388 32.9927 35.5535 33.1293 35.5535V35.5364Z" fill="#B74400"/>
<path d="M61.188 28.5864C61.188 28.5864 61.2734 28.5864 61.3076 28.6035C61.5296 28.6718 61.6491 28.8938 61.5808 29.1158C60.4025 33.0434 58.2336 36.6295 55.3133 39.4983C55.1425 39.652 54.8864 39.652 54.7327 39.4983C54.579 39.3275 54.579 39.0714 54.7327 38.9177C57.5676 36.1513 59.651 32.6848 60.7953 28.8938C60.8465 28.723 61.0173 28.6035 61.188 28.6035V28.5864Z" fill="#B74400"/>
<path d="M36.2204 50.0173C36.357 50.0173 36.4766 50.0856 36.562 50.2052C38.0819 52.4593 38.8845 55.1915 38.7991 57.9067C38.7991 58.1287 38.5771 58.2994 38.3722 58.2994C38.1502 58.2994 37.9623 58.1116 37.9794 57.8725C38.0477 55.3281 37.3134 52.7496 35.8788 50.6492C35.7593 50.4613 35.8105 50.2052 35.9813 50.0856C36.0496 50.0344 36.135 50.0173 36.2033 50.0173H36.2204Z" fill="#B74400"/>
<path d="M38.6113 50.4614C38.7138 50.4614 38.8333 50.4956 38.9016 50.5809C39.8067 51.5372 40.3361 52.835 40.3532 54.1499C40.3532 54.3719 40.1824 54.5598 39.9433 54.5598C39.7213 54.5598 39.5335 54.3719 39.5335 54.1499C39.5335 53.04 39.0724 51.9471 38.3039 51.1445C38.1502 50.9737 38.1502 50.7176 38.3039 50.5639C38.3893 50.4956 38.4917 50.4443 38.5942 50.4443L38.6113 50.4614Z" fill="#B74400"/>
<path d="M88.8198 42.3669C88.8198 42.3669 88.9906 42.4011 89.0589 42.4523C90.5447 43.5281 92.4574 44.0575 94.2847 43.8868C94.4896 43.8697 94.7116 44.0234 94.7287 44.2624C94.7458 44.4844 94.5921 44.6893 94.353 44.7064C92.3378 44.8943 90.2202 44.3307 88.5636 43.1183C88.3758 42.9817 88.3416 42.7256 88.4782 42.5377C88.5636 42.4353 88.6832 42.3669 88.8027 42.3669H88.8198Z" fill="#B74400"/>
<path d="M99.6129 26.9983C100.125 26.9983 100.621 27.1178 101.082 27.3569C102.192 27.9546 102.858 29.2353 102.687 30.4819C102.653 30.7039 102.448 30.8576 102.226 30.8405C102.004 30.8063 101.85 30.6014 101.867 30.3794C101.987 29.4744 101.474 28.501 100.672 28.0741C99.8691 27.6472 98.7761 27.7667 98.093 28.3473C97.9222 28.501 97.6661 28.4669 97.5124 28.2961C97.3587 28.1253 97.3928 27.8692 97.5636 27.7155C98.1272 27.2373 98.8615 26.9812 99.5959 26.9812L99.6129 26.9983Z" fill="#B74400"/>
<path d="M153.442 90.6423C154.876 93.4087 156.721 95.9702 158.89 98.2243L153.971 114.464C150.983 114.191 147.909 114.857 145.296 116.342L153.442 90.6423Z" fill="white"/>
<path d="M153.442 90.2324C153.596 90.2324 153.732 90.3178 153.801 90.4544C155.235 93.1866 157.028 95.714 159.18 97.9339L159.351 98.1047L154.262 114.891L153.92 114.857C151.017 114.584 148.011 115.232 145.484 116.684C145.296 116.803 145.04 116.735 144.92 116.53C144.801 116.325 144.869 116.086 145.074 115.967C147.653 114.481 150.692 113.798 153.647 114.003L158.394 98.3096C156.277 96.0726 154.467 93.5452 153.049 90.813C152.947 90.6081 153.015 90.369 153.22 90.2666C153.288 90.2324 153.339 90.2153 153.408 90.2153L153.442 90.2324Z" fill="#B74400"/>
<path d="M154.108 105.687C155.508 101.213 157.575 97.8827 158.736 98.2413C159.897 98.5999 159.709 102.527 158.309 107.002C156.909 111.476 154.842 114.805 153.681 114.447C152.52 114.088 152.708 110.161 154.108 105.687Z" fill="#FBD5C0"/>
<path d="M158.565 97.7974C158.668 97.7974 158.77 97.7974 158.873 97.8486C159.658 98.0877 160 99.1806 159.914 101.093C159.829 102.784 159.419 104.918 158.719 107.121C158.036 109.324 157.165 111.322 156.277 112.756C155.269 114.379 154.364 115.079 153.579 114.84C151.939 114.327 152.417 109.785 153.732 105.567C154.415 103.364 155.286 101.366 156.174 99.9319C157.062 98.5146 157.865 97.7974 158.565 97.7974ZM153.869 114.071C154.108 114.071 154.706 113.713 155.577 112.329C156.431 110.946 157.267 109.017 157.933 106.882C158.599 104.747 159.009 102.681 159.095 101.059C159.18 99.283 158.838 98.6853 158.634 98.6341C158.446 98.5829 157.814 98.8561 156.875 100.376C156.021 101.759 155.184 103.689 154.518 105.823C152.947 110.895 153.22 113.883 153.835 114.071C153.835 114.071 153.869 114.071 153.886 114.071H153.869Z" fill="#B74400"/>
<path d="M154.108 105.687C155.508 101.213 157.575 97.8827 158.736 98.2413C159.897 98.5999 159.709 102.527 158.309 107.002C156.909 111.476 154.842 114.805 153.681 114.447C152.52 114.088 152.708 110.161 154.108 105.687Z" fill="#FBD5C0"/>
<path d="M158.565 97.7974C158.668 97.7974 158.77 97.7974 158.873 97.8486C159.658 98.0877 160 99.1806 159.914 101.093C159.829 102.784 159.419 104.918 158.719 107.121C158.036 109.324 157.165 111.322 156.277 112.756C155.269 114.379 154.364 115.079 153.579 114.84C151.939 114.327 152.417 109.785 153.732 105.567C154.415 103.364 155.286 101.366 156.174 99.9319C157.062 98.5146 157.865 97.7974 158.565 97.7974ZM153.869 114.071C154.108 114.071 154.706 113.713 155.577 112.329C156.431 110.946 157.267 109.017 157.933 106.882C158.599 104.747 159.009 102.681 159.095 101.059C159.18 99.283 158.838 98.6853 158.634 98.6341C158.446 98.5829 157.814 98.8561 156.875 100.376C156.021 101.759 155.184 103.689 154.518 105.823C152.947 110.895 153.22 113.883 153.835 114.071C153.835 114.071 153.869 114.071 153.886 114.071H153.869Z" fill="#B74400"/>
<path d="M157.421 102.135C157.421 102.135 157.524 102.135 157.575 102.169C157.78 102.254 157.882 102.493 157.797 102.698C156.738 105.311 155.799 108.009 155.047 110.724C154.979 110.946 154.757 111.066 154.535 111.015C154.313 110.946 154.193 110.724 154.245 110.502C155.013 107.753 155.952 105.021 157.028 102.391C157.097 102.237 157.25 102.135 157.404 102.135H157.421Z" fill="#B74400"/>
<path d="M135.254 37.1245C139.558 39.0541 144.698 39.7543 149.377 39.9421L159.795 68.9551C156.396 71.602 153.766 75.2051 152.281 79.2352L135.254 37.1074V37.1245Z" fill="white"/>
<path d="M135.254 36.7148C135.254 36.7148 135.374 36.7148 135.425 36.749C139.062 38.3713 143.639 39.2934 149.412 39.5325H149.685L160.29 69.109L160.051 69.2968C156.738 71.8754 154.125 75.4614 152.673 79.4061C152.588 79.6281 152.349 79.7306 152.144 79.6452C151.939 79.5598 151.82 79.3378 151.905 79.1158C153.374 75.137 156.004 71.4826 159.317 68.8357L149.104 40.3521C143.349 40.0789 138.772 39.1568 135.1 37.5004C134.896 37.415 134.793 37.1588 134.896 36.9539C134.964 36.8002 135.118 36.7148 135.271 36.7148H135.254Z" fill="#B74400"/>
<path d="M152.298 55.3282C149.548 47.3193 148.25 40.5057 149.395 40.113C150.539 39.7202 153.715 45.8848 156.465 53.8937C159.214 61.9026 160.512 68.7161 159.368 69.1089C158.224 69.5016 155.047 63.337 152.298 55.3282Z" fill="#FBD5C0"/>
<path d="M149.531 39.6689C150.112 39.6689 151 40.3349 152.708 43.6477C154.057 46.2604 155.525 49.8636 156.857 53.74C158.19 57.6334 159.231 61.3732 159.795 64.2591C160.597 68.5111 160.068 69.2796 159.505 69.4674C157.062 70.3212 152.127 56.0453 151.922 55.4305C150.59 51.5371 149.548 47.7973 148.985 44.9114C148.165 40.6594 148.711 39.8909 149.275 39.686C149.36 39.6518 149.446 39.6348 149.531 39.6348V39.6689ZM159.265 68.7161C159.744 68.255 159.146 62.9271 156.089 54.0303C153.032 45.1163 150.231 40.5569 149.514 40.5057C149.036 40.9667 149.634 46.2946 152.691 55.1915C155.747 64.1054 158.565 68.6648 159.265 68.7161Z" fill="#B74400"/>
<path d="M152.298 55.3282C149.548 47.3193 148.25 40.5057 149.395 40.113C150.539 39.7202 153.715 45.8848 156.465 53.8937C159.214 61.9026 160.512 68.7161 159.368 69.1089C158.224 69.5016 155.047 63.337 152.298 55.3282Z" fill="#FBD5C0"/>
<path d="M149.531 39.6689C150.112 39.6689 151 40.3349 152.708 43.6477C154.057 46.2604 155.525 49.8636 156.857 53.74C158.19 57.6334 159.231 61.3732 159.795 64.2591C160.597 68.5111 160.068 69.2796 159.505 69.4674C157.062 70.3212 152.127 56.0453 151.922 55.4305C150.59 51.5371 149.548 47.7973 148.985 44.9114C148.165 40.6594 148.711 39.8909 149.275 39.686C149.36 39.6518 149.446 39.6348 149.531 39.6348V39.6689ZM159.265 68.7161C159.744 68.255 159.146 62.9271 156.089 54.0303C153.032 45.1163 150.231 40.5569 149.514 40.5057C149.036 40.9667 149.634 46.2946 152.691 55.1915C155.747 64.1054 158.565 68.6648 159.265 68.7161Z" fill="#B74400"/>
<path d="M151.546 45.2358C151.717 45.2358 151.888 45.3554 151.939 45.5261C153.783 51.2638 155.73 57.0357 157.728 62.688C157.797 62.91 157.694 63.132 157.472 63.2174C157.267 63.3028 157.028 63.1832 156.96 62.9612C154.945 57.3089 152.998 51.52 151.154 45.7652C151.085 45.5432 151.205 45.3212 151.427 45.2529C151.478 45.2529 151.512 45.2358 151.546 45.2358Z" fill="#B74400"/>
<path d="M134.896 40.0959C134.896 40.0959 134.964 40.0959 134.998 40.0959C138.772 41.1376 142.58 41.8207 145.825 42.35C146.047 42.3842 146.201 42.5891 146.167 42.8282C146.133 43.0502 145.928 43.2039 145.706 43.1697C142.444 42.6403 138.601 41.9573 134.793 40.8985C134.571 40.8302 134.452 40.6082 134.503 40.3862C134.554 40.1984 134.725 40.0959 134.896 40.0959Z" fill="#B74400"/>
<path d="M138.021 42.5549C138.021 42.5549 138.123 42.5549 138.174 42.5891C139.899 43.2892 141.778 43.6649 143.622 43.6649C143.844 43.6649 144.032 43.8527 144.032 44.0747C144.032 44.2967 143.844 44.4846 143.622 44.4846C141.658 44.4846 139.677 44.0918 137.85 43.3404C137.645 43.2551 137.543 43.016 137.628 42.8111C137.696 42.6574 137.85 42.5549 138.004 42.5549H138.021Z" fill="#B74400"/>
<path d="M154.808 69.8091C154.911 69.8091 155.013 69.8432 155.098 69.9286C155.252 70.0823 155.269 70.3385 155.098 70.5092C153.442 72.1998 152.024 74.1124 150.88 76.1786C150.778 76.3835 150.522 76.4518 150.317 76.3323C150.112 76.2298 150.043 75.9737 150.163 75.7688C151.341 73.6342 152.793 71.6704 154.501 69.9286C154.586 69.8432 154.689 69.8091 154.791 69.8091H154.808Z" fill="#B74400"/>
<path d="M108.937 15.2324C109.057 15.2324 109.159 15.2837 109.245 15.369C109.398 15.5398 109.381 15.7959 109.211 15.9496C107.827 17.1621 106.171 18.0842 104.429 18.6306C104.224 18.6819 103.985 18.5794 103.917 18.3574C103.848 18.1354 103.968 17.9134 104.19 17.8451C105.829 17.3328 107.383 16.479 108.681 15.3349C108.767 15.2666 108.852 15.2324 108.954 15.2324H108.937Z" fill="#B74400"/>
<path d="M70.1539 3.9619C70.2734 3.9619 70.3929 4.01313 70.4783 4.11559C72.9888 7.18936 75.9432 9.88745 79.2221 12.1245C79.41 12.244 79.4612 12.5002 79.3246 12.688C79.205 12.8758 78.9318 12.9271 78.761 12.7905C75.4138 10.5022 72.4081 7.75288 69.8465 4.61081C69.7098 4.44004 69.7269 4.1839 69.8977 4.03021C69.966 3.9619 70.0685 3.94482 70.1539 3.94482V3.9619Z" fill="#B74400"/>
<path d="M69.6074 6.62598C69.7098 6.62598 69.8123 6.66013 69.8977 6.74551L73.3132 10.0754C73.484 10.2291 73.484 10.4853 73.3132 10.656C73.1595 10.8097 72.9034 10.8268 72.7326 10.656L69.317 7.32611C69.1463 7.17242 69.1463 6.91628 69.317 6.74551C69.4024 6.66013 69.5049 6.62598 69.6074 6.62598Z" fill="#B74400"/>
<path d="M48.8408 12.8931C49.0458 12.8931 49.2336 13.0468 49.2507 13.2687C49.4386 15.3521 49.3019 17.4525 48.8238 19.5017C48.7725 19.7237 48.5505 19.8603 48.3285 19.8091C48.1065 19.7578 47.9699 19.5358 48.0211 19.3138C48.4651 17.35 48.6018 15.335 48.431 13.3371C48.4139 13.1151 48.5847 12.9101 48.8067 12.8931C48.8067 12.8931 48.8238 12.8931 48.8408 12.8931Z" fill="#B74400"/>
<path d="M43.4101 63.4053C43.4101 63.4053 43.4443 63.4053 43.4614 63.4053C43.6834 63.4223 43.8541 63.6273 43.82 63.8663C43.598 65.8131 42.9832 67.7427 42.0439 69.4674C41.9414 69.6723 41.6853 69.7407 41.4803 69.6382C41.2754 69.5357 41.2071 69.2796 41.3096 69.0917C42.1976 67.4524 42.7782 65.6252 43.0003 63.781C43.0173 63.576 43.2052 63.4223 43.4101 63.4223V63.4053Z" fill="#B74400"/>
<path d="M152.503 92.5208C152.656 92.5208 152.81 92.6061 152.878 92.7769C153.613 94.5187 154.603 96.141 155.799 97.5925C155.935 97.7632 155.918 98.0194 155.747 98.1731C155.577 98.3097 155.32 98.2926 155.167 98.1218C153.903 96.602 152.878 94.9285 152.11 93.1014C152.024 92.8964 152.11 92.6574 152.332 92.572C152.383 92.5549 152.434 92.5378 152.486 92.5378L152.503 92.5208Z" fill="#B74400"/>
<path d="M151.837 95.1675C151.956 95.1675 152.076 95.2187 152.161 95.3212L154.142 97.7802C154.279 97.9509 154.262 98.2071 154.074 98.3608C153.903 98.4974 153.647 98.4803 153.493 98.2925L151.512 95.8335C151.376 95.6627 151.393 95.4066 151.58 95.2529C151.649 95.1846 151.751 95.1675 151.837 95.1675Z" fill="#B74400"/>
<path d="M15.7613 111.151C13.951 109.905 10.8429 108.914 7.70059 108.539L3.67025 91.9914C7.03456 90.0105 9.10097 88.4907 11.3894 85.3145L15.7613 111.134V111.151Z" fill="white"/>
<path d="M11.3894 84.9045C11.3894 84.9045 11.5602 84.9216 11.6285 84.9899C11.8163 85.1265 11.8505 85.3827 11.7309 85.5534C9.49376 88.6784 7.39319 90.2666 4.14843 92.1962L8.04215 108.163C11.1845 108.573 14.2072 109.58 16.0004 110.81C16.1882 110.929 16.2395 111.185 16.1028 111.373C15.9833 111.561 15.7271 111.612 15.5393 111.476C13.8144 110.28 10.7917 109.307 7.66644 108.931L7.37612 108.897L3.20915 91.7864L3.46532 91.6327C6.82963 89.6518 8.82772 88.1662 11.0478 85.0753C11.1332 84.9558 11.2528 84.9045 11.3723 84.9045H11.3894Z" fill="#B74400"/>
<path d="M7.83721 99.6245C8.94727 104.184 8.87896 108.111 7.70059 108.402C6.52223 108.692 4.66076 105.226 3.5507 100.666C2.44065 96.1067 2.50896 92.1791 3.68733 91.8888C4.86569 91.5985 6.72716 95.065 7.83721 99.6245Z" fill="#FBD5C0"/>
<path d="M3.82395 91.479C5.42925 91.479 7.23949 95.4408 8.24708 99.5391C9.28882 103.842 9.47668 108.402 7.82014 108.812C7.03456 109.017 6.1636 108.248 5.25848 106.558C4.45582 105.072 3.72148 103.023 3.17499 100.786C2.62851 98.5487 2.33819 96.38 2.37234 94.6894C2.4065 92.7768 2.81636 91.701 3.61902 91.5132C3.68733 91.4961 3.77271 91.479 3.84103 91.479H3.82395ZM7.44443 99.727C6.18067 94.5699 4.40459 92.145 3.78979 92.2987C3.58486 92.3499 3.20915 92.9134 3.17499 94.6894C3.15792 96.3117 3.43116 98.395 3.96057 100.581C4.48998 102.749 5.20724 104.73 5.97574 106.165C6.81255 107.736 7.41027 108.043 7.6152 108.009C8.23 107.855 8.70818 104.884 7.44443 99.727Z" fill="#B74400"/>
<path d="M7.83721 99.6245C8.94727 104.184 8.87896 108.111 7.70059 108.402C6.52223 108.692 4.66076 105.226 3.5507 100.666C2.44065 96.1067 2.50896 92.1791 3.68733 91.8888C4.86569 91.5985 6.72716 95.065 7.83721 99.6245Z" fill="#FBD5C0"/>
<path d="M3.82395 91.479C5.42925 91.479 7.23949 95.4408 8.24708 99.5391C9.28882 103.842 9.47668 108.402 7.82014 108.812C7.03456 109.017 6.1636 108.248 5.25848 106.558C4.45582 105.072 3.72148 103.023 3.17499 100.786C2.62851 98.5487 2.33819 96.38 2.37234 94.6894C2.4065 92.7768 2.81636 91.701 3.61902 91.5132C3.68733 91.4961 3.77271 91.479 3.84103 91.479H3.82395ZM7.44443 99.727C6.18067 94.5699 4.40459 92.145 3.78979 92.2987C3.58486 92.3499 3.20915 92.9134 3.17499 94.6894C3.15792 96.3117 3.43116 98.395 3.96057 100.581C4.48998 102.749 5.20724 104.73 5.97574 106.165C6.81255 107.736 7.41027 108.043 7.6152 108.009C8.23 107.855 8.70818 104.884 7.44443 99.727Z" fill="#B74400"/>
<path d="M4.91692 96.4824C5.10478 96.4824 5.25848 96.602 5.30971 96.7898C5.95867 99.1805 6.471 101.64 6.84671 104.099C6.88086 104.321 6.72716 104.525 6.50515 104.56C6.28314 104.594 6.07821 104.44 6.04405 104.218C5.68542 101.793 5.17309 99.3683 4.52414 96.9947C4.4729 96.7727 4.59245 96.5507 4.81446 96.4995C4.84861 96.4995 4.88277 96.4995 4.91692 96.4995V96.4824Z" fill="#B74400"/>
<path d="M12.5165 87.2612C12.6019 87.2612 12.6873 87.2954 12.7727 87.3466C12.9435 87.4832 12.9947 87.7394 12.841 87.9272C11.4748 89.7032 9.83531 91.2401 7.95676 92.4696C7.7689 92.5891 7.51274 92.5379 7.39319 92.35C7.27365 92.1622 7.32488 91.906 7.51274 91.7865C9.3059 90.6082 10.8771 89.1396 12.192 87.432C12.2774 87.3295 12.397 87.2783 12.5165 87.2783V87.2612Z" fill="#B74400"/>
<path d="M12.8581 89.9079C12.9605 89.9079 13.063 89.9421 13.1313 90.0104C13.3021 90.1641 13.3021 90.4202 13.1484 90.591C12.2774 91.5302 11.304 92.367 10.2623 93.0842C10.0744 93.2208 9.81823 93.1696 9.69869 92.9817C9.57914 92.7939 9.6133 92.5377 9.80115 92.4182C10.8087 91.7351 11.7309 90.9325 12.5507 90.0275C12.6361 89.9421 12.7385 89.8909 12.8581 89.8909V89.9079Z" fill="#B74400"/>
<path d="M8.72526 96.2947C8.87896 96.2947 9.03266 96.3801 9.10097 96.5508C10.5013 99.8637 11.1332 103.501 10.9454 107.087C10.9454 107.309 10.7575 107.497 10.5184 107.48C10.2964 107.48 10.1256 107.275 10.1256 107.053C10.2964 103.586 9.68161 100.069 8.33247 96.8753C8.24708 96.6704 8.33247 96.4313 8.55448 96.3459C8.60571 96.3288 8.65695 96.3118 8.70818 96.3118L8.72526 96.2947Z" fill="#B74400"/>
<path d="M20.5943 128.501C20.5943 128.501 20.7138 128.501 20.7821 128.552C23.3609 129.884 25.6493 131.643 27.6132 133.795C27.7669 133.965 27.7498 134.222 27.5791 134.375C27.4083 134.529 27.1521 134.512 26.9984 134.341C25.1028 132.275 22.8827 130.567 20.3893 129.286C20.1844 129.184 20.1161 128.928 20.2186 128.74C20.2869 128.603 20.4406 128.518 20.5772 128.518L20.5943 128.501Z" fill="#B74400"/>
<path d="M104.736 154.491C105.471 154.491 106.205 154.491 106.956 154.543C107.178 154.543 107.349 154.748 107.349 154.97C107.349 155.192 107.161 155.362 106.939 155.362H106.922C103.814 155.226 100.689 155.379 97.6148 155.841C97.3758 155.858 97.1879 155.721 97.1537 155.499C97.1196 155.277 97.2733 155.072 97.4953 155.038C99.8862 154.679 102.311 154.509 104.736 154.509V154.491Z" fill="#B74400"/>
<path d="M92.6111 156.08C92.816 156.08 92.9868 156.233 93.0209 156.438C93.0551 156.66 92.8843 156.865 92.6623 156.899C89.2638 157.343 86.002 158.368 82.9621 159.956C82.7572 160.058 82.5181 159.99 82.4157 159.785C82.3132 159.58 82.3815 159.341 82.5864 159.239C85.7117 157.599 89.0589 156.541 92.5598 156.08C92.5598 156.08 92.594 156.08 92.6111 156.08Z" fill="#B74400"/>
<path d="M147.84 49.7271C148.028 49.7271 148.199 49.8466 148.233 50.0344C149.565 55.516 151.632 60.7926 154.364 65.7448C154.467 65.9497 154.398 66.1888 154.21 66.3083C154.006 66.4108 153.766 66.3425 153.647 66.1546C150.88 61.1512 148.797 55.7892 147.448 50.2393C147.396 50.0174 147.533 49.7954 147.755 49.7441C147.789 49.7441 147.823 49.7441 147.858 49.7441L147.84 49.7271Z" fill="#B74400"/>
<path d="M64.484 7.44556C64.6377 7.44556 64.7914 7.54802 64.8598 7.7017C64.9451 7.90662 64.8598 8.14569 64.6377 8.23108C60.7611 9.81919 56.6795 10.7242 52.5126 10.9462C52.2735 10.9462 52.1027 10.7755 52.0856 10.5535C52.0856 10.3315 52.2393 10.1436 52.4784 10.1266C56.56 9.92165 60.5562 9.01659 64.3474 7.47971C64.3987 7.46263 64.4499 7.44556 64.5011 7.44556H64.484Z" fill="#B74400"/>
<path d="M10.3135 69.3821C8.31539 64.6519 4.09719 60.2461 0.510868 56.6601L13.3021 30.6013C18.34 31.8138 23.5658 32.2748 28.7404 31.9674L10.2964 69.3821H10.3135Z" fill="white"/>
<path d="M13.0801 30.1233L13.4046 30.1916C18.4254 31.387 23.5829 31.848 28.7233 31.5406C28.9453 31.5406 29.1502 31.6943 29.1502 31.9334C29.1502 32.1554 28.9965 32.3603 28.7745 32.3603C23.6512 32.6677 18.5279 32.2237 13.5241 31.0625L1.00612 56.5748C4.67784 60.2462 8.70818 64.5324 10.6892 69.2114C10.7746 69.4163 10.6892 69.6554 10.4672 69.7408C10.2623 69.8262 10.0232 69.7408 9.93778 69.5188C7.97384 64.8911 3.89226 60.5878 0.220548 56.9334L0.0156155 56.7285L0.152237 56.4723L13.0972 30.1233H13.0801Z" fill="#B74400"/>
<path d="M11.0649 44.2285C11.0649 44.2285 11.1674 44.2285 11.2186 44.2627C11.4235 44.348 11.526 44.5871 11.4406 44.792C9.52791 49.6076 6.96625 54.1158 3.82395 58.2312C3.68733 58.4191 3.43116 58.4532 3.24331 58.2995C3.05545 58.1629 3.02129 57.9068 3.17499 57.7189C6.26606 53.6718 8.79357 49.2148 10.6721 44.4676C10.7404 44.2968 10.8941 44.2114 11.0478 44.2114L11.0649 44.2285Z" fill="#B74400"/>
<path d="M14.822 32.4797C14.822 32.4797 14.8562 32.4797 14.8732 32.4797C15.0952 32.4968 15.266 32.7017 15.2319 32.9408C14.9415 35.434 14.3097 37.8588 13.3362 40.1812C13.2509 40.3862 13.0118 40.4886 12.8068 40.4032C12.6019 40.3179 12.4994 40.0788 12.5848 39.8739C13.5241 37.6368 14.1389 35.2803 14.4121 32.8554C14.4292 32.6505 14.6171 32.4968 14.822 32.4968V32.4797Z" fill="#B74400"/>
<path d="M16.8201 33.3335C16.8201 33.3335 16.8713 33.3335 16.9055 33.3335C19.6721 33.9653 22.4899 34.2044 25.3077 34.0336C25.5127 34.0336 25.7176 34.1873 25.7347 34.4264C25.7347 34.6484 25.581 34.8533 25.3419 34.8533C22.4557 35.007 19.5355 34.7679 16.7006 34.119C16.4785 34.0678 16.3419 33.8458 16.3932 33.6238C16.4444 33.4359 16.5981 33.2993 16.7859 33.2993L16.8201 33.3335Z" fill="#B74400"/>
<path d="M18.2205 35.4341C18.2205 35.4341 18.2888 35.4341 18.3229 35.4341C19.9966 35.8781 21.7043 36.083 23.4804 36.083C23.7024 36.083 23.8903 36.2708 23.8903 36.4928C23.8903 36.749 23.6512 36.9026 23.395 36.9026C21.6189 36.9026 19.8429 36.6807 18.118 36.2196C17.896 36.1684 17.7594 35.9293 17.8277 35.7244C17.8789 35.5365 18.0326 35.417 18.2205 35.417V35.4341Z" fill="#B74400"/>
<path d="M5.00231 42.9477C8.3837 35.7243 11.9529 30.2769 12.9947 30.755C14.0364 31.2332 12.1408 37.4832 8.75941 44.7065C5.37802 51.9299 1.80878 57.3773 0.767035 56.8992C-0.274706 56.421 1.62092 50.171 5.00231 42.9477Z" fill="#FBD5C0"/>
<path d="M12.8922 30.3281C12.9947 30.3281 13.0801 30.3452 13.1655 30.3964C13.6778 30.6355 14.1047 31.421 12.9264 35.3315C12.1237 37.9784 10.7746 41.3766 9.13512 44.8944C8.87896 45.4408 2.85052 58.3336 0.596258 57.2748C-1.62385 56.2332 4.37044 43.3404 4.6266 42.7769C4.86569 42.2475 10.4843 30.3281 12.8922 30.3281ZM0.971968 56.5406C1.68923 56.5064 4.7803 52.2202 8.3837 44.5358C11.9871 36.8343 13.2679 31.7113 12.7898 31.1136C12.0725 31.1478 8.96435 35.434 5.37802 43.1184C1.77462 50.8199 0.493792 55.9429 0.971968 56.5406Z" fill="#B74400"/>
<path d="M5.00231 42.9477C8.3837 35.7243 11.9529 30.2769 12.9947 30.755C14.0364 31.2332 12.1408 37.4832 8.75941 44.7065C5.37802 51.9299 1.80878 57.3773 0.767035 56.8992C-0.274706 56.421 1.62092 50.171 5.00231 42.9477Z" fill="#FBD5C0"/>
<path d="M12.8922 30.3281C12.9947 30.3281 13.0801 30.3452 13.1655 30.3964C13.6778 30.6355 14.1047 31.421 12.9264 35.3315C12.1237 37.9784 10.7746 41.3766 9.13512 44.8944C8.87896 45.4408 2.85052 58.3336 0.596258 57.2748C-1.62385 56.2332 4.37044 43.3404 4.6266 42.7769C4.86569 42.2475 10.4843 30.3281 12.8922 30.3281ZM0.971968 56.5406C1.68923 56.5064 4.7803 52.2202 8.3837 44.5358C11.9871 36.8343 13.2679 31.7113 12.7898 31.1136C12.0725 31.1478 8.96435 35.434 5.37802 43.1184C1.77462 50.8199 0.493792 55.9429 0.971968 56.5406Z" fill="#B74400"/>
<path d="M8.98142 38.5762C8.98142 38.5762 9.10097 38.5762 9.1522 38.6103C9.35713 38.6957 9.44252 38.9519 9.35713 39.1568C7.75183 42.7087 6.02698 46.2777 4.21674 49.7442C4.11427 49.9491 3.85811 50.0174 3.67025 49.915C3.46532 49.8125 3.39701 49.5564 3.49947 49.3685C5.29263 45.9191 7.01749 42.3672 8.60571 38.8323C8.67403 38.6786 8.82772 38.5932 8.98142 38.5932V38.5762Z" fill="#B74400"/>
<path d="M76.8996 54.9524C77.0191 54.9524 77.1216 55.0036 77.207 55.089C77.9242 55.9087 78.2487 57.0528 78.0438 58.1286C77.8388 59.2044 77.1557 60.1436 76.1823 60.6559C75.9774 60.7584 75.7383 60.6901 75.6358 60.4852C75.5333 60.2803 75.6016 60.0412 75.8066 59.9387C76.5409 59.546 77.1045 58.7946 77.2411 57.9749C77.3948 57.1553 77.1386 56.2502 76.5922 55.6355C76.4385 55.4647 76.4555 55.2085 76.6263 55.0549C76.7117 54.9865 76.7971 54.9524 76.8996 54.9524Z" fill="#B74400"/>
<path d="M62.7763 60.1267C62.947 60.1267 63.1178 60.2462 63.1691 60.417C63.5789 61.8002 64.9622 62.8419 66.4138 62.8419C66.4138 62.8419 66.448 62.8419 66.4651 62.8419C66.6871 62.8419 66.8749 63.0126 66.8749 63.2517C66.8749 63.4737 66.7041 63.6615 66.4651 63.6615H66.4138C64.6207 63.6615 62.8958 62.3808 62.3835 60.6561C62.3152 60.4341 62.4518 60.2121 62.6567 60.1438C62.6909 60.1438 62.7421 60.1438 62.7763 60.1438V60.1267Z" fill="#B74400"/>
<path d="M111.243 88.5762C111.243 88.5762 111.294 88.5762 111.311 88.5762C111.533 88.6103 111.687 88.8323 111.636 89.0543C111.362 90.6083 112.148 92.3159 113.514 93.1185C113.702 93.2381 113.77 93.4771 113.668 93.682C113.548 93.887 113.309 93.9382 113.104 93.8357C111.448 92.8624 110.491 90.7961 110.833 88.9177C110.867 88.7128 111.038 88.5762 111.226 88.5762H111.243Z" fill="#B74400"/>
<path d="M87.8635 95.8164C87.8635 95.8164 88.0001 95.8335 88.0684 95.8676C88.2733 95.9701 88.3416 96.2262 88.2221 96.4312C87.8635 97.0801 87.2145 97.5582 86.446 97.7631C85.6775 97.968 84.8749 97.8656 84.243 97.4728C84.0551 97.3533 83.9868 97.0971 84.1064 96.9093C84.2259 96.7215 84.4821 96.6532 84.6699 96.7727C85.1139 97.0459 85.6775 97.1142 86.224 96.9776C86.7876 96.841 87.2487 96.4995 87.4877 96.0384C87.5561 95.9018 87.7098 95.8335 87.8464 95.8335L87.8635 95.8164Z" fill="#B74400"/>
<path d="M80.6396 126.264C80.8616 126.264 81.0494 126.452 81.0494 126.674C81.0494 127.015 81.0494 127.391 81.1861 127.698C81.4081 128.194 82.0229 128.433 82.5352 128.45C83.1671 128.484 83.7819 128.262 84.3967 128.04C84.6187 127.972 84.8407 128.074 84.909 128.296C84.9773 128.518 84.8749 128.74 84.6528 128.808C84.0039 129.03 83.2525 129.269 82.501 129.252C81.5788 129.218 80.7762 128.74 80.4346 128.04C80.2126 127.579 80.2126 127.084 80.2126 126.691C80.2126 126.469 80.3834 126.281 80.6225 126.281L80.6396 126.264Z" fill="#B74400"/>
<path d="M141.146 78.2449C141.146 78.2449 141.18 78.2449 141.197 78.2449C142.358 78.3644 143.366 79.2865 143.571 80.4477C143.776 81.5748 143.161 82.8214 142.119 83.3337C141.914 83.4361 141.675 83.3507 141.573 83.1458C141.47 82.9409 141.556 82.7018 141.761 82.5994C142.478 82.2408 142.905 81.3699 142.768 80.5843C142.615 79.7988 141.914 79.1328 141.112 79.0475C140.89 79.0304 140.719 78.8255 140.753 78.6035C140.77 78.3985 140.958 78.2278 141.163 78.2278L141.146 78.2449Z" fill="#B74400"/>
<path d="M98.9981 89.7203C98.9981 89.0885 99.5105 88.5933 100.125 88.5933C100.74 88.5933 101.252 89.1056 101.252 89.7203C101.252 90.3351 100.74 90.8474 100.125 90.8474C99.5105 90.8474 98.9981 90.3351 98.9981 89.7203Z" fill="#B74400"/>
<path d="M62.1786 70.4407C62.1786 69.7918 62.708 69.2625 63.3569 69.2625C64.0059 69.2625 64.5353 69.7918 64.5353 70.4407C64.5353 71.0896 64.0059 71.619 63.3569 71.619C62.708 71.619 62.1786 71.0896 62.1786 70.4407Z" fill="#B74400"/>
<path d="M67.4214 48.3096C67.4214 47.9852 67.6776 47.729 68.0021 47.729C68.3265 47.729 68.5827 47.9852 68.5827 48.3096C68.5827 48.6341 68.3265 48.8902 68.0021 48.8902C67.6776 48.8902 67.4214 48.6341 67.4214 48.3096Z" fill="#B74400"/>
<path d="M86.6851 34.3923C86.6851 33.8629 87.112 33.436 87.6414 33.436C88.1709 33.436 88.5978 33.8629 88.5978 34.3923C88.5978 34.9217 88.1709 35.3486 87.6414 35.3486C87.112 35.3486 86.6851 34.9217 86.6851 34.3923Z" fill="#B74400"/>
<path d="M88.3416 139.703C88.3416 138.918 88.9735 138.269 89.7762 138.269C90.5788 138.269 91.2107 138.901 91.2107 139.703C91.2107 140.506 90.5788 141.138 89.7762 141.138C88.9735 141.138 88.3416 140.506 88.3416 139.703Z" fill="#B74400"/>
<path d="M15.915 82.2235C15.915 81.4551 16.5298 80.8403 17.2983 80.8403C18.0668 80.8403 18.6816 81.4551 18.6816 82.2235C18.6816 82.992 18.0668 83.6067 17.2983 83.6067C16.5298 83.6067 15.915 82.992 15.915 82.2235Z" fill="#B74400"/>
<path d="M22.063 52.2373C22.063 51.503 22.6436 50.9224 23.378 50.9224C24.1123 50.9224 24.6929 51.503 24.6929 52.2373C24.6929 52.9715 24.1123 53.5521 23.378 53.5521C22.6436 53.5521 22.063 52.9715 22.063 52.2373Z" fill="#B74400"/>
<path d="M130.421 85.7926C130.421 85.1778 130.933 84.6655 131.548 84.6655C132.163 84.6655 132.675 85.1607 132.675 85.7926C132.675 86.4244 132.163 86.9196 131.548 86.9196C130.933 86.9196 130.421 86.4244 130.421 85.7926Z" fill="#B74400"/>
<path d="M139.797 61.8855C139.797 61.5098 140.104 61.2195 140.463 61.2195C140.821 61.2195 141.129 61.5269 141.129 61.8855C141.129 62.2441 140.839 62.5515 140.463 62.5515C140.087 62.5515 139.797 62.2441 139.797 61.8855Z" fill="#B74400"/>
<path d="M129.567 50.8199C129.567 50.5125 129.806 50.2734 130.114 50.2734C130.421 50.2734 130.66 50.5125 130.66 50.8199C130.66 51.1273 130.421 51.3663 130.114 51.3663C129.806 51.3663 129.567 51.1273 129.567 50.8199Z" fill="#B74400"/>
<path d="M127.057 61.1682C127.057 60.4681 127.637 59.8875 128.338 59.8875C129.038 59.8875 129.618 60.451 129.618 61.1682C129.618 61.8854 129.055 62.4489 128.338 62.4489C127.62 62.4489 127.057 61.8683 127.057 61.1682Z" fill="#B74400"/>
<path d="M56.2355 123.993C56.2355 123.207 56.8674 122.575 57.653 122.575C58.4385 122.575 59.0704 123.207 59.0704 123.993C59.0704 124.778 58.4385 125.41 57.653 125.41C56.8674 125.41 56.2355 124.778 56.2355 123.993Z" fill="#B74400"/>
<path d="M50.8389 122.217C50.8389 121.619 51.3342 121.124 51.9319 121.124C52.5296 121.124 53.0249 121.619 53.0249 122.217C53.0249 122.814 52.5296 123.31 51.9319 123.31C51.3342 123.31 50.8389 122.814 50.8389 122.217Z" fill="#B74400"/>
<path d="M55.9793 117.213C55.9793 116.684 56.4063 116.274 56.9186 116.274C57.4309 116.274 57.8579 116.701 57.8579 117.213C57.8579 117.726 57.4309 118.153 56.9186 118.153C56.4063 118.153 55.9793 117.726 55.9793 117.213Z" fill="#B74400"/>
<path d="M81.4251 32.9578C81.4251 32.4968 81.8009 32.1211 82.262 32.1211C82.7231 32.1211 83.1158 32.4968 83.1158 32.9578C83.1158 33.4189 82.7401 33.7946 82.262 33.7946C81.7838 33.7946 81.4251 33.4189 81.4251 32.9578Z" fill="#B74400"/>
<path d="M56.0477 49.7441C56.0477 49.0611 56.6112 48.4976 57.2943 48.4976C57.9774 48.4976 58.541 49.0611 58.541 49.7441C58.541 50.4272 57.9774 50.9907 57.2943 50.9907C56.6112 50.9907 56.0477 50.4272 56.0477 49.7441Z" fill="#B74400"/>
<path d="M63.6472 38.6785C63.6472 38.0467 64.1596 37.5344 64.7914 37.5344C65.4233 37.5344 65.9356 38.0467 65.9356 38.6785C65.9356 39.3104 65.4233 39.8227 64.7914 39.8227C64.1596 39.8227 63.6472 39.3104 63.6472 38.6785Z" fill="#B74400"/>
<path d="M163.535 165.045L161.264 153.518L153.664 150.069L161.264 146.619L163.535 135.11L165.806 146.619L173.406 150.069L165.806 153.518L163.535 165.045Z" fill="#FBD5C0"/>
<path d="M163.535 133.146L166.148 146.346L174.362 150.069L166.148 153.791L163.535 166.991L160.922 153.791L152.708 150.069L160.922 146.346L163.535 133.146ZM172.467 150.069L165.482 146.892L163.535 137.056L161.588 146.892L154.603 150.069L161.588 153.245L163.535 163.081L165.482 153.245L172.467 150.069Z" fill="#B74400"/>
<path d="M187.102 55.072L188.451 64.7373C188.571 65.6082 189.186 66.3254 190.005 66.5474L196.444 68.3746L190.005 70.2018C189.186 70.4409 188.571 71.141 188.451 72.0119L187.102 81.6772L185.753 72.0119C185.633 71.141 185.019 70.4238 184.199 70.2018L177.761 68.3746L184.199 66.5474C185.019 66.3084 185.633 65.6082 185.753 64.7373L187.102 55.072Z" fill="#FBD5C0"/>
<path d="M187.102 52.3398L188.827 64.6862C188.929 65.4034 189.425 65.984 190.108 66.1889L197.878 68.3918L190.108 70.5946C189.425 70.7825 188.929 71.3631 188.827 72.0974L187.102 84.4437L185.377 72.0974C185.275 71.3801 184.78 70.7995 184.096 70.5946L176.326 68.3918L184.096 66.1889C184.78 66.001 185.275 65.4034 185.377 64.6862L187.102 52.3398ZM195.009 68.3747L189.903 66.9232C188.947 66.65 188.212 65.8132 188.076 64.7886L187.102 57.8043L186.129 64.7886C185.992 65.8132 185.275 66.65 184.301 66.9232L179.195 68.3747L184.301 69.8262C185.275 70.0994 185.992 70.9362 186.129 71.9607L187.102 78.945L188.076 71.9607C188.212 70.9362 188.929 70.0994 189.903 69.8262L195.009 68.3747Z" fill="#B74400"/>
<path d="M205.051 96.4824L203.668 89.481L199.039 87.3977L203.668 85.2973L205.051 78.2959L206.417 85.2973L211.045 87.3977L206.417 89.481L205.051 96.4824Z" fill="#FBD5C0"/>
<path d="M205.051 76.3323L206.759 85.0071L211.984 87.3808L206.759 89.7544L205.051 98.4293L203.343 89.7544L198.117 87.3808L203.343 85.0071L205.051 76.3323ZM210.106 87.3978L206.093 85.5877L205.034 80.2769L203.992 85.5877L199.979 87.3978L203.992 89.208L205.034 94.5187L206.093 89.208L210.106 87.3978Z" fill="#B74400"/>
<path d="M156.516 173.959C156.516 173.378 156.96 172.917 157.524 172.917C158.087 172.917 158.531 173.378 158.531 173.959C158.531 174.539 158.087 175 157.524 175C156.96 175 156.516 174.539 156.516 173.959Z" fill="white"/>
<path d="M160.563 33.3849C160.563 32.8043 161.007 32.3433 161.571 32.3433C162.134 32.3433 162.579 32.8043 162.579 33.3849C162.579 33.9655 162.134 34.4266 161.571 34.4266C161.007 34.4266 160.563 33.9655 160.563 33.3849Z" fill="white"/>
<path d="M4.14843 126.469C4.14843 125.888 4.59245 125.427 5.15601 125.427C5.71958 125.427 6.1636 125.888 6.1636 126.469C6.1636 127.05 5.71958 127.511 5.15601 127.511C4.59245 127.511 4.14843 127.05 4.14843 126.469Z" fill="white"/>
<path d="M138.84 161.117C138.84 159.7 139.951 158.556 141.317 158.556C142.683 158.556 143.793 159.7 143.793 161.117C143.793 162.534 142.683 163.662 141.317 163.662C139.951 163.662 138.84 162.517 138.84 161.117Z" fill="white"/>
<path d="M185.497 114.993C185.497 113.474 186.692 112.244 188.161 112.244C189.63 112.244 190.825 113.474 190.825 114.993C190.825 116.513 189.63 117.743 188.161 117.743C186.692 117.743 185.497 116.513 185.497 114.993Z" fill="white"/>
<path d="M30.1236 158.436C30.1236 156.916 31.3191 155.687 32.7878 155.687C34.2565 155.687 35.4519 156.916 35.4519 158.436C35.4519 159.956 34.2565 161.185 32.7878 161.185C31.3191 161.185 30.1236 159.956 30.1236 158.436Z" fill="white"/>
<path d="M149.121 27.9031C149.121 26.3833 150.317 25.1538 151.785 25.1538C153.254 25.1538 154.45 26.3833 154.45 27.9031C154.45 29.4229 153.254 30.6524 151.785 30.6524C150.317 30.6524 149.121 29.4229 149.121 27.9031Z" fill="white"/>
</g>
<defs>
<clipPath id="clip0_4666_32603">
<rect width="212" height="175" fill="white" transform="translate(0 0.000244141)"/>
</clipPath>
</defs>
</svg>
