<svg width="222" height="159" viewBox="0 0 222 159" fill="none" xmlns="http://www.w3.org/2000/svg">
<g clip-path="url(#clip0_4666_32808)">
<path d="M188.026 100.18C182.113 135.315 148.824 158.996 113.688 153.068C78.5527 147.155 54.8707 113.868 60.7987 78.7333C66.7117 43.5988 100.001 19.9177 135.136 25.8454C170.272 31.7583 193.954 65.0459 188.026 100.18Z" fill="white"/>
<path d="M113.599 153.589C78.2399 147.632 54.3196 114.017 60.2773 78.6586C66.2351 43.3008 99.8516 19.3813 135.211 25.3388C170.57 31.2964 194.49 64.9117 188.532 100.27C182.575 135.627 148.958 159.547 113.599 153.589ZM135.032 26.3665C100.239 20.4984 67.1585 44.0454 61.2902 78.8374C55.4218 113.629 78.9697 146.708 113.763 152.577C148.556 158.445 181.636 134.898 187.505 100.106C193.373 65.3138 169.825 32.2347 135.032 26.3665Z" fill="#B74400"/>
<path d="M158.565 123.817C161.589 121.181 164.851 118.008 167.889 115.193C171.047 112.244 173.176 107.002 170.347 103.725C169.289 102.519 167.859 101.908 166.28 101.729C164.299 101.506 162.11 101.938 160.233 102.683C155.988 104.366 151.952 106.346 147.394 106.972C143.194 107.553 138.368 106.212 134.958 109.519C133.721 110.71 132.977 112.334 131.934 113.719C127.838 119.14 118.47 115.119 112.72 119.87C110.695 121.538 109.384 124.383 110.278 126.855C111.901 131.353 118.708 131.219 121.702 134.943C123.504 137.191 123.608 140.498 125.529 142.643C126.736 143.983 128.493 144.668 130.236 145.145C133.528 146.053 137.058 146.351 140.334 145.428C143.611 144.504 146.62 142.24 147.901 139.083C149.092 136.164 148.809 132.679 150.537 130.042C152.339 127.302 156.152 125.887 158.52 123.817H158.565Z" fill="#B74400"/>
<path d="M132.679 146.202C131.845 146.068 130.996 145.874 130.117 145.636C128.538 145.204 126.542 144.504 125.157 142.97C124.085 141.779 123.549 140.289 123.027 138.83C122.551 137.504 122.119 136.268 121.299 135.255C120.048 133.691 118.008 132.827 116.027 131.979C113.435 130.876 110.769 129.73 109.786 127.019C108.744 124.159 110.397 121.106 112.378 119.468C115.252 117.085 118.901 116.817 122.431 116.563C126.066 116.295 129.506 116.042 131.502 113.406C131.889 112.9 132.217 112.363 132.56 111.827C133.14 110.904 133.751 109.936 134.57 109.146C137.132 106.674 140.409 106.659 143.567 106.644C144.818 106.644 146.099 106.644 147.305 106.465C150.88 105.974 154.097 104.648 157.478 103.233C158.312 102.891 159.161 102.533 160.01 102.206C162.17 101.357 164.404 100.999 166.295 101.223C168.157 101.416 169.632 102.161 170.689 103.397C173.638 106.808 171.732 112.274 168.187 115.58C167.278 116.414 166.355 117.293 165.417 118.172C163.242 120.227 160.978 122.357 158.848 124.219C157.925 125.023 156.778 125.738 155.676 126.438C153.873 127.57 152.012 128.732 150.954 130.34C150.001 131.785 149.703 133.483 149.375 135.3C149.137 136.64 148.884 138.01 148.362 139.291C147.082 142.419 144.133 144.906 140.454 145.934C138.085 146.604 135.464 146.694 132.634 146.217L132.679 146.202ZM166.638 102.31C166.504 102.28 166.37 102.265 166.221 102.25C164.493 102.057 162.438 102.385 160.427 103.174C159.578 103.502 158.744 103.859 157.91 104.202C154.603 105.572 151.192 106.987 147.484 107.493C146.218 107.672 144.892 107.672 143.611 107.687C140.513 107.687 137.594 107.717 135.33 109.906C134.6 110.621 134.049 111.485 133.468 112.393C133.111 112.959 132.768 113.51 132.366 114.031C130.087 117.04 126.423 117.308 122.551 117.591C119.184 117.844 115.699 118.097 113.078 120.257C111.365 121.672 109.92 124.278 110.799 126.661C111.633 128.94 113.971 129.953 116.474 131.025C118.559 131.919 120.734 132.842 122.148 134.6C123.072 135.747 123.563 137.132 124.04 138.487C124.546 139.902 125.023 141.242 125.961 142.285C127.168 143.611 128.97 144.251 130.43 144.638C134.064 145.636 137.37 145.74 140.245 144.936C143.626 143.998 146.322 141.734 147.484 138.904C147.96 137.728 148.199 136.402 148.437 135.121C148.765 133.289 149.107 131.383 150.165 129.774C151.356 127.972 153.307 126.751 155.199 125.559C156.316 124.859 157.374 124.189 158.237 123.444C160.352 121.598 162.601 119.483 164.776 117.427C165.714 116.549 166.638 115.67 167.546 114.821C170.674 111.917 172.491 106.972 169.974 104.068C169.17 103.129 168.053 102.533 166.653 102.31H166.638Z" fill="#B74400"/>
<path d="M157.374 34.022C155.914 36.3901 153.888 38.1773 153.039 41.1561C152.339 43.7923 152.861 46.4583 154.469 48.6328C155.81 50.3754 158.088 51.5967 159.578 52.7137C160.278 53.235 160.903 53.8158 161.112 54.5307C161.142 54.6946 161.142 54.7244 161.186 55.0073L161.261 55.9754C161.44 58.1946 161.484 60.1904 162.214 62.4989C164.21 69.4543 173.4 69.9011 179.03 68.099C180.981 67.533 182.798 66.8479 184.571 66.1628C184.049 64.8223 183.483 63.4968 182.873 62.201C177.436 63.7351 169.14 65.9245 167.01 60.8457C166.399 59.1478 166.265 56.4967 166.057 54.5605C165.819 49.8243 160.591 48.4243 157.82 45.8774C155.05 42.3178 158.103 39.4731 159.98 35.6305C159.131 35.0645 158.267 34.5284 157.374 34.0071V34.022Z" fill="white"/>
<path d="M170.034 69.2608C168.619 69.0225 167.263 68.6054 166.072 67.965C163.838 66.7735 162.378 64.9862 161.708 62.633C161.067 60.6224 160.948 58.85 160.799 56.9734L160.635 54.8733C160.635 54.784 160.621 54.7244 160.591 54.635C160.457 54.1882 160.025 53.6967 159.25 53.1308C158.848 52.8329 158.386 52.5201 157.91 52.1925C156.584 51.2988 155.065 50.2712 154.052 48.9456C152.324 46.6073 151.788 43.7924 152.533 41.0221C153.144 38.9072 154.29 37.3731 155.422 35.8838C155.944 35.1986 156.48 34.4837 156.942 33.739L157.21 33.3071L157.642 33.5603C158.535 34.0816 159.399 34.6327 160.263 35.1986L160.635 35.4518L160.442 35.854C160.025 36.7178 159.548 37.5072 159.086 38.2817C157.522 40.9476 156.271 43.0477 158.223 45.5498C158.937 46.2052 159.935 46.8307 160.993 47.5009C163.525 49.0946 166.4 50.9116 166.578 54.5308C166.623 54.9031 166.653 55.3351 166.697 55.7819C166.846 57.4649 167.025 59.3862 167.487 60.667C169.334 65.0607 176.319 63.4969 182.739 61.6947L183.156 61.5756L183.334 61.9777C183.945 63.2883 184.526 64.6288 185.047 65.9692L185.241 66.4458L184.764 66.6246C183.185 67.2352 181.219 67.9948 179.179 68.5756C176.617 69.3948 173.206 69.7671 170.064 69.2459L170.034 69.2608ZM157.537 34.722C157.12 35.3476 156.674 35.9433 156.242 36.5093C155.125 37.9838 154.082 39.3838 153.531 41.2902C152.875 43.7477 153.352 46.2498 154.871 48.3201C155.795 49.5116 157.225 50.4797 158.491 51.3286C158.982 51.6563 159.459 51.984 159.876 52.2967C160.531 52.7733 161.321 53.4584 161.604 54.367C161.633 54.5308 161.648 54.5904 161.663 54.7244L161.693 54.918L161.842 56.8989C161.976 58.7159 162.095 60.4287 162.706 62.3351C163.301 64.4203 164.597 65.999 166.578 67.0565C170.212 68.9927 175.366 68.7395 178.881 67.6075C180.683 67.0863 182.441 66.4309 183.915 65.865C183.498 64.8373 183.066 63.8096 182.605 62.8117C177.287 64.3011 168.842 66.5203 166.548 61.0543C166.027 59.6245 165.848 57.6436 165.685 55.8861C165.64 55.4542 165.61 55.0223 165.565 54.635C165.402 51.5222 162.884 49.9435 160.457 48.3945C159.369 47.7094 158.342 47.0541 157.493 46.2796C155.065 43.1519 156.599 40.5604 158.223 37.7902C158.595 37.1646 158.982 36.5093 159.325 35.8391C158.744 35.4518 158.148 35.0944 157.552 34.722H157.537Z" fill="#B74400"/>
<path d="M62.7201 74.9204C64.701 74.5629 66.9798 73.4012 68.4842 72.2395C69.7055 71.4054 70.3757 70.8097 71.6567 70.7799C77.108 71.182 80.2209 78.0481 86.4616 79.6417C90.1703 80.5949 94.4897 79.6864 96.7238 76.2906C98.0196 74.4289 97.7515 71.8522 97.8707 70.2139C98.0494 69.2458 98.7643 69.1863 99.8665 68.7394C106.673 67.533 110.471 60.4585 107.09 54.3371C105.348 50.7775 101.46 49.1392 98.2728 47.8137C95.3237 46.2647 96.1429 42.0498 98.2728 40.1434C99.3601 39.1753 100.864 38.5497 102.413 38.2518C107.329 37.2986 113.703 38.8178 118.723 35.9135C123.012 33.5156 124.785 29.3453 125.991 24.9666C124.278 24.9219 122.58 24.9517 120.882 25.041C120.361 26.3368 119.795 27.5581 119.08 28.6453C115.044 34.5433 107.835 32.6369 101.49 35.2135C99.6729 35.9433 97.9005 36.9114 96.5451 38.5348C93.8939 41.5732 93.5066 47.1136 97.3792 49.2881C99.1069 50.3009 100.775 50.6435 102.011 51.686C105.958 54.4116 106.688 60.3393 102.86 63.05C100.552 64.5245 97.9898 63.8245 95.4578 65.5075C93.1492 66.7735 92.5683 70.0203 92.5683 72.1203C92.4342 73.7438 91.4959 74.0863 89.7235 74.2501C85.0318 73.997 82.2316 68.5309 78.0314 66.5649C75.276 64.9117 70.7481 64.0628 67.6054 65.999C65.833 66.982 64.8053 68.2628 63.3456 69.1565C63.2711 69.2011 63.1967 69.216 63.1222 69.2607C62.4966 71.1522 61.9753 73.1033 61.5136 75.0693C61.9158 75.0246 62.303 74.9948 62.7052 74.9055L62.7201 74.9204Z" fill="white"/>
<path d="M87.2808 80.3418C86.968 80.2822 86.6403 80.2227 86.3424 80.1482C83.1997 79.3439 80.8911 77.3035 78.642 75.3375C76.393 73.3566 74.278 71.5098 71.6268 71.3013C70.7183 71.3162 70.1672 71.7034 69.2586 72.3289L68.7671 72.6566C67.0543 73.9822 64.7009 75.0694 62.8094 75.4269C62.4817 75.4864 62.154 75.5311 61.8263 75.5609L60.8582 75.6801L61.0221 74.9652C61.4838 72.9396 62.0349 70.9736 62.6455 69.097L62.7051 68.9034L63.0328 68.7395C63.7179 68.3374 64.269 67.8757 64.8499 67.3842C65.5946 66.7587 66.3542 66.1182 67.367 65.5523C70.5991 63.5714 75.3206 64.331 78.2995 66.1331C80.0421 66.9523 81.5613 68.3821 83.0359 69.7672C85.1509 71.7481 87.1616 73.6098 89.7383 73.7588C91.4512 73.6098 91.9427 73.2673 92.0469 72.1055C92.0469 70.8991 92.2852 66.6842 95.2045 65.0906C96.5748 64.182 97.9451 63.9289 99.2856 63.7054C100.447 63.4969 101.55 63.3033 102.577 62.648C104.052 61.6054 104.871 59.9522 104.856 58.0309C104.856 55.7373 103.635 53.4883 101.698 52.1479C101.013 51.567 100.209 51.2244 99.2856 50.8372C98.5856 50.5393 97.8557 50.2266 97.0961 49.7797C95.4577 48.8563 94.4151 47.3372 94.0875 45.3861C93.6704 42.9435 94.4747 40.1435 96.1429 38.2371C97.3493 36.7924 98.9877 35.6902 101.296 34.7817C103.62 33.8285 106.033 33.4859 108.371 33.1434C112.393 32.5625 116.176 31.9965 118.648 28.3923C119.274 27.4539 119.825 26.3369 120.406 24.8922L120.525 24.5794H120.853C122.58 24.4752 124.308 24.4454 125.991 24.4901H126.646L126.468 25.1454C125.336 29.271 123.548 33.8434 118.946 36.4051C115.61 38.3264 111.797 38.3711 108.118 38.4158C106.107 38.4456 104.201 38.4605 102.488 38.7881C100.924 39.086 99.5537 39.7115 98.6004 40.5605C97.4089 41.6328 96.694 43.4499 96.8876 44.9988C96.977 45.7435 97.3344 46.7712 98.4962 47.3818C101.684 48.7074 105.69 50.3904 107.537 54.1436C109.146 57.0628 109.28 60.4437 107.865 63.3927C106.405 66.4608 103.441 68.6651 99.9409 69.2906C99.8367 69.3502 99.643 69.4098 99.4643 69.4842C98.66 69.7821 98.4515 69.8715 98.3621 70.3481C98.3472 70.6311 98.3323 71.0034 98.3323 71.3906C98.3026 72.9992 98.2579 75.0098 97.1408 76.6184C94.8769 80.0439 90.7213 80.9525 87.2659 80.3716L87.2808 80.3418ZM72.3566 70.3481C75.0376 70.7949 77.1228 72.6268 79.3123 74.563C81.4571 76.4545 83.6912 78.4056 86.5807 79.1503C89.8128 79.9844 94.0875 79.3439 96.2918 76.0077C97.2451 74.6524 97.2748 72.8056 97.3195 71.3311C97.3195 70.914 97.3344 70.5268 97.3642 70.1842C97.5578 69.0523 98.3323 68.7693 99.1366 68.4715C99.3154 68.4119 99.4941 68.3374 99.6877 68.2629C102.964 67.6672 105.645 65.6863 106.971 62.9161C108.237 60.2799 108.118 57.2415 106.658 54.5904C104.975 51.1649 101.162 49.5712 98.094 48.2904C96.8429 47.635 96.0684 46.5031 95.9046 45.1031C95.6812 43.2414 96.5152 41.052 97.96 39.7711C99.0473 38.803 100.611 38.0881 102.339 37.7605C104.156 37.4179 106.092 37.3881 108.163 37.3583C111.722 37.3136 115.401 37.269 118.499 35.4817C122.536 33.2178 124.219 29.3901 125.351 25.488C124.01 25.4731 122.64 25.488 121.285 25.5624C120.733 26.9327 120.167 28.0199 119.557 28.9582C116.831 32.9349 112.825 33.5306 108.58 34.1413C106.301 34.4689 103.948 34.8264 101.743 35.72C99.5984 36.5689 98.094 37.5817 96.9919 38.8924C95.5173 40.5754 94.8024 43.0477 95.1748 45.1925C95.3684 46.3393 95.9642 47.9031 97.677 48.8712C98.3919 49.2882 99.092 49.5861 99.7622 49.884C100.715 50.2861 101.609 50.6734 102.384 51.3287C104.543 52.8181 105.928 55.3947 105.943 58.016C105.943 60.265 104.96 62.2607 103.203 63.4969C101.981 64.2714 100.73 64.4948 99.5239 64.7033C98.243 64.9267 97.0216 65.1352 95.8003 65.9544C93.8343 67.0417 93.1342 69.8566 93.1342 72.1353C92.9406 74.3247 91.4661 74.6375 89.8128 74.7715C86.7743 74.6077 84.5402 72.5226 82.3805 70.5119C80.9656 69.1864 79.491 67.8012 77.8526 67.0417C75.0823 65.3884 70.8225 64.6586 67.9181 66.4459C66.9649 66.9821 66.2351 67.5927 65.535 68.1736C64.9244 68.6949 64.3435 69.1715 63.6435 69.6034C63.6137 69.6183 63.5839 69.6332 63.569 69.6481C63.0626 71.197 62.6157 72.8204 62.2136 74.4885C62.3625 74.4737 62.4966 74.4439 62.6455 74.429C64.3882 74.1162 66.5627 73.1034 68.1862 71.8375L68.6777 71.4949C69.6459 70.8247 70.3906 70.3034 71.6566 70.2736C71.8949 70.2885 72.1332 70.3183 72.3715 70.363L72.3566 70.3481Z" fill="#B74400"/>
<path d="M130.906 25.2942C130.459 25.7559 130.042 26.2474 129.685 26.7985C127.793 29.7028 127.778 34.1262 130.549 36.1964C136.894 40.9625 143.596 34.2156 148.482 31.1326C149.003 30.8049 149.509 30.5219 150.001 30.2538C145.339 28.2432 140.364 26.7389 135.121 25.8602C133.706 25.6219 132.306 25.4431 130.891 25.3091L130.906 25.2942Z" fill="white"/>
<path d="M133.96 38.2816C132.723 38.0731 131.472 37.5518 130.236 36.6284C127.198 34.3497 127.272 29.5688 129.238 26.5304C129.581 26.0091 129.998 25.5027 130.519 24.9517L130.698 24.7729L130.951 24.8027C132.574 24.9666 133.93 25.1453 135.211 25.3538C140.349 26.2176 145.398 27.707 150.209 29.7922L151.177 30.2092L150.239 30.7156C149.748 30.9837 149.256 31.2666 148.75 31.5794C147.916 32.1007 147.037 32.7411 146.098 33.4114C142.524 35.9731 138.279 39.0114 133.96 38.2816ZM131.1 25.8453C130.698 26.2772 130.385 26.6794 130.117 27.0964C128.389 29.7475 128.285 33.8731 130.862 35.8093C135.806 39.5178 140.96 35.839 145.503 32.5773C146.456 31.8922 147.35 31.2518 148.199 30.7156C148.407 30.5815 148.63 30.4475 148.824 30.3283C144.386 28.4964 139.739 27.1709 135.032 26.3666C133.84 26.173 132.574 25.9942 131.1 25.8453Z" fill="#B74400"/>
<path d="M181.011 116.132C176.111 118.038 170.555 117.01 165.238 119.915C162.274 121.419 160.189 124.919 159.369 127.972C158.535 130.787 158.118 133.081 157.031 134.883C155.229 138.025 151.937 141.645 150.746 145.621C150.403 146.619 150.209 147.617 150.09 148.615C152.429 147.587 154.722 146.44 156.912 145.16C159.176 141.376 162.825 138.085 163.987 133.632C166.221 126.155 166.325 124.666 174.815 123.459C176.379 123.191 178.062 122.938 179.79 122.506C181.383 119.84 182.783 117.04 183.99 114.106C183.111 114.955 182.113 115.655 180.981 116.117L181.011 116.132Z" fill="#FBD5C0"/>
<path d="M149.494 149.464L149.599 148.57C149.733 147.468 149.941 146.455 150.284 145.472C151.103 142.747 152.905 140.155 154.499 137.861C155.288 136.73 156.033 135.657 156.614 134.644C157.388 133.349 157.835 131.725 158.342 129.864C158.52 129.223 158.699 128.553 158.908 127.853C159.652 125.053 161.693 121.166 165.029 119.483C168.127 117.785 171.285 117.397 174.338 117.025C176.632 116.742 178.792 116.474 180.847 115.685C181.875 115.253 182.828 114.612 183.692 113.778L185.464 112.065L184.526 114.344C183.319 117.263 181.904 120.108 180.281 122.804L180.177 122.983L179.968 123.042C178.523 123.4 177.153 123.638 175.828 123.861L174.964 124.01C167.129 125.127 166.772 126.334 164.791 132.976L164.538 133.825C163.748 136.834 161.872 139.321 160.04 141.734C159.071 143 158.163 144.206 157.403 145.472L157.225 145.651C155.05 146.917 152.741 148.094 150.343 149.136L149.524 149.494L149.494 149.464ZM182.724 115.804C182.232 116.117 181.726 116.385 181.204 116.608C179.03 117.457 176.691 117.74 174.442 118.023C171.493 118.395 168.425 118.768 165.491 120.376C162.438 121.925 160.561 125.515 159.876 128.121C159.667 128.836 159.488 129.491 159.325 130.117C158.803 132.068 158.342 133.736 157.493 135.151C156.897 136.193 156.137 137.281 155.333 138.442C153.709 140.781 152.026 143.193 151.252 145.77C151.029 146.425 150.865 147.081 150.746 147.766C152.756 146.857 154.707 145.845 156.554 144.772C157.329 143.491 158.267 142.255 159.176 141.049C160.933 138.725 162.765 136.313 163.495 133.498L163.748 132.634C165.789 125.783 166.265 124.159 174.74 122.938L175.604 122.789C176.855 122.58 178.136 122.372 179.462 122.044C180.653 120.034 181.741 117.934 182.709 115.789L182.724 115.804Z" fill="#B74400"/>
<path d="M99.4643 136.432C96.6493 131.77 92.1959 127.451 86.7446 127.287C82.6784 127.153 78.8208 129.342 74.9929 130.906C83.4529 140.989 95.0109 148.555 108.535 151.966C108.163 151.534 107.805 151.102 107.448 150.67C104.096 146.381 102.294 141.093 99.4643 136.432Z" fill="#B74400"/>
<path d="M109.995 152.875L108.401 152.472C95.1002 149.106 83.4231 141.764 74.5908 131.234L74.1439 130.698L74.7993 130.43C75.5738 130.117 76.3483 129.774 77.1377 129.432C80.2208 128.076 83.4082 126.676 86.7743 126.781C91.6001 126.944 96.3961 130.355 99.9111 136.179C101.028 138.025 102.011 140.006 102.95 141.913C104.379 144.802 105.854 147.811 107.865 150.372C108.207 150.804 108.565 151.236 108.922 151.653L109.995 152.889V152.875ZM75.827 131.115C84.1082 140.781 94.8768 147.647 107.075 151.058C107.06 151.028 107.045 151.013 107.016 150.983C104.945 148.332 103.441 145.294 101.996 142.345C101.058 140.453 100.105 138.502 99.0026 136.685C97.4238 134.079 93.0746 127.972 86.7147 127.779C83.5869 127.674 80.5038 129.03 77.5249 130.34C76.9589 130.593 76.3781 130.847 75.8121 131.085L75.827 131.115Z" fill="#B74400"/>
<path d="M184.541 79.3438C185.628 78.7927 186.775 78.5097 187.966 78.3757C187.847 77.6608 187.698 76.9459 187.549 76.2458C186.179 76.3203 184.839 76.5586 183.543 77.0948C172.983 81.548 183.439 93.4035 186.492 99.4951C187.013 100.418 187.371 101.431 187.579 102.474C187.743 101.714 187.892 100.955 188.026 100.18C188.339 98.3334 188.547 96.4865 188.696 94.6546C184.362 88.7715 178.553 82.0544 184.541 79.3438Z" fill="white"/>
<path d="M187.579 105.036L187.073 102.593C186.864 101.55 186.507 100.597 186.03 99.7632C185.449 98.6015 184.6 97.2313 183.707 95.7717C180.862 91.1844 177.332 85.4801 178.732 81.1013C179.358 79.1502 180.907 77.6459 183.349 76.6182C184.571 76.097 185.941 75.814 187.535 75.7246L187.981 75.6948L188.071 76.1267C188.22 76.8416 188.369 77.5566 188.488 78.2863L188.577 78.8225L188.041 78.8821C186.775 79.031 185.717 79.3289 184.794 79.8055H184.779C183.573 80.3715 182.858 81.0864 182.619 82.0247C181.934 84.7056 185.137 88.995 187.967 92.7631C188.369 93.2993 188.756 93.8206 189.143 94.3419L189.262 94.4908V94.6844C189.084 96.71 188.86 98.527 188.562 100.255C188.443 100.925 188.309 101.58 188.19 102.236L187.624 105.006L187.579 105.036ZM187.132 76.7821C185.852 76.8863 184.734 77.1544 183.737 77.5714C181.547 78.4949 180.236 79.7459 179.7 81.414C178.449 85.3311 181.845 90.8269 184.571 95.2206C185.479 96.6951 186.343 98.0802 186.939 99.2568C187.132 99.5994 187.311 99.9568 187.475 100.344L187.52 100.091C187.803 98.4525 188.011 96.71 188.175 94.8036C187.832 94.3419 187.475 93.8653 187.118 93.3887C184.005 89.2333 180.787 84.9439 181.592 81.7715C181.905 80.5353 182.828 79.5523 184.317 78.8821C185.211 78.4353 186.209 78.1225 187.371 77.9438C187.296 77.5566 187.222 77.1693 187.147 76.7821H187.132Z" fill="#B74400"/>
<path d="M139.426 150.134C135.687 149.94 132.023 150.849 128.642 150.67C125.663 150.417 124.859 149.449 122.938 145.606C122.014 143.715 120.033 141.585 118.038 140.691C113.48 138.308 107.284 139.202 106.271 133.23C105.556 129.983 106.092 126.036 104.737 122.208C103.382 118.38 100.179 115.685 96.7685 114.002C89.8575 110.412 81.3379 111.47 74.2036 113.644C71.3587 114.493 68.5884 115.521 65.8032 116.444C66.533 118.023 67.3373 119.572 68.1863 121.091C74.1887 119.066 79.6549 116.042 85.8062 114.776C92.3002 113.272 100.82 116.012 102.89 122.819C104.454 128.315 101.103 134.823 105.526 139.723C109.161 144.132 115.818 142.896 118.127 148.094C118.842 149.508 119.482 151.623 121.359 153.56C121.478 153.679 121.597 153.783 121.716 153.887C129.387 154.215 136.864 153.172 143.894 150.923C142.479 150.477 140.99 150.194 139.411 150.119L139.426 150.134Z" fill="#FBD5C0"/>
<path d="M121.523 154.409L121.255 154.155C121.165 154.081 121.091 154.007 121.002 153.917C119.497 152.353 118.753 150.7 118.157 149.375C117.993 149.002 117.829 148.645 117.68 148.332C116.503 145.681 114.091 144.802 111.529 143.879C109.25 143.045 106.882 142.181 105.139 140.066C102.294 136.923 102.518 133.14 102.726 129.491C102.86 127.183 102.979 125.008 102.399 122.968C100.447 116.549 92.3002 113.808 85.9254 115.283C82.1125 116.057 78.6421 117.502 74.9781 119.006C72.8333 119.885 70.6289 120.808 68.3501 121.568L67.948 121.702L67.7394 121.33C66.8607 119.766 66.0564 118.187 65.3415 116.653L65.1031 116.132L65.6542 115.953C66.5777 115.64 67.5011 115.327 68.4246 115C70.2566 114.359 72.1631 113.704 74.0695 113.138C83.3487 110.308 91.064 110.442 97.0217 113.54C99.8814 114.955 103.65 117.576 105.228 122.03C106.063 124.368 106.197 126.691 106.331 128.94C106.42 130.43 106.494 131.83 106.777 133.111C107.433 136.938 110.322 137.713 113.659 138.606C115.208 139.023 116.816 139.455 118.276 140.215C120.227 141.094 122.342 143.209 123.4 145.353C125.246 149.077 125.902 149.896 128.687 150.134C130.296 150.224 131.979 150.06 133.751 149.881C135.598 149.702 137.504 149.509 139.441 149.598C141.005 149.687 142.554 149.97 144.058 150.432L145.607 150.924L144.058 151.415C136.819 153.724 129.313 154.721 121.702 154.394H121.508L121.523 154.409ZM92.3747 114.121C97.3196 114.955 101.922 117.874 103.396 122.685C104.022 124.904 103.888 127.272 103.769 129.566C103.56 133.17 103.367 136.566 105.929 139.396C107.522 141.317 109.741 142.121 111.901 142.911C114.537 143.879 117.278 144.877 118.633 147.9C118.797 148.213 118.961 148.57 119.125 148.972C119.676 150.223 120.376 151.787 121.761 153.217C121.821 153.277 121.88 153.336 121.955 153.396C128.762 153.679 135.509 152.875 142.017 150.998C141.154 150.819 140.29 150.715 139.411 150.655C137.549 150.566 135.672 150.745 133.87 150.924C132.053 151.102 130.325 151.281 128.627 151.192C125.276 150.894 124.383 149.643 122.491 145.845C121.553 143.923 119.602 141.957 117.844 141.168C116.444 140.438 114.91 140.021 113.405 139.619C110.024 138.711 106.539 137.772 105.78 133.319C105.482 131.979 105.392 130.549 105.303 129.015C105.169 126.84 105.05 124.591 104.26 122.387C102.786 118.261 99.2559 115.804 96.5451 114.463C90.8406 111.5 83.3785 111.38 74.3674 114.136C72.4758 114.702 70.5843 115.357 68.7523 115.983C68.0075 116.236 67.2628 116.504 66.5181 116.757C67.099 117.993 67.7394 119.23 68.4395 120.481C70.5396 119.751 72.595 118.902 74.5908 118.083C78.1506 116.608 81.8146 115.089 85.7169 114.3C87.8319 113.808 90.1405 113.763 92.3896 114.136L92.3747 114.121Z" fill="#B74400"/>
<path d="M96.7685 97.3207C98.4813 97.6633 99.941 98.7654 101.609 99.2569C103.277 99.7484 105.511 99.3463 106.063 97.693C106.39 96.6952 105.988 95.6228 105.586 94.6547C103.471 89.7547 100.12 84.5567 94.8322 83.7674C91.6299 83.2908 88.517 84.5716 85.4786 85.778C85.002 85.9716 84.5402 86.1504 84.0636 86.3291C76.959 88.9951 72.2375 84.0205 65.2223 85.7184C63.3605 86.1653 61.5583 86.9546 59.9199 87.9972C59.7412 95.2654 60.8136 102.355 62.9435 109.027C67.665 108.997 72.7588 107.523 75.8569 106.063C81.472 103.412 90.2299 95.9952 96.7685 97.3356V97.3207Z" fill="#B74400"/>
<path d="M62.5562 109.534L62.437 109.176C60.2476 102.295 59.2199 95.1761 59.3986 87.9823V87.7143L59.6369 87.5653C61.3498 86.4781 63.1818 85.6887 65.0882 85.227C68.499 84.4078 71.3736 85.093 74.1589 85.7632C77.2867 86.5228 80.2507 87.2228 83.8849 85.8674C84.3466 85.6887 84.8232 85.51 85.2849 85.3164L85.5382 85.227C88.5468 84.0355 91.6597 82.7993 94.9067 83.2908C99.3899 83.9759 103.143 87.7292 106.048 94.476C106.494 95.5037 106.941 96.7101 106.554 97.8867C105.914 99.808 103.411 100.359 101.46 99.7782C100.671 99.5399 99.941 99.1825 99.226 98.8399C98.3622 98.4229 97.543 98.0208 96.6493 97.842C92.1214 96.9335 86.4318 100.404 81.3975 103.487C79.4613 104.663 77.6442 105.78 76.0505 106.54C73.1461 107.91 67.9628 109.519 62.9137 109.549H62.5413L62.5562 109.534ZM60.4263 88.2802C60.2923 95.1314 61.2604 101.938 63.3158 108.491C68.0671 108.387 72.8929 106.883 75.6334 105.587C77.1675 104.857 78.9697 103.755 80.8762 102.593C86.0743 99.4208 91.9427 95.8314 96.8727 96.8144C97.8856 97.0229 98.7941 97.4697 99.6878 97.8867C100.388 98.2293 101.058 98.5569 101.758 98.7655C103.262 99.2123 105.154 98.825 105.586 97.5293C105.854 96.7101 105.482 95.7122 105.109 94.8633C102.384 88.5334 98.9579 84.9887 94.9067 84.3036C94.862 84.3036 94.8024 84.2887 94.7428 84.2738C91.764 83.827 88.7851 85.0036 85.8956 86.1504L85.6424 86.2547C85.1658 86.4483 84.7041 86.627 84.2274 86.8057C80.2953 88.2802 77.0484 87.5057 73.9057 86.7462C71.1204 86.0759 68.4841 85.4504 65.3265 86.21C63.6137 86.627 61.9604 87.3121 60.4114 88.2653L60.4263 88.2802Z" fill="#B74400"/>
<path d="M93.3726 143.432C93.3726 143.432 93.2683 143.402 93.2236 143.387C79.6251 136.387 68.5586 121.374 65.0436 105.155C64.984 104.872 65.1627 104.604 65.4457 104.544C65.7287 104.485 65.9968 104.663 66.0564 104.946C69.5119 120.883 80.3549 135.613 93.7003 142.479C93.9535 142.613 94.0428 142.925 93.9237 143.179C93.8194 143.387 93.596 143.491 93.3726 143.447V143.432Z" fill="#B74400"/>
<path d="M90.1405 138.07C90.1405 138.07 90.0214 138.04 89.9618 137.996C82.0082 133.185 74.2781 123.176 71.18 113.644C71.0907 113.376 71.2396 113.078 71.5077 112.989C71.7758 112.9 72.0737 113.048 72.1631 113.317C75.1866 122.64 82.7231 132.425 90.4831 137.102C90.7214 137.251 90.8108 137.564 90.6618 137.817C90.5576 137.996 90.3341 138.085 90.1405 138.055V138.07Z" fill="#B74400"/>
<path d="M132.5 54.1436C79.9826 45.2967 34.3761 56.2138 30.6079 78.5247C26.8545 100.836 66.25 126.81 118.767 135.657C171.285 144.504 217.01 132.887 220.779 110.561C224.532 88.2504 185.017 62.9756 132.5 54.1287V54.1436ZM120.629 124.591C72.9674 116.563 36.8486 95.1164 39.9466 76.6928C43.0446 58.2692 84.1977 49.8393 131.874 57.8819C179.536 65.9097 215.655 87.3567 212.557 105.78C209.459 124.204 168.306 132.634 120.629 124.591Z" fill="#FBD5C0"/>
<path d="M118.678 136.178C65.967 127.302 26.2289 101.401 30.1014 78.4501C33.9739 55.4988 79.8783 44.7604 132.589 53.6371C185.3 62.5138 225.083 88.1013 221.285 110.665C217.413 133.617 171.389 145.055 118.678 136.178ZM132.411 54.6498C80.2655 45.8625 34.8229 56.6158 31.1142 78.614C27.4055 100.612 67.5756 126.512 118.842 135.151C170.108 143.789 216.549 132.5 220.257 110.487C223.966 88.4885 184.556 63.4372 132.411 54.6498ZM120.54 125.097C72.6694 117.025 36.2826 95.2801 39.4402 76.6033C42.5829 57.9265 84.0934 49.303 131.964 57.3605C179.834 65.4181 216.206 87.1779 213.063 105.855C209.921 124.532 168.41 133.155 120.555 125.097H120.54ZM131.785 58.3882C84.4806 50.42 43.5063 58.6712 40.453 76.782C37.3996 94.8929 73.3992 116.117 120.719 124.085C168.023 132.053 208.997 123.802 212.051 105.691C215.104 87.58 179.104 66.3564 131.8 58.3882H131.785Z" fill="#B74400"/>
<path d="M131.338 60.9946C87.7127 53.6371 50.1343 60.7861 47.4236 76.9459C44.6979 93.1057 77.8527 112.17 121.478 119.512C165.104 126.87 202.667 119.721 205.393 103.561C208.118 87.4013 174.964 68.3373 131.338 60.9946ZM122.744 111.991C83.1551 105.319 52.8749 89.0992 55.1239 75.7544C57.373 62.4096 91.2874 57.0031 130.891 63.6755C170.481 70.3479 200.761 86.5673 198.512 99.9121C196.263 113.257 162.348 118.663 122.744 111.991Z" fill="#FBD5C0"/>
<path d="M121.404 120.019C77.5697 112.632 44.1617 93.2696 46.9172 76.8566C49.6875 60.4436 87.5936 53.101 131.428 60.4883C175.262 67.8756 208.67 87.2376 205.914 103.651C203.144 120.064 165.238 127.406 121.404 120.019ZM131.264 61.5011C87.9808 54.2031 50.6109 61.1734 47.93 77.0353C45.2639 92.8823 78.2846 111.723 121.568 119.006C164.836 126.304 202.22 119.334 204.886 103.472C207.553 87.6248 174.532 68.7842 131.249 61.5011H131.264ZM122.67 112.497C82.8572 105.795 52.3238 89.2631 54.6175 75.6651C56.9112 62.0671 91.1682 56.467 130.981 63.1692C170.793 69.8714 201.327 86.4035 199.033 100.002C196.739 113.6 162.482 119.2 122.67 112.497ZM130.802 64.1969C91.5555 57.584 57.8198 62.8117 55.6303 75.8438C53.4409 88.8759 83.587 104.872 122.834 111.485C162.08 118.098 195.801 112.87 198.005 99.8377C200.21 86.8057 170.063 70.8097 130.802 64.1969Z" fill="#B74400"/>
<path d="M133.215 49.9138C80.6975 41.0668 34.8528 53.3989 31.0845 75.7098C27.3311 98.0207 66.7266 123.996 119.244 132.842C171.761 141.689 217.487 130.072 221.255 107.746C225.009 85.4355 185.732 58.7607 133.215 49.9138ZM121.106 121.776C73.444 113.749 37.3252 92.3015 40.4232 73.8779C43.5213 55.4542 84.6743 47.0244 132.351 55.067C180.013 63.0948 216.132 84.5418 213.034 102.965C209.936 121.389 168.783 129.804 121.106 121.776Z" fill="#FBD5C0"/>
<path d="M119.155 133.349C66.4436 124.472 26.7055 98.5717 30.578 75.6203C34.4506 52.6839 81.4869 40.6646 133.304 49.4073C185.122 58.135 225.619 84.8992 221.762 107.836C217.889 130.787 171.866 142.225 119.155 133.349ZM133.125 50.42C81.8592 41.7816 35.3591 53.3988 31.5908 75.7991C27.8822 97.8121 68.0522 123.698 119.318 132.336C170.585 140.974 217.025 129.67 220.734 107.657C224.502 85.2566 184.377 59.0436 133.125 50.4051V50.42ZM121.016 122.283C73.146 114.21 36.7592 92.4652 39.9168 73.7884C43.0744 55.1116 84.57 46.4881 132.44 54.5456C180.311 62.6032 216.683 84.363 213.54 103.04C210.397 121.717 168.887 130.34 121.031 122.283H121.016ZM132.262 55.5733C84.9572 47.6051 43.9829 55.8563 40.9296 73.9671C37.8763 92.078 73.8759 113.302 121.195 121.27C168.5 129.238 209.474 120.987 212.527 102.876C215.581 84.7651 179.581 63.5415 132.262 55.5733Z" fill="#B74400"/>
<path d="M132.172 56.0499C88.5468 48.6923 50.6109 57.9563 47.9002 74.116C45.1894 90.2758 78.3293 109.34 121.955 116.683C165.58 124.04 203.144 116.891 205.869 100.731C208.595 84.5715 175.798 63.3925 132.172 56.0499ZM123.221 109.176C83.6317 102.504 53.3515 86.2843 55.6006 72.9394C57.8496 59.5946 91.764 54.1881 131.368 60.8606C170.957 67.533 201.237 83.7523 198.988 97.0972C196.739 110.442 162.825 115.848 123.221 109.176Z" fill="#FBD5C0"/>
<path d="M121.865 117.189C78.0314 109.802 44.6234 90.4397 47.3789 74.0268C50.1343 57.6138 89.9022 48.3946 132.247 55.5436C174.591 62.6777 209.236 83.8418 206.376 100.821C203.606 117.234 165.699 124.576 121.865 117.189ZM132.098 56.5564C90.2895 49.5116 51.1769 57.7628 48.4066 74.2055C45.7405 90.0674 78.7612 108.893 122.044 116.176C165.312 123.474 202.697 116.504 205.363 100.642C208.133 84.1992 173.891 63.6011 132.083 56.5564H132.098ZM123.131 109.683C83.3189 102.98 52.7855 86.4482 55.0793 72.8502C57.373 59.2521 91.6299 53.6372 131.442 60.3543C171.255 67.0565 201.788 83.5886 199.495 97.1866C197.201 110.785 162.944 116.385 123.131 109.683ZM131.279 61.3819C92.0321 54.7691 58.2964 59.9968 56.107 73.0289C53.9026 86.061 84.0636 102.057 123.31 108.67C162.557 115.283 196.278 110.055 198.482 97.0228C200.686 83.9758 170.54 67.9948 131.279 61.3819Z" fill="#B74400"/>
<path d="M179.149 128.523C178.94 128.493 178.762 128.33 178.732 128.106C178.687 127.823 178.866 127.555 179.149 127.51C189.858 125.619 208.684 120.6 214.374 108.327C214.493 108.074 214.791 107.955 215.059 108.074C215.312 108.193 215.432 108.506 215.312 108.759C209.429 121.449 190.245 126.587 179.328 128.523C179.268 128.523 179.209 128.523 179.149 128.523Z" fill="#B74400"/>
<path d="M65.6244 109.608C65.6244 109.608 65.5202 109.578 65.4755 109.563C51.3408 102.459 41.8531 93.6269 37.2805 83.3055C37.1613 83.0523 37.2805 82.7396 37.5486 82.6204C37.8018 82.5013 38.1146 82.6204 38.2337 82.8885C42.702 92.9865 52.0259 101.655 65.9372 108.64C66.1904 108.759 66.2947 109.072 66.1606 109.325C66.0564 109.533 65.8329 109.638 65.6095 109.608H65.6244Z" fill="#B74400"/>
<path d="M122.223 112.557C122.074 112.527 121.925 112.512 121.776 112.482C121.493 112.438 121.314 112.17 121.359 111.887C121.404 111.604 121.627 111.38 121.955 111.47C122.104 111.499 122.253 111.514 122.402 111.544C133.036 113.331 157.627 115.595 165.893 113.882C166.176 113.823 166.444 114.002 166.504 114.285C166.563 114.568 166.385 114.836 166.102 114.895C157.716 116.623 132.917 114.359 122.223 112.557Z" fill="#B74400"/>
<path d="M188.786 93.5971C190.916 60.9797 168.038 31.4006 135.121 25.8601C102.19 20.3197 70.897 40.7688 62.2136 72.2692L188.786 93.5971Z" fill="white"/>
<path d="M188.711 94.1036C188.458 94.0589 188.264 93.8206 188.279 93.5674C190.424 60.7266 167.531 31.8475 135.047 26.3666C102.547 20.8857 71.463 40.6795 62.7349 72.4033C62.6604 72.6714 62.3775 72.8352 62.0945 72.7607C61.8264 72.6863 61.6625 72.4033 61.737 72.1352C70.614 39.905 102.205 19.7835 135.226 25.3538C168.246 30.9241 191.496 60.2649 189.322 93.627C189.307 93.9099 189.054 94.1185 188.771 94.1036C188.756 94.1036 188.741 94.1036 188.711 94.1036Z" fill="#B74400"/>
<path d="M157.374 34.022C155.914 36.3901 153.888 38.1773 153.039 41.1561C152.339 43.7923 152.861 46.4583 154.469 48.6328C155.81 50.3754 158.088 51.5967 159.578 52.7137C160.278 53.235 160.903 53.8158 161.112 54.5307C161.142 54.6946 161.142 54.7244 161.186 55.0073L161.261 55.9754C161.44 58.1946 161.484 60.1904 162.214 62.4989C164.21 69.4543 173.4 69.9011 179.03 68.099C180.981 67.533 182.798 66.8479 184.571 66.1628C184.049 64.8223 183.483 63.4968 182.873 62.201C177.436 63.7351 169.14 65.9245 167.01 60.8457C166.399 59.1478 166.265 56.4967 166.057 54.5605C165.819 49.8243 160.591 48.4243 157.82 45.8774C155.05 42.3178 158.103 39.4731 159.98 35.6305C159.131 35.0645 158.267 34.5284 157.374 34.0071V34.022Z" fill="#FBD5C0"/>
<path d="M170.034 69.2608C168.619 69.0225 167.263 68.6054 166.072 67.965C163.838 66.7735 162.378 64.9862 161.708 62.633C161.067 60.6224 160.948 58.85 160.799 56.9734L160.635 54.8733C160.635 54.784 160.621 54.7244 160.591 54.635C160.457 54.1882 160.025 53.6967 159.25 53.1308C158.848 52.8329 158.386 52.5201 157.91 52.1925C156.584 51.2988 155.065 50.2712 154.052 48.9456C152.324 46.6073 151.788 43.7924 152.533 41.0221C153.144 38.9072 154.29 37.3731 155.422 35.8838C155.944 35.1986 156.48 34.4837 156.942 33.739L157.21 33.3071L157.642 33.5603C158.535 34.0816 159.399 34.6327 160.263 35.1986L160.635 35.4518L160.442 35.854C160.025 36.7178 159.548 37.5072 159.086 38.2817C157.522 40.9476 156.271 43.0477 158.223 45.5498C158.937 46.2052 159.935 46.8307 160.993 47.5009C163.525 49.0946 166.4 50.9116 166.578 54.5308C166.623 54.9031 166.653 55.3351 166.697 55.7819C166.846 57.4649 167.025 59.3862 167.487 60.667C169.334 65.0607 176.319 63.4969 182.739 61.6947L183.156 61.5756L183.334 61.9777C183.945 63.2883 184.526 64.6288 185.047 65.9692L185.241 66.4458L184.764 66.6246C183.185 67.2352 181.219 67.9948 179.179 68.5756C176.617 69.3948 173.206 69.7671 170.064 69.2459L170.034 69.2608ZM157.537 34.722C157.12 35.3476 156.674 35.9433 156.242 36.5093C155.125 37.9838 154.082 39.3838 153.531 41.2902C152.875 43.7477 153.352 46.2498 154.871 48.3201C155.795 49.5116 157.225 50.4797 158.491 51.3286C158.982 51.6563 159.459 51.984 159.876 52.2967C160.531 52.7733 161.321 53.4584 161.604 54.367C161.633 54.5308 161.648 54.5904 161.663 54.7244L161.693 54.918L161.842 56.8989C161.976 58.7159 162.095 60.4287 162.706 62.3351C163.301 64.4203 164.597 65.999 166.578 67.0565C170.212 68.9927 175.366 68.7395 178.881 67.6075C180.683 67.0863 182.441 66.4309 183.915 65.865C183.498 64.8373 183.066 63.8096 182.605 62.8117C177.287 64.3011 168.842 66.5203 166.548 61.0543C166.027 59.6245 165.848 57.6436 165.685 55.8861C165.64 55.4542 165.61 55.0223 165.565 54.635C165.402 51.5222 162.884 49.9435 160.457 48.3945C159.369 47.7094 158.342 47.0541 157.493 46.2796C155.065 43.1519 156.599 40.5604 158.223 37.7902C158.595 37.1646 158.982 36.5093 159.325 35.8391C158.744 35.4518 158.148 35.0944 157.552 34.722H157.537Z" fill="#B74400"/>
<path d="M62.7201 74.9204C64.701 74.5629 66.9798 73.4012 68.4842 72.2395C69.7055 71.4054 70.3757 70.8097 71.6567 70.7799C77.108 71.182 80.2209 78.0481 86.4616 79.6417C90.1703 80.5949 94.4897 79.6864 96.7238 76.2906C98.0196 74.4289 97.7515 71.8522 97.8707 70.2139C98.0494 69.2458 98.7643 69.1863 99.8665 68.7394C106.673 67.533 110.471 60.4585 107.09 54.3371C105.348 50.7775 101.46 49.1392 98.2728 47.8137C95.3237 46.2647 96.1429 42.0498 98.2728 40.1434C99.3601 39.1753 100.864 38.5497 102.413 38.2518C107.329 37.2986 113.703 38.8178 118.723 35.9135C123.012 33.5156 124.785 29.3453 125.991 24.9666C124.278 24.9219 122.58 24.9517 120.882 25.041C120.361 26.3368 119.795 27.5581 119.08 28.6453C115.044 34.5433 107.835 32.6369 101.49 35.2135C99.6729 35.9433 97.9005 36.9114 96.5451 38.5348C93.8939 41.5732 93.5066 47.1136 97.3792 49.2881C99.1069 50.3009 100.775 50.6435 102.011 51.686C105.958 54.4116 106.688 60.3393 102.86 63.05C100.552 64.5245 97.9898 63.8245 95.4578 65.5075C93.1492 66.7735 92.5683 70.0203 92.5683 72.1203C92.4342 73.7438 91.4959 74.0863 89.7235 74.2501C85.0318 73.997 82.2316 68.5309 78.0314 66.5649C75.276 64.9117 70.7481 64.0628 67.6054 65.999C65.833 66.982 64.8053 68.2628 63.3456 69.1565C63.2711 69.2011 63.1967 69.216 63.1222 69.2607C62.4966 71.1522 61.9753 73.1033 61.5136 75.0693C61.9158 75.0246 62.303 74.9948 62.7052 74.9055L62.7201 74.9204Z" fill="#FBD5C0"/>
<path d="M87.2808 80.3418C86.968 80.2822 86.6403 80.2227 86.3424 80.1482C83.1997 79.3439 80.8911 77.3035 78.642 75.3375C76.393 73.3566 74.278 71.5098 71.6268 71.3013C70.7183 71.3162 70.1672 71.7034 69.2586 72.3289L68.7671 72.6566C67.0543 73.9822 64.7009 75.0694 62.8094 75.4269C62.4817 75.4864 62.154 75.5311 61.8263 75.5609L60.8582 75.6801L61.0221 74.9652C61.4838 72.9396 62.0349 70.9736 62.6455 69.097L62.7051 68.9034L63.0328 68.7395C63.7179 68.3374 64.269 67.8757 64.8499 67.3842C65.5946 66.7587 66.3542 66.1182 67.367 65.5523C70.5991 63.5714 75.3206 64.331 78.2995 66.1331C80.0421 66.9523 81.5613 68.3821 83.0359 69.7672C85.1509 71.7481 87.1616 73.6098 89.7383 73.7588C91.4512 73.6098 91.9427 73.2673 92.0469 72.1055C92.0469 70.8991 92.2852 66.6842 95.2045 65.0906C96.5748 64.182 97.9451 63.9289 99.2856 63.7054C100.447 63.4969 101.55 63.3033 102.577 62.648C104.052 61.6054 104.871 59.9522 104.856 58.0309C104.856 55.7373 103.635 53.4883 101.698 52.1479C101.013 51.567 100.209 51.2244 99.2856 50.8372C98.5856 50.5393 97.8557 50.2266 97.0961 49.7797C95.4577 48.8563 94.4151 47.3372 94.0875 45.3861C93.6704 42.9435 94.4747 40.1435 96.1429 38.2371C97.3493 36.7924 98.9877 35.6902 101.296 34.7817C103.62 33.8285 106.033 33.4859 108.371 33.1434C112.393 32.5625 116.176 31.9965 118.648 28.3923C119.274 27.4539 119.825 26.3369 120.406 24.8922L120.525 24.5794H120.853C122.58 24.4752 124.308 24.4454 125.991 24.4901H126.646L126.468 25.1454C125.336 29.271 123.548 33.8434 118.946 36.4051C115.61 38.3264 111.797 38.3711 108.118 38.4158C106.107 38.4456 104.201 38.4605 102.488 38.7881C100.924 39.086 99.5537 39.7115 98.6004 40.5605C97.4089 41.6328 96.694 43.4499 96.8876 44.9988C96.977 45.7435 97.3344 46.7712 98.4962 47.3818C101.684 48.7074 105.69 50.3904 107.537 54.1436C109.146 57.0628 109.28 60.4437 107.865 63.3927C106.405 66.4608 103.441 68.6651 99.9409 69.2906C99.8367 69.3502 99.643 69.4098 99.4643 69.4842C98.66 69.7821 98.4515 69.8715 98.3621 70.3481C98.3472 70.6311 98.3323 71.0034 98.3323 71.3906C98.3026 72.9992 98.2579 75.0098 97.1408 76.6184C94.8769 80.0439 90.7213 80.9525 87.2659 80.3716L87.2808 80.3418ZM72.3566 70.3481C75.0376 70.7949 77.1228 72.6268 79.3123 74.563C81.4571 76.4545 83.6912 78.4056 86.5807 79.1503C89.8128 79.9844 94.0875 79.3439 96.2918 76.0077C97.2451 74.6524 97.2748 72.8056 97.3195 71.3311C97.3195 70.914 97.3344 70.5268 97.3642 70.1842C97.5578 69.0523 98.3323 68.7693 99.1366 68.4715C99.3154 68.4119 99.4941 68.3374 99.6877 68.2629C102.964 67.6672 105.645 65.6863 106.971 62.9161C108.237 60.2799 108.118 57.2415 106.658 54.5904C104.975 51.1649 101.162 49.5712 98.094 48.2904C96.8429 47.635 96.0684 46.5031 95.9046 45.1031C95.6812 43.2414 96.5152 41.052 97.96 39.7711C99.0473 38.803 100.611 38.0881 102.339 37.7605C104.156 37.4179 106.092 37.3881 108.163 37.3583C111.722 37.3136 115.401 37.269 118.499 35.4817C122.536 33.2178 124.219 29.3901 125.351 25.488C124.01 25.4731 122.64 25.488 121.285 25.5624C120.733 26.9327 120.167 28.0199 119.557 28.9582C116.831 32.9349 112.825 33.5306 108.58 34.1413C106.301 34.4689 103.948 34.8264 101.743 35.72C99.5984 36.5689 98.094 37.5817 96.9919 38.8924C95.5173 40.5754 94.8024 43.0477 95.1748 45.1925C95.3684 46.3393 95.9642 47.9031 97.677 48.8712C98.3919 49.2882 99.092 49.5861 99.7622 49.884C100.715 50.2861 101.609 50.6734 102.384 51.3287C104.543 52.8181 105.928 55.3947 105.943 58.016C105.943 60.265 104.96 62.2607 103.203 63.4969C101.981 64.2714 100.73 64.4948 99.5239 64.7033C98.243 64.9267 97.0216 65.1352 95.8003 65.9544C93.8343 67.0417 93.1342 69.8566 93.1342 72.1353C92.9406 74.3247 91.4661 74.6375 89.8128 74.7715C86.7743 74.6077 84.5402 72.5226 82.3805 70.5119C80.9656 69.1864 79.491 67.8012 77.8526 67.0417C75.0823 65.3884 70.8225 64.6586 67.9181 66.4459C66.9649 66.9821 66.2351 67.5927 65.535 68.1736C64.9244 68.6949 64.3435 69.1715 63.6435 69.6034C63.6137 69.6183 63.5839 69.6332 63.569 69.6481C63.0626 71.197 62.6157 72.8204 62.2136 74.4885C62.3625 74.4737 62.4966 74.4439 62.6455 74.429C64.3882 74.1162 66.5627 73.1034 68.1862 71.8375L68.6777 71.4949C69.6459 70.8247 70.3906 70.3034 71.6566 70.2736C71.8949 70.2885 72.1332 70.3183 72.3715 70.363L72.3566 70.3481Z" fill="#B74400"/>
<path d="M85.2552 58.0161C89.5298 56.065 90.6022 50.1819 88.9788 45.7585C88.0255 43.1371 86.3276 40.5456 85.6424 37.9243C78.6719 43.1669 72.7588 49.8096 68.3501 57.5394C68.5884 57.465 68.8267 57.3756 69.065 57.316C74.4121 56.0501 80.2656 60.2799 85.2552 58.0161Z" fill="#B74400"/>
<path d="M67.233 58.4627L67.9033 57.2861C72.312 49.5413 78.1804 42.8987 85.3296 37.5071L85.9403 37.0454L86.1339 37.7901C86.5212 39.2497 87.251 40.754 87.951 42.1987C88.4872 43.3008 89.0383 44.4476 89.4554 45.5796C91.1235 50.152 90.066 56.3776 85.4637 58.4776C82.604 59.7733 79.506 59.0733 76.5122 58.3882C74.0546 57.8372 71.5226 57.2563 69.1842 57.8074C68.9608 57.8669 68.7374 57.9414 68.5139 58.0159L67.233 58.4478V58.4627ZM85.3594 38.788C78.9102 43.7476 73.5631 49.7796 69.4225 56.7201C71.8503 56.2882 74.3376 56.8393 76.7505 57.3903C79.6996 58.0606 82.5146 58.701 85.0467 57.5393C89.1277 55.6776 90.0065 50.0626 88.5021 45.937C88.1 44.8498 87.5638 43.7327 87.0425 42.6455C86.4318 41.3795 85.7914 40.0837 85.3743 38.7731L85.3594 38.788Z" fill="#B74400"/>
<path d="M130.906 25.2942C130.459 25.7559 130.042 26.2474 129.685 26.7985C127.793 29.7028 127.778 34.1262 130.549 36.1964C136.894 40.9625 143.596 34.2156 148.482 31.1326C149.003 30.8049 149.509 30.5219 150.001 30.2538C145.339 28.2432 140.364 26.7389 135.121 25.8602C133.706 25.6219 132.306 25.4431 130.891 25.3091L130.906 25.2942Z" fill="#B74400"/>
<path d="M133.96 38.2816C132.723 38.0731 131.472 37.5518 130.236 36.6284C127.198 34.3497 127.272 29.5688 129.238 26.5304C129.581 26.0091 129.998 25.5027 130.519 24.9517L130.698 24.7729L130.951 24.8027C132.574 24.9666 133.93 25.1453 135.211 25.3538C140.349 26.2176 145.398 27.707 150.209 29.7922L151.177 30.2092L150.239 30.7156C149.748 30.9837 149.256 31.2666 148.75 31.5794C147.916 32.1007 147.037 32.7411 146.098 33.4114C142.524 35.9731 138.279 39.0114 133.96 38.2816ZM131.1 25.8453C130.698 26.2772 130.385 26.6794 130.117 27.0964C128.389 29.7475 128.285 33.8731 130.862 35.8093C135.806 39.5178 140.96 35.839 145.503 32.5773C146.456 31.8922 147.35 31.2518 148.199 30.7156C148.407 30.5815 148.63 30.4475 148.824 30.3283C144.386 28.4964 139.739 27.1709 135.032 26.3666C133.84 26.173 132.574 25.9942 131.1 25.8453Z" fill="#B74400"/>
<path d="M184.541 79.3438C185.628 78.7927 186.775 78.5097 187.966 78.3757C187.847 77.6608 187.698 76.9459 187.549 76.2458C186.179 76.3203 184.839 76.5586 183.543 77.0948C172.983 81.548 183.439 93.4035 186.492 99.4951C187.013 100.418 187.371 101.431 187.579 102.474C187.743 101.714 187.892 100.955 188.026 100.18C188.339 98.3334 188.547 96.4865 188.696 94.6546C184.362 88.7715 178.553 82.0544 184.541 79.3438Z" fill="#B74400"/>
<path d="M187.579 105.036L187.073 102.593C186.864 101.55 186.507 100.597 186.03 99.7632C185.449 98.6015 184.6 97.2313 183.707 95.7717C180.862 91.1844 177.332 85.4801 178.732 81.1013C179.358 79.1502 180.907 77.6459 183.349 76.6182C184.571 76.097 185.941 75.814 187.535 75.7246L187.981 75.6948L188.071 76.1267C188.22 76.8416 188.369 77.5566 188.488 78.2863L188.577 78.8225L188.041 78.8821C186.775 79.031 185.717 79.3289 184.794 79.8055H184.779C183.573 80.3715 182.858 81.0864 182.619 82.0247C181.934 84.7056 185.137 88.995 187.967 92.7631C188.369 93.2993 188.756 93.8206 189.143 94.3419L189.262 94.4908V94.6844C189.084 96.71 188.86 98.527 188.562 100.255C188.443 100.925 188.309 101.58 188.19 102.236L187.624 105.006L187.579 105.036ZM187.132 76.7821C185.852 76.8863 184.734 77.1544 183.737 77.5714C181.547 78.4949 180.236 79.7459 179.7 81.414C178.449 85.3311 181.845 90.8269 184.571 95.2206C185.479 96.6951 186.343 98.0802 186.939 99.2568C187.132 99.5994 187.311 99.9568 187.475 100.344L187.52 100.091C187.803 98.4525 188.011 96.71 188.175 94.8036C187.832 94.3419 187.475 93.8653 187.118 93.3887C184.005 89.2333 180.787 84.9439 181.592 81.7715C181.905 80.5353 182.828 79.5523 184.317 78.8821C185.211 78.4353 186.209 78.1225 187.371 77.9438C187.296 77.5566 187.222 77.1693 187.147 76.7821H187.132Z" fill="#B74400"/>
<path d="M141.734 30.9838C160.963 37.82 175.068 51.7308 181.145 71.3757C181.324 71.9417 182.187 71.7183 182.143 71.1374C180.311 50.9712 159.22 36.554 141.794 30.8646C141.72 30.8348 141.66 30.954 141.734 30.9838Z" fill="white"/>
<path d="M168.872 22.688L167.829 15.2262C167.74 14.5559 167.263 14.0049 166.638 13.8262L161.663 12.4112L166.638 10.9963C167.278 10.8176 167.74 10.2665 167.829 9.59631L168.872 2.13452L169.915 9.59631C170.004 10.2665 170.481 10.8176 171.106 10.9963L176.081 12.4112L171.106 13.8262C170.466 14.0049 170.004 14.5559 169.915 15.2262L168.872 22.688Z" fill="#FBD5C0"/>
<path d="M168.872 24.8028L167.531 15.2559C167.457 14.7048 167.07 14.2431 166.548 14.1091L160.546 12.4112L166.548 10.7133C167.07 10.5643 167.457 10.1175 167.531 9.55156L168.872 0.00463867L170.212 9.55156C170.287 10.1026 170.674 10.5643 171.195 10.7133L177.198 12.4112L171.195 14.1091C170.674 14.258 170.287 14.7048 170.212 15.2559L168.872 24.8028ZM162.765 12.3963L166.712 13.5133C167.457 13.7218 168.008 14.3772 168.127 15.1665L168.887 20.5581L169.646 15.1665C169.751 14.3772 170.302 13.7218 171.061 13.5133L175.008 12.3963L171.061 11.2792C170.317 11.0707 169.766 10.4154 169.646 9.62603L168.887 4.23448L168.127 9.62603C168.023 10.4154 167.472 11.0707 166.712 11.2792L162.765 12.3963Z" fill="#B74400"/>
<path d="M8.37059 95.0569L10.1281 103.948L15.9965 106.614L10.1281 109.28L8.37059 118.187L6.59816 109.28L0.729797 106.614L6.59816 103.948L8.37059 95.0569Z" fill="#FBD5C0"/>
<path d="M8.37061 119.706L6.35988 109.504L0.0148926 106.629L6.35988 103.755L8.37061 93.5525L10.3813 103.755L16.7263 106.629L10.3813 109.504L8.37061 119.706ZM1.45964 106.614L6.86628 109.072L8.37061 116.683L9.87494 109.072L15.2816 106.614L9.87494 104.157L8.37061 96.5461L6.86628 104.157L1.45964 106.614Z" fill="#B74400"/>
<path d="M197.261 35.5411C197.261 35.9879 196.918 36.3453 196.486 36.3453C196.054 36.3453 195.712 35.9879 195.712 35.5411C195.712 35.0943 196.054 34.7368 196.486 34.7368C196.918 34.7368 197.261 35.0943 197.261 35.5411Z" fill="white"/>
<path d="M72.4162 37.3582C72.4162 37.805 72.0736 38.1625 71.6417 38.1625C71.2098 38.1625 70.8672 37.805 70.8672 37.3582C70.8672 36.9114 71.2098 36.554 71.6417 36.554C72.0736 36.554 72.4162 36.9114 72.4162 37.3582Z" fill="white"/>
<path d="M53.9324 158.207C53.9324 158.653 53.5898 159.011 53.1579 159.011C52.7259 159.011 52.3834 158.653 52.3834 158.207C52.3834 157.76 52.7259 157.402 53.1579 157.402C53.5898 157.402 53.9324 157.76 53.9324 158.207Z" fill="white"/>
<path d="M22.1777 64.2713C22.1777 64.7181 21.8351 65.0756 21.4032 65.0756C20.9712 65.0756 20.6287 64.7181 20.6287 64.2713C20.6287 63.8245 20.9712 63.467 21.4032 63.467C21.8351 63.467 22.1777 63.8245 22.1777 64.2713Z" fill="white"/>
<path d="M201.014 45.2817C201.014 46.3689 200.165 47.2476 199.107 47.2476C198.05 47.2476 197.201 46.3689 197.201 45.2817C197.201 44.1944 198.05 43.3157 199.107 43.3157C200.165 43.3157 201.014 44.1944 201.014 45.2817Z" fill="white"/>
<path d="M64.5669 37.3583C64.5669 38.4456 63.7179 39.3243 62.6604 39.3243C61.6029 39.3243 60.754 38.4456 60.754 37.3583C60.754 36.2711 61.6029 35.3923 62.6604 35.3923C63.7179 35.3923 64.5669 36.2711 64.5669 37.3583Z" fill="white"/>
<path d="M64.0456 149.285C64.0456 150.372 63.1966 151.251 62.1391 151.251C61.0816 151.251 60.2327 150.372 60.2327 149.285C60.2327 148.198 61.0816 147.319 62.1391 147.319C63.1966 147.319 64.0456 148.198 64.0456 149.285Z" fill="white"/>
<path d="M23.0862 135.389L22.0436 127.927C21.9543 127.257 21.4776 126.706 20.8521 126.527L15.8774 125.112L20.8521 123.698C21.4925 123.519 21.9543 122.968 22.0436 122.297L23.0862 114.836L24.1288 122.297C24.2182 122.968 24.6948 123.519 25.3204 123.698L30.2951 125.112L25.3204 126.527C24.6799 126.706 24.2182 127.257 24.1288 127.927L23.0862 135.389Z" fill="#FBD5C0"/>
<path d="M23.0862 137.504L21.7457 127.957C21.6712 127.406 21.284 126.945 20.7627 126.796L14.7603 125.098L20.7627 123.4C21.284 123.251 21.6712 122.804 21.7457 122.238L23.0862 112.691L24.4267 122.238C24.5011 122.789 24.8884 123.251 25.4097 123.4L31.4121 125.098L25.4097 126.796C24.8884 126.945 24.5011 127.391 24.4267 127.957L23.0862 137.504ZM16.9646 125.113L20.9116 126.23C21.6563 126.438 22.2074 127.093 22.3266 127.883L23.0862 133.274L23.8458 127.883C23.9501 127.093 24.5011 126.438 25.2608 126.23L29.2078 125.113L25.2608 123.996C24.516 123.787 23.965 123.132 23.8458 122.342L23.0862 116.951L22.3266 122.342C22.2223 123.132 21.6563 123.787 20.9116 123.996L16.9646 125.113Z" fill="#B74400"/>
</g>
<defs>
<clipPath id="clip0_4666_32808">
<rect width="222" height="159" fill="white" transform="translate(0 0.000244141)"/>
</clipPath>
</defs>
</svg>
