<svg width="21" height="20" viewBox="0 0 21 20" fill="none" xmlns="http://www.w3.org/2000/svg">
<path d="M15.05 11.0002C15.8 11.0002 16.46 10.5902 16.8 9.97024L20.38 3.48024C20.75 2.82024 20.27 2.00024 19.51 2.00024H4.71L3.77 0.000244141H0.5V2.00024H2.5L6.1 9.59024L4.75 12.0302C4.02 13.3702 4.98 15.0002 6.5 15.0002H18.5V13.0002H6.5L7.6 11.0002H15.05ZM5.66 4.00024H17.81L15.05 9.00024H8.03L5.66 4.00024ZM6.5 16.0002C5.4 16.0002 4.51 16.9002 4.51 18.0002C4.51 19.1002 5.4 20.0002 6.5 20.0002C7.6 20.0002 8.5 19.1002 8.5 18.0002C8.5 16.9002 7.6 16.0002 6.5 16.0002ZM16.5 16.0002C15.4 16.0002 14.51 16.9002 14.51 18.0002C14.51 19.1002 15.4 20.0002 16.5 20.0002C17.6 20.0002 18.5 19.1002 18.5 18.0002C18.5 16.9002 17.6 16.0002 16.5 16.0002Z" fill="white"/>
</svg>
