<svg width="64" height="64" viewBox="0 0 64 64" fill="none" xmlns="http://www.w3.org/2000/svg">
<g opacity="0.64">
<path d="M64 25.8274C64 26.0292 64 26.2166 63.9856 26.404C64 26.5337 63.9856 26.6635 63.9856 26.7932C63.9856 27.0238 63.9712 27.2544 63.9424 27.4851C63.9424 27.6148 63.928 27.7301 63.9136 27.8599C63.8992 28.004 63.8848 28.1337 63.8704 28.2779C63.7696 29.2581 63.5968 30.2383 63.3663 31.2184C63.3375 31.3049 63.3375 31.3914 63.3087 31.4635C63.0927 32.3428 62.8191 33.2077 62.5023 34.0581C62.4014 34.332 62.3006 34.6203 62.1854 34.8797C61.811 35.8455 61.3789 36.8113 60.8893 37.7338C60.5004 38.5266 60.0684 39.305 59.5932 40.0546C59.5932 40.0978 59.5644 40.1266 59.5499 40.1699C59.4491 40.3428 59.3339 40.5302 59.2187 40.7032C59.0891 40.905 58.9595 41.1212 58.8299 41.3086C58.8299 41.323 58.8299 41.3375 58.8011 41.3519C58.6283 41.6113 58.4698 41.8708 58.2826 42.1303C57.9946 42.5627 57.7066 42.9951 57.3897 43.4131C57.3609 43.442 57.3465 43.4852 57.3177 43.514C57.0153 43.9465 56.6985 44.3501 56.396 44.7681C56.1944 45.0276 56.0072 45.2726 55.7912 45.5177C55.5896 45.7915 55.3591 46.051 55.1287 46.3249C54.4662 47.1177 53.7606 47.8961 53.0405 48.6456C52.2772 49.4384 51.4707 50.2024 50.6498 50.9375C50.3618 51.197 50.0594 51.4565 49.757 51.7159C48.8929 52.4367 48.0144 53.1285 47.1071 53.7916C46.459 54.2673 45.7966 54.7286 45.1197 55.161C44.9901 55.2475 44.8605 55.334 44.7164 55.406C41.8217 57.2367 38.7542 58.6637 35.6291 59.6007C35.4275 59.6727 35.1971 59.7304 34.9811 59.8025C34.765 59.8745 34.549 59.9178 34.333 59.9899C33.6849 60.1484 33.0657 60.2926 32.4176 60.4079C29.6237 60.9556 26.801 61.0998 24.0503 60.7683C23.5751 60.725 23.0854 60.6529 22.6246 60.5665C17.8289 59.716 13.2492 57.4097 9.27444 53.3304C8.8856 52.9556 8.52556 52.552 8.16553 52.1339C7.56066 51.442 6.9702 50.7069 6.39415 49.9285C-1.46905 39.1897 -3.8885 20.4796 9.70648 13.9931C9.9225 13.8778 10.1385 13.7769 10.3689 13.6904C10.4266 13.6615 10.4842 13.6327 10.5418 13.6039C10.6858 13.5462 10.8442 13.4741 11.0026 13.4165C11.0602 13.4021 11.1034 13.3732 11.161 13.3588C11.3771 13.2723 11.5787 13.2003 11.7947 13.1282C11.8235 13.1138 11.8523 13.0994 11.8811 13.0994C15.9135 11.7156 20.2484 11.6579 24.5832 11.7876C25.3753 11.8165 26.1674 11.8309 26.9594 11.8741C29.062 11.9318 31.1359 12.0183 33.1521 11.9462C34.045 11.9318 34.9523 11.8453 35.8739 11.7444C36.1332 11.7156 36.3924 11.6723 36.6516 11.6435C36.9109 11.6003 37.1701 11.5714 37.4293 11.5282C38.0774 11.4273 38.7254 11.312 39.3879 11.1967C39.4455 11.1967 39.4887 11.1822 39.5463 11.1678C39.7335 11.139 39.9208 11.1102 40.0936 11.0813C40.3384 11.0381 40.5688 10.9948 40.8136 10.9516C40.8713 10.9516 40.9145 10.9516 40.9721 10.9228C41.1305 10.8939 41.3033 10.8651 41.4617 10.8363C43.9964 10.4039 46.5598 10.0147 49.0225 10.0002C50.117 10.0002 51.1971 10.0723 52.2484 10.2597C52.4068 10.2885 52.5652 10.3174 52.7237 10.3462C55.6472 10.9372 58.153 12.6237 60.0396 14.9012C60.0972 14.9733 60.1692 15.0453 60.2268 15.1318C60.3132 15.2327 60.3996 15.3336 60.486 15.4489C60.6157 15.6219 60.7453 15.8093 60.8749 15.9967C60.9613 16.112 61.0189 16.2129 61.0909 16.3282C61.9694 17.6544 62.6607 19.1102 63.1503 20.6526C63.3087 21.1139 63.4383 21.5751 63.5392 22.0508C63.6112 22.3535 63.6832 22.6562 63.7264 22.9733C63.8992 23.9103 63.9856 24.8761 64 25.8274Z" fill="#396EB5" fill-opacity="0.3"/>
</g>
<g clip-path="url(#clip0_4674_1363)">
<g clip-path="url(#clip1_4674_1363)">
<path d="M50.24 32.0002C50.24 22.0589 42.1787 14.0002 32.24 14.0002C22.3013 14.0002 14.24 22.0589 14.24 32.0002C14.24 40.9842 20.8213 48.4322 29.4267 49.7816V37.2029H24.856V32.0002H29.4267V28.0349C29.4267 23.5229 32.1147 21.0322 36.2267 21.0322C38.1973 21.0322 40.256 21.3842 40.256 21.3842V25.8136H37.9867C35.752 25.8136 35.0533 27.2002 35.0533 28.6242V32.0002H40.0453L39.248 37.2029H35.0533V49.7816C43.6587 48.4322 50.24 40.9842 50.24 32.0002Z" fill="#396EB5"/>
<path d="M39.2453 37.2029L40.0427 32.0002H35.0507V28.6242C35.0507 27.2002 35.7467 25.8136 37.984 25.8136H40.2533V21.3842C40.2533 21.3842 38.1947 21.0322 36.224 21.0322C32.112 21.0322 29.424 23.5229 29.424 28.0349V32.0002H24.8533V37.2029H29.424V49.7816C30.3413 49.9256 31.28 50.0002 32.2373 50.0002C33.1947 50.0002 34.1333 49.9256 35.0507 49.7816V37.2029H39.2453Z" fill="white"/>
</g>
</g>
<defs>
<clipPath id="clip0_4674_1363">
<rect x="14" y="14.0002" width="36" height="36" rx="18" fill="white"/>
</clipPath>
<clipPath id="clip1_4674_1363">
<rect width="150.717" height="36" fill="white" transform="translate(-24 14.0002)"/>
</clipPath>
</defs>
</svg>
