<svg width="64" height="64" viewBox="0 0 64 64" fill="none" xmlns="http://www.w3.org/2000/svg">
<g opacity="0.64">
<path d="M41.6451 64.0002C41.4433 64.0002 41.2559 64.0003 41.0685 63.9858C40.9388 64.0003 40.8091 63.9858 40.6793 63.9858C40.4487 63.9858 40.2181 63.9714 39.9875 63.9426C39.8577 63.9426 39.7424 63.9282 39.6127 63.9138C39.4685 63.8994 39.3388 63.885 39.1947 63.8706C38.2145 63.7698 37.2343 63.597 36.2541 63.3666C36.1676 63.3378 36.0811 63.3378 36.009 63.309C35.1298 63.093 34.2649 62.8193 33.4144 62.5025C33.1405 62.4017 32.8523 62.3009 32.5928 62.1857C31.627 61.8112 30.6612 61.3792 29.7387 60.8895C28.9459 60.5007 28.1675 60.0686 27.418 59.5934C27.3747 59.5934 27.3459 59.5646 27.3027 59.5502C27.1297 59.4494 26.9423 59.3342 26.7693 59.219C26.5675 59.0893 26.3513 58.9597 26.1639 58.8301C26.1495 58.8301 26.1351 58.8301 26.1207 58.8013C25.8612 58.6285 25.6017 58.4701 25.3423 58.2829C24.9098 57.9948 24.4774 57.7068 24.0594 57.39C24.0306 57.3612 23.9873 57.3468 23.9585 57.318C23.5261 57.0155 23.1224 56.6987 22.7044 56.3963C22.445 56.1947 22.1999 56.0074 21.9549 55.7914C21.681 55.5898 21.4215 55.3594 21.1477 55.1289C20.3549 54.4665 19.5765 53.7608 18.8269 53.0407C18.0341 52.2775 17.2701 51.471 16.535 50.6501C16.2755 50.3621 16.0161 50.0596 15.7566 49.7572C15.0359 48.8931 14.344 48.0146 13.6809 47.1073C13.2052 46.4593 12.744 45.7968 12.3115 45.1199C12.225 44.9903 12.1386 44.8607 12.0665 44.7167C10.2358 41.822 8.8088 38.7545 7.87186 35.6294C7.79979 35.4277 7.74213 35.1973 7.67006 34.9813C7.59798 34.7653 7.55474 34.5493 7.48267 34.3332C7.32411 33.6852 7.17996 33.0659 7.06464 32.4178C6.51689 29.624 6.37275 26.8013 6.70428 24.0506C6.74752 23.5753 6.8196 23.0857 6.90608 22.6248C7.75654 17.8292 10.0629 13.2495 14.1422 9.27468C14.517 8.88584 14.9206 8.52581 15.3386 8.16577C16.0305 7.56091 16.7656 6.97045 17.544 6.39439C28.2828 -1.46881 46.9929 -3.88826 53.4795 9.70673C53.5948 9.92275 53.6957 10.1388 53.7822 10.3692C53.811 10.4268 53.8398 10.4844 53.8687 10.542C53.9263 10.686 53.9984 10.8444 54.056 11.0029C54.0705 11.0605 54.0993 11.1037 54.1137 11.1613C54.2002 11.3773 54.2723 11.5789 54.3443 11.7949C54.3587 11.8237 54.3732 11.8525 54.3732 11.8813C55.757 15.9138 55.8146 20.2486 55.6849 24.5834C55.6561 25.3755 55.6416 26.1676 55.5984 26.9597C55.5407 29.0623 55.4543 31.1361 55.5263 33.1523C55.5407 34.0452 55.6272 34.9525 55.7281 35.8742C55.757 36.1334 55.8002 36.3926 55.829 36.6519C55.8723 36.9111 55.9011 37.1703 55.9443 37.4295C56.0452 38.0776 56.1606 38.7257 56.2759 39.3881C56.2759 39.4458 56.2903 39.489 56.3047 39.5466C56.3335 39.7338 56.3624 39.921 56.3912 40.0938C56.4344 40.3386 56.4777 40.5691 56.5209 40.8139C56.5209 40.8715 56.5209 40.9147 56.5498 40.9723C56.5786 41.1307 56.6074 41.3035 56.6362 41.462C57.0687 43.9966 57.4579 46.5601 57.4723 49.0227C57.4723 50.1172 57.4002 51.1973 57.2128 52.2486C57.184 52.4071 57.1552 52.5655 57.1263 52.7239C56.5353 55.6474 54.8488 58.1533 52.5713 60.0398C52.4993 60.0975 52.4272 60.1695 52.3407 60.2271C52.2398 60.3135 52.1389 60.3999 52.0236 60.4863C51.8506 60.6159 51.6632 60.7455 51.4758 60.8751C51.3605 60.9615 51.2596 61.0191 51.1443 61.0911C49.8182 61.9696 48.3623 62.6609 46.8199 63.1506C46.3587 63.309 45.8974 63.4386 45.4217 63.5394C45.119 63.6114 44.8163 63.6834 44.4992 63.7266C43.5623 63.8994 42.5965 63.9858 41.6451 64.0002Z" fill="#C0D2E8"/>
</g>
<g clip-path="url(#clip0_4674_1438)">
<g clip-path="url(#clip1_4674_1438)">
<path d="M31.7173 50.0002C41.6585 50.0002 49.7173 41.9414 49.7173 32.0002C49.7173 22.0591 41.6585 14.0002 31.7173 14.0002C21.7762 14.0002 13.7173 22.0591 13.7173 32.0002C13.7173 41.9414 21.7762 50.0002 31.7173 50.0002Z" fill="#2C68B1"/>
<path d="M33.1094 29.5442C33.4054 29.2109 33.648 28.8749 33.952 28.5895C34.8854 27.7095 35.9894 27.2669 37.28 27.2775C37.9894 27.2829 38.688 27.3335 39.3707 27.5309C40.9334 27.9815 41.84 29.0589 42.2747 30.5842C42.6 31.7282 42.6587 32.9042 42.6614 34.0829C42.6667 36.5682 42.6534 39.0562 42.6614 41.5415C42.6614 41.7735 42.5974 41.8349 42.368 41.8349C41.088 41.8242 39.8054 41.8242 38.5254 41.8349C38.2987 41.8349 38.2507 41.7682 38.2507 41.5549C38.2587 39.1895 38.2587 36.8242 38.2507 34.4562C38.2507 33.8642 38.2107 33.2695 38.0454 32.6935C37.7387 31.6322 36.9787 31.0909 35.8667 31.1495C34.3467 31.2295 33.5574 31.9815 33.3654 33.5255C33.32 33.8935 33.296 34.2642 33.2987 34.6349C33.2987 36.9362 33.2987 39.2375 33.304 41.5389C33.304 41.7682 33.248 41.8349 33.0134 41.8349C31.7227 41.8242 30.432 41.8242 29.1414 41.8349C28.9334 41.8349 28.8747 41.7815 28.8747 41.5709C28.88 37.0162 28.88 32.4589 28.8747 27.9042C28.8747 27.6775 28.9494 27.6269 29.1627 27.6269C30.3867 27.6349 31.6134 27.6375 32.8374 27.6269C33.064 27.6269 33.12 27.6989 33.1174 27.9122C33.104 28.4562 33.112 29.0002 33.112 29.5469L33.1094 29.5442Z" fill="white"/>
<path d="M26.0907 34.7496C26.0907 37.0029 26.088 39.2563 26.096 41.5096C26.096 41.7603 26.0347 41.8349 25.776 41.8323C24.496 41.8189 23.216 41.8216 21.9334 41.8323C21.728 41.8323 21.6667 41.7816 21.6667 41.5709C21.672 37.0083 21.672 32.4456 21.6667 27.8803C21.6667 27.6909 21.712 27.6243 21.912 27.6243C23.2107 27.6323 24.5094 27.6349 25.808 27.6243C26.0587 27.6243 26.0907 27.7176 26.0907 27.9336C26.0854 30.2056 26.088 32.4776 26.088 34.7496H26.0907Z" fill="white"/>
<path d="M26.4427 23.1043C26.4427 24.5203 25.296 25.6723 23.8827 25.6723C22.488 25.6723 21.3307 24.5203 21.3253 23.1256C21.32 21.7176 22.4773 20.5576 23.888 20.5576C25.288 20.5576 26.44 21.707 26.4427 23.1016V23.1043Z" fill="white"/>
</g>
</g>
<defs>
<clipPath id="clip0_4674_1438">
<rect x="14" y="14.0002" width="36" height="36" rx="18" fill="white"/>
</clipPath>
<clipPath id="clip1_4674_1438">
<rect width="150.717" height="36" fill="white" transform="translate(-101 14.0002)"/>
</clipPath>
</defs>
</svg>
