<svg width="197" height="32" viewBox="0 0 197 32" fill="none" xmlns="http://www.w3.org/2000/svg">
<g clip-path="url(#clip0_4666_68171)">
<path d="M14.4228 0.0189702C14.0569 0.0189702 13.5176 0.0379404 12.7995 0.0731707C12.0813 0.105691 11.542 0.127371 11.1762 0.127371C10.7913 0.127371 10.2114 0.105691 9.45258 0.0731707C8.69377 0.0379404 8.12195 0.0189702 7.729 0.0189702C7.33604 0.0189702 7.14363 0.127371 7.14363 0.338753C7.15176 0.425474 7.15718 0.520325 7.17886 0.604336C7.61789 3.96477 7.82927 8.69648 7.82927 14.7913C7.82927 17.4255 7.65583 19.3171 7.31707 20.4661C7.06233 21.3117 6.69648 22.0108 6.22764 22.5691C6 22.8347 5.47425 23.3225 4.66125 24.0271C4.08943 24.4011 3.45528 24.6667 2.78591 24.8184C2.41192 24.8997 1.64228 24.9729 0.449865 25.0379H0.422764C0.376694 25.0515 0.330623 25.065 0.284553 25.0786C0.143632 25.1328 0.0433606 25.252 0.0162604 25.3984C0.00271022 25.458 -0.00270983 25.5176 0.00271022 25.5827C0.235773 26.9079 0.428184 27.8916 0.569106 28.5447C0.663957 29.8482 0.728997 30.8266 0.756098 31.4661C0.761518 31.6667 0.821138 31.813 0.921409 31.8916C1.03523 31.9783 1.24932 32.0108 1.55556 31.9919C4.15718 31.897 6.70461 31.0867 9.22764 29.3496C9.31978 29.2846 9.41193 29.2168 9.50678 29.1572C9.59892 29.0976 9.68564 29.0298 9.76423 28.9566L9.79946 28.9323C10.0325 28.7453 10.252 28.5447 10.4661 28.3333C12.0949 26.7615 13.3117 24.7073 14.0976 22.1734C14.5962 20.5501 14.8428 18.2547 14.8428 15.2846C14.8428 13.6341 14.8564 11.1653 14.8753 7.86992C14.897 4.57724 14.9106 2.11382 14.9106 0.468835C14.9485 0.170732 14.7778 0.0162601 14.4255 0.0162601" fill="#F07330"/>
<path d="M27.8184 20.5014C27.1978 21.2547 26.4146 21.6341 25.4688 21.6341C24.523 21.6341 23.7209 21.2547 23.1003 20.5014C22.5149 19.7968 22.2304 18.9566 22.2304 17.9729C22.2304 16.9892 22.523 16.1626 23.1003 15.4553C23.7209 14.7046 24.5122 14.3225 25.4688 14.3225C26.4255 14.3225 27.187 14.6883 27.7859 15.4282C28.3713 16.1409 28.6911 17.0461 28.6775 17.9702C28.6694 18.9539 28.393 19.7995 27.8211 20.4986L27.8184 20.5014ZM25.4309 8.7019C22.6152 8.7019 20.3794 9.57995 18.7317 11.3306C17.0813 13.0867 16.2547 15.3686 16.2547 18.1843C16.2547 20.8537 17.1192 23.0434 18.8455 24.7371C20.5691 26.4336 22.7642 27.2846 25.4417 27.2846C28.1192 27.2846 30.4173 26.4201 32.1138 24.6965C33.8103 22.9729 34.6558 20.7236 34.6558 17.9566C34.6558 15.1897 33.8049 12.9865 32.1084 11.2629C30.3984 9.56098 28.1734 8.7019 25.4336 8.7019" fill="#F07330"/>
<path d="M21.3713 6.12195C21.3631 6.28184 21.3577 6.44174 21.336 6.59621C21.3171 6.74797 21.3008 6.90244 21.3008 7.04878C21.3008 7.31436 21.4146 7.44174 21.6477 7.43361H21.8157C23.2602 7.36043 25.0488 6.87534 27.1843 5.97019C29.3198 5.06504 30.9241 4.11382 31.9892 3.10298C32.1626 2.94309 32.2439 2.81843 32.2439 2.71816C32.2439 2.60976 32.1436 2.4851 31.9512 2.3523C31.2927 1.92683 30.7995 1.6206 30.4607 1.42005C29.8537 0.888889 29.4065 0.476965 29.1301 0.184282C29.0352 0.100271 28.9377 0.0406504 28.8184 0C28.6856 0.0406504 28.5637 0.100271 28.4499 0.181572C26.9458 1.23848 25.8238 2.02981 25.084 2.56369C23.374 3.53659 22.2168 4.1355 21.6233 4.36856C21.3713 4.46884 21.2385 4.60163 21.2385 4.76694C21.2466 4.99458 21.271 5.21951 21.3035 5.43902C21.3442 5.67209 21.3631 5.89702 21.3713 6.12466" fill="#F07330"/>
<path d="M48.4146 10C48.4146 9.72629 48.2331 9.59621 47.8672 9.59621C47.5014 9.59621 46.9621 9.60976 46.2439 9.63686C45.5257 9.66396 45 9.6748 44.6612 9.6748C44.6016 9.29539 44.5691 8.91057 44.5691 8.52304C44.5691 7.22493 44.7696 6.35501 45.168 5.91599C45.4011 5.65583 46.0136 5.46883 47.0027 5.36314C47.8672 5.27642 48.2954 5.08401 48.2954 4.79133C48.2954 4.54472 48.2412 4.19241 48.1274 3.73171C47.9837 3.13821 47.8997 2.79404 47.8889 2.69377C47.7073 1.60976 47.5691 0.783197 47.4688 0.233062C47.4228 0.0867205 47.2764 0.0135498 47.0325 0.0135498C43.4228 0.0135498 40.8157 0.972899 39.1978 2.88076C38.3848 3.84553 37.981 5.38753 37.981 7.51219C37.981 8.07046 38.0136 8.84282 38.0732 9.82656C37.6477 9.85366 37.2276 9.88076 36.8157 9.9187C36.3577 10.019 36.1247 10.2981 36.1247 10.7507C36.1247 12.8022 36.1762 14.3659 36.29 15.4363C36.3035 15.6369 36.4743 15.729 36.8157 15.729C36.9024 15.729 37.0379 15.7209 37.2276 15.71C37.4146 15.6965 37.5556 15.6911 37.6423 15.6911C38.1274 15.6911 38.3659 15.8699 38.3659 16.2304V26.4309C38.3659 26.8645 38.5718 27.1165 38.9865 27.1897C39.3984 27.2629 40.29 27.3035 41.6612 27.3035C43.3117 27.3035 44.3442 27.2764 44.7561 27.2304C45.0949 27.1897 45.2683 27.0434 45.2683 26.7832C45.2683 25.9051 45.2304 24.6856 45.1436 23.1165C45.0434 21.374 44.9892 20.1545 44.9756 19.4499C44.9404 17.794 44.9024 16.5095 44.8699 15.5772C45.6206 15.6504 46.6531 15.6911 47.9621 15.6911C48.2737 15.6911 48.4363 15.5447 48.4363 15.2439C48.4363 14.6667 48.4282 13.794 48.4173 12.6233V10H48.4146Z" fill="#F07330"/>
<path d="M61.4363 20.5014C60.8157 21.2547 60.0325 21.6341 59.0867 21.6341C58.1409 21.6341 57.336 21.2547 56.7154 20.5014C56.1301 19.7968 55.8455 18.9566 55.8455 17.9729C55.8455 16.9892 56.1382 16.1626 56.7154 15.4553C57.336 14.7046 58.1247 14.3225 59.0867 14.3225C60.0488 14.3225 60.8022 14.6883 61.4011 15.4282C61.9865 16.1409 62.3062 17.0461 62.2927 17.9702C62.2927 18.9539 62.0081 19.7995 61.4363 20.4986V20.5014ZM59.0542 8.7019C56.2385 8.7019 54.0027 9.57995 52.355 11.3306C50.7046 13.0867 49.8781 15.3686 49.8781 18.1843C49.8781 20.8537 50.7425 23.0434 52.4688 24.7371C54.1924 26.4336 56.3875 27.2846 59.0623 27.2846C61.7371 27.2846 64.0407 26.4201 65.7371 24.6965C67.4336 22.9729 68.2791 20.7236 68.2791 17.9566C68.2791 15.1897 67.4282 12.9783 65.7317 11.2629C64.0217 9.56098 61.7995 8.7019 59.0596 8.7019" fill="#F07330"/>
<path d="M81.5718 19.3957C81.019 20.0406 80.2141 20.4065 79.3631 20.3875C78.504 20.3875 77.7723 20.0596 77.1734 19.4146C76.5799 18.7913 76.2601 17.9593 76.2764 17.1003C76.2629 16.2358 76.5826 15.3984 77.1545 14.7588C77.7398 14.0921 78.4797 13.7534 79.3631 13.7534C80.2087 13.7317 81.019 14.1003 81.5718 14.7371C82.7452 16.0677 82.7452 18.065 81.5718 19.3957ZM88.5582 9.57994C88.4851 9.55284 87.4986 9.44173 85.5962 9.24119C83.6937 9.04065 82.6477 8.93496 82.4553 8.93496C82.2358 8.93496 82.1273 9.42818 82.1273 10.4065C82.1273 10.8455 82.0759 11.065 81.962 11.065C81.8862 11.065 81.7534 10.9322 81.561 10.6585C80.5881 9.33333 79.1897 8.6748 77.3604 8.6748C75.0704 8.6748 73.2141 9.47967 71.7967 11.084C70.439 12.6287 69.7615 14.5691 69.7615 16.9133C69.7615 19.2574 70.4742 21.1978 71.8916 22.794C73.3523 24.4526 75.2249 25.2764 77.5068 25.2764C79.4444 25.2764 81.0325 24.6911 82.271 23.5122V24.7425C82.271 25.5393 81.7507 26.1978 80.7073 26.7263C79.8509 27.1653 78.9837 27.3848 78.1057 27.3848C76.5149 27.3848 74.7913 26.9187 72.9268 25.9864C72.8672 25.9512 72.794 25.9268 72.7263 25.9133C72.5474 25.9133 72.4146 26.0867 72.3279 26.4255C71.8076 28.5962 71.5474 29.794 71.5474 30.0244C71.5474 30.5908 72.6667 31.0759 74.9078 31.4959C76.6639 31.8293 78.0488 31.9946 79.0677 31.9946C82.5555 31.9946 85.0515 31.2168 86.5528 29.6585C88.0027 28.1409 88.7344 25.6314 88.7344 22.1382C88.7344 21.6396 88.729 20.8808 88.7154 19.8753C88.7019 18.8699 88.6965 18.1111 88.6965 17.6152C88.6965 16.7696 88.7236 15.5068 88.7778 13.8266C88.832 12.1518 88.8591 10.8862 88.8591 10.0406C88.8591 9.80759 88.7588 9.6477 88.5528 9.57452" fill="#F07330"/>
<path d="M96.9241 6.12195C96.916 6.28184 96.9105 6.44173 96.8862 6.59621C96.8672 6.74797 96.8509 6.90244 96.8482 7.04878C96.8482 7.31436 96.9593 7.44173 97.1924 7.4336H97.3577C98.8021 7.36043 100.593 6.87534 102.729 5.97019C104.864 5.06504 106.469 4.11382 107.534 3.10298C107.707 2.94309 107.786 2.81843 107.786 2.71816C107.786 2.60976 107.688 2.4851 107.496 2.3523C106.835 1.92683 106.344 1.6206 106.003 1.42005C105.398 0.888889 104.951 0.476965 104.672 0.184282C104.58 0.102981 104.48 0.0433608 104.366 0.00271034C104.233 0.0433608 104.114 0.102981 104 0.184282C102.496 1.24119 101.374 2.03252 100.634 2.5664C98.9241 3.5393 97.7669 4.13821 97.1734 4.37127C96.9187 4.47154 96.7886 4.60434 96.7886 4.76965C96.794 4.99729 96.8211 5.22222 96.8536 5.44173C96.8997 5.6748 96.9187 5.89973 96.9268 6.12737" fill="#F07330"/>
<path d="M102.545 20.4471C101.889 21.1247 101.049 21.4715 100.016 21.4715C99.0461 21.4715 98.2195 21.1138 97.542 20.4011C96.8753 19.7154 96.5041 18.7967 96.523 17.8401C96.523 16.7805 96.8455 15.916 97.4878 15.2439C98.1328 14.5718 98.9702 14.2331 100.016 14.2331C101.062 14.2331 101.905 14.5718 102.558 15.2574C103.209 15.935 103.531 16.8022 103.531 17.8455C103.531 18.8889 103.198 19.7696 102.545 20.4471ZM109.759 9.99458C109.238 9.82114 108.377 9.61517 107.171 9.36856C105.905 9.1084 105.054 8.98374 104.602 8.98374C104.406 8.98374 104.244 9.28455 104.103 9.87534C103.965 10.4688 103.837 10.7669 103.729 10.7669C103.691 10.7669 103.65 10.7344 103.602 10.6748C102.499 9.32249 100.995 8.64499 99.084 8.64499C96.3414 8.64499 94.1788 9.542 92.6043 11.3333C91.0867 13.065 90.3279 15.3469 90.3279 18.1897C90.3279 20.645 91.0596 22.7615 92.5311 24.523C94.0813 26.4119 96.0433 27.3577 98.4119 27.3577C99.962 27.3577 101.42 26.6639 102.786 25.2737C102.897 25.1545 103.024 25.0461 103.171 24.9621C103.279 24.9756 103.377 25.336 103.45 26.0406C103.531 26.7452 103.683 27.1003 103.919 27.1003C105.862 27.1003 107.585 27.0461 109.089 26.935C109.515 26.8943 109.726 26.6341 109.726 26.1436C109.726 25.2114 109.675 23.8157 109.561 21.9431C109.45 20.0732 109.396 18.6694 109.396 17.7236C109.39 15.3631 109.58 13 109.981 10.6721C110.008 10.5447 110.027 10.4119 110.035 10.2846C110.035 10.1734 109.943 10.0732 109.762 10" fill="#F07330"/>
<path d="M119.775 13.5149C120.26 13.2141 120.859 13.0623 121.577 13.0623C121.924 13.0623 122.266 13.103 122.596 13.1816C122.775 12.9864 122.87 12.8293 122.87 12.7154C122.87 12.5095 122.49 11.7832 121.724 10.5366C120.959 9.29268 120.48 8.6748 120.287 8.6748C118.404 8.6748 116.64 9.21138 114.989 10.2846C113.146 11.4959 112.222 12.9648 112.222 14.7019C112.222 15.6287 112.534 16.5068 113.154 17.3387C113.198 17.4038 113.78 18.0244 114.883 19.187C115.501 19.8591 115.816 20.4444 115.816 20.9512C115.816 21.6911 115.282 22.2222 114.211 22.542C113.347 22.6965 112.493 22.8428 111.642 22.9946C111.509 23.0135 111.442 23.0813 111.442 23.187C111.442 23.4661 111.862 24.2303 112.705 25.4824C113.55 26.7344 114.089 27.3604 114.336 27.3604C115.425 27.3604 116.623 27.0921 117.921 26.561C119.06 26.0948 120.119 25.4634 121.07 24.6911C121.496 24.3577 121.848 23.8266 122.13 23.1003C122.363 22.5013 122.482 21.8699 122.496 21.2303C122.496 20.2249 122.184 19.2873 121.564 18.4092C121.344 18.0813 120.767 17.458 119.835 16.5203C119.214 15.8943 118.902 15.3821 118.902 14.9756C118.902 14.3523 119.192 13.8591 119.772 13.5122" fill="#F07330"/>
<path d="M132.824 0H131.347V32H132.824V0Z" fill="#F07330"/>
<path d="M151.005 4.28455L147.003 13.7534H143.865L139.862 4.28455H143.298L145.556 9.81572L147.87 4.28455H151.008H151.005Z" fill="#F07330"/>
<path d="M158.444 10.7642H153.304C153.52 11.3333 154.035 11.6287 154.791 11.6287C155.469 11.6287 155.846 11.4526 156.333 11.0867L157.93 12.6965C157.211 13.4824 156.171 13.8862 154.696 13.8862C151.978 13.8862 150.22 12.2493 150.22 10.0461C150.22 7.84282 152.019 6.21951 154.412 6.21951C156.604 6.21951 158.482 7.54472 158.482 10.0461C158.482 10.2629 158.455 10.5474 158.442 10.7642H158.444ZM153.249 9.28997H155.629C155.507 8.66667 155.06 8.30352 154.439 8.30352C153.818 8.30352 153.371 8.66938 153.249 9.28997Z" fill="#F07330"/>
<path d="M167.846 3.71816V13.7534H164.938V13.1436C164.491 13.645 163.829 13.8889 162.908 13.8889C160.973 13.8889 159.336 12.4282 159.336 10.0488C159.336 7.66938 160.973 6.22222 162.908 6.22222C163.721 6.22222 164.341 6.42547 164.789 6.85908V3.71816H167.846ZM164.843 10.0488C164.843 9.08943 164.314 8.60163 163.64 8.60163C162.965 8.60163 162.436 9.08943 162.436 10.0488C162.436 11.0081 162.965 11.5095 163.64 11.5095C164.314 11.5095 164.843 11.0081 164.843 10.0488Z" fill="#F07330"/>
<path d="M177.42 3.71816V13.7534H174.512V13.1436C174.065 13.645 173.404 13.8889 172.482 13.8889C170.547 13.8889 168.911 12.4282 168.911 10.0488C168.911 7.66938 170.547 6.22222 172.482 6.22222C173.295 6.22222 173.916 6.42547 174.363 6.85908V3.71816H177.42ZM174.417 10.0488C174.417 9.08943 173.889 8.60163 173.214 8.60163C172.539 8.60163 172.011 9.08943 172.011 10.0488C172.011 11.0081 172.539 11.5095 173.214 11.5095C173.889 11.5095 174.417 11.0081 174.417 10.0488Z" fill="#F07330"/>
<path d="M146.244 27.7588C145.77 28.0298 145.081 28.1518 144.363 28.1518C142.32 28.1518 141.13 27.1924 141.13 25.1491V23.2547H140.117V21.0217H141.13V18.9512H144.187V21.0217H145.702V23.2547H144.187V25.1219C144.187 25.5827 144.458 25.8374 144.824 25.8374C145.068 25.8374 145.312 25.7696 145.515 25.6341L146.247 27.7588H146.244Z" fill="#F07330"/>
<path d="M146.726 24.3117C146.726 22.065 148.526 20.4851 151.027 20.4851C153.528 20.4851 155.328 22.0678 155.328 24.3117C155.328 26.5556 153.542 28.1518 151.027 28.1518C148.512 28.1518 146.726 26.5556 146.726 24.3117ZM152.23 24.3117C152.23 23.3523 151.702 22.8645 151.027 22.8645C150.352 22.8645 149.824 23.3523 149.824 24.3117C149.824 25.271 150.352 25.7724 151.027 25.7724C151.702 25.7724 152.23 25.271 152.23 24.3117Z" fill="#F07330"/>
<path d="M164.323 20.6179L161.347 28.0163H158.182L155.206 20.6179H158.344L159.832 24.5799L161.428 20.6179H164.323Z" fill="#F07330"/>
<path d="M172.249 24.0407V28.0163H169.409V27.0434C169.057 27.7886 168.355 28.1518 167.312 28.1518C165.499 28.1518 164.566 27.1247 164.566 25.851C164.566 24.4173 165.648 23.6179 167.949 23.6179H169.179C169.084 23.0488 168.65 22.7534 167.786 22.7534C167.122 22.7534 166.379 22.9702 165.892 23.336L164.919 21.3198C165.783 20.7778 167.098 20.4824 168.247 20.4824C170.789 20.4824 172.249 21.5772 172.249 24.0407V24.0407ZM169.206 19.8076H167.176L168.962 17.6423H171.87L169.206 19.8076ZM169.192 25.6098V25.0949H168.436C167.786 25.0949 167.504 25.3117 167.504 25.7182C167.504 26.0569 167.775 26.3144 168.233 26.3144C168.653 26.3144 169.033 26.0976 169.192 25.6125V25.6098Z" fill="#F07330"/>
<path d="M182.352 24.3117C182.352 26.6911 180.715 28.1518 178.781 28.1518C177.862 28.1518 177.198 27.9079 176.751 27.4065V28.0163H173.843V17.981H176.9V21.1192C177.347 20.6856 177.968 20.4824 178.781 20.4824C180.715 20.4824 182.352 21.9295 182.352 24.3089V24.3117ZM179.255 24.3117C179.255 23.3523 178.726 22.8645 178.052 22.8645C177.377 22.8645 176.848 23.3523 176.848 24.3117C176.848 25.271 177.377 25.7724 178.052 25.7724C178.726 25.7724 179.255 25.271 179.255 24.3117Z" fill="#F07330"/>
<path d="M191.859 24.3117C191.859 26.6911 190.222 28.1518 188.287 28.1518C187.369 28.1518 186.705 27.9079 186.257 27.4065V28.0163H183.35V17.981H186.407V21.1192C186.854 20.6856 187.474 20.4824 188.287 20.4824C190.222 20.4824 191.859 21.9295 191.859 24.3089V24.3117ZM188.762 24.3117C188.762 23.3523 188.233 22.8645 187.558 22.8645C186.883 22.8645 186.355 23.3523 186.355 24.3117C186.355 25.271 186.883 25.7724 187.558 25.7724C188.233 25.7724 188.762 25.271 188.762 24.3117Z" fill="#F07330"/>
<path d="M192.642 18.5474H196.295L195.686 24.3902H193.252L192.642 18.5474ZM192.683 26.5285C192.683 25.6233 193.415 24.9323 194.469 24.9323C195.523 24.9323 196.255 25.6233 196.255 26.5285C196.255 27.4336 195.523 28.1518 194.469 28.1518C193.415 28.1518 192.683 27.4201 192.683 26.5285Z" fill="#F07330"/>
</g>
<defs>
<clipPath id="clip0_4666_68171">
<rect width="196.295" height="32" fill="white"/>
</clipPath>
</defs>
</svg>
