<svg width="185" height="48" viewBox="0 0 185 48" fill="none" xmlns="http://www.w3.org/2000/svg">
<path d="M1.34766 35.4688H2.44336L5.23828 42.4238L8.02734 35.4688H9.12891L5.66016 44H4.80469L1.34766 35.4688ZM0.990234 35.4688H1.95703L2.11523 40.6719V44H0.990234V35.4688ZM8.51367 35.4688H9.48047V44H8.35547V40.6719L8.51367 35.4688ZM12.8805 37.6602V44H11.7906V37.6602H12.8805ZM11.7086 35.9785C11.7086 35.8027 11.7613 35.6543 11.8668 35.5332C11.9762 35.4121 12.1363 35.3516 12.3473 35.3516C12.5543 35.3516 12.7125 35.4121 12.8219 35.5332C12.9352 35.6543 12.9918 35.8027 12.9918 35.9785C12.9918 36.1465 12.9352 36.291 12.8219 36.4121C12.7125 36.5293 12.5543 36.5879 12.3473 36.5879C12.1363 36.5879 11.9762 36.5293 11.8668 36.4121C11.7613 36.291 11.7086 36.1465 11.7086 35.9785ZM16.1047 39.0137V44H15.0207V37.6602H16.0461L16.1047 39.0137ZM15.8469 40.5898L15.3957 40.5723C15.3996 40.1387 15.4641 39.7383 15.5891 39.3711C15.7141 39 15.8898 38.6777 16.1164 38.4043C16.343 38.1309 16.6125 37.9199 16.925 37.7715C17.2414 37.6191 17.591 37.543 17.9738 37.543C18.2863 37.543 18.5676 37.5859 18.8176 37.6719C19.0676 37.7539 19.2805 37.8867 19.4563 38.0703C19.6359 38.2539 19.7727 38.4922 19.8664 38.7852C19.9602 39.0742 20.007 39.4277 20.007 39.8457V44H18.9172V39.834C18.9172 39.502 18.8684 39.2363 18.7707 39.0371C18.673 38.834 18.5305 38.6875 18.343 38.5977C18.1555 38.5039 17.925 38.457 17.6516 38.457C17.382 38.457 17.1359 38.5137 16.9133 38.627C16.6945 38.7402 16.5051 38.8965 16.3449 39.0957C16.1887 39.2949 16.0656 39.5234 15.9758 39.7812C15.8898 40.0352 15.8469 40.3047 15.8469 40.5898ZM26.0496 42.7695V35H27.1395V44H26.1434L26.0496 42.7695ZM21.784 40.9004V40.7773C21.784 40.293 21.8426 39.8535 21.9598 39.459C22.0809 39.0605 22.2508 38.7188 22.4695 38.4336C22.6922 38.1484 22.9559 37.9297 23.2605 37.7773C23.5691 37.6211 23.9129 37.543 24.2918 37.543C24.6902 37.543 25.0379 37.6133 25.3348 37.7539C25.6355 37.8906 25.8895 38.0918 26.0965 38.3574C26.3074 38.6191 26.4734 38.9355 26.5945 39.3066C26.7156 39.6777 26.7996 40.0977 26.8465 40.5664V41.1055C26.8035 41.5703 26.7195 41.9883 26.5945 42.3594C26.4734 42.7305 26.3074 43.0469 26.0965 43.3086C25.8895 43.5703 25.6355 43.7715 25.3348 43.9121C25.034 44.0488 24.6824 44.1172 24.2801 44.1172C23.909 44.1172 23.5691 44.0371 23.2605 43.877C22.9559 43.7168 22.6922 43.4922 22.4695 43.2031C22.2508 42.9141 22.0809 42.5742 21.9598 42.1836C21.8426 41.7891 21.784 41.3613 21.784 40.9004ZM22.8738 40.7773V40.9004C22.8738 41.2168 22.9051 41.5137 22.9676 41.791C23.034 42.0684 23.1355 42.3125 23.2723 42.5234C23.409 42.7344 23.5828 42.9004 23.7938 43.0215C24.0047 43.1387 24.2566 43.1973 24.5496 43.1973C24.909 43.1973 25.2039 43.1211 25.4344 42.9688C25.6688 42.8164 25.8563 42.6152 25.9969 42.3652C26.1375 42.1152 26.2469 41.8438 26.325 41.5508V40.1387C26.2781 39.9238 26.2098 39.7168 26.1199 39.5176C26.034 39.3145 25.9207 39.1348 25.7801 38.9785C25.6434 38.8184 25.4734 38.6914 25.2703 38.5977C25.0711 38.5039 24.8348 38.457 24.5613 38.457C24.2645 38.457 24.0086 38.5195 23.7938 38.6445C23.5828 38.7656 23.409 38.9336 23.2723 39.1484C23.1355 39.3594 23.034 39.6055 22.9676 39.8867C22.9051 40.1641 22.8738 40.4609 22.8738 40.7773ZM31.8578 44.1172C31.4164 44.1172 31.016 44.043 30.6566 43.8945C30.3012 43.7422 29.9945 43.5293 29.7367 43.2559C29.4828 42.9824 29.2875 42.6582 29.1508 42.2832C29.0141 41.9082 28.9457 41.498 28.9457 41.0527V40.8066C28.9457 40.291 29.0219 39.832 29.1742 39.4297C29.3266 39.0234 29.5336 38.6797 29.7953 38.3984C30.057 38.1172 30.3539 37.9043 30.6859 37.7598C31.018 37.6152 31.3617 37.543 31.7172 37.543C32.1703 37.543 32.5609 37.6211 32.8891 37.7773C33.2211 37.9336 33.4926 38.1523 33.7035 38.4336C33.9145 38.7109 34.0707 39.0391 34.1723 39.418C34.2738 39.793 34.3246 40.2031 34.3246 40.6484V41.1348H29.5902V40.25H33.2406V40.168C33.225 39.8867 33.1664 39.6133 33.0648 39.3477C32.9672 39.082 32.8109 38.8633 32.5961 38.6914C32.3813 38.5195 32.0883 38.4336 31.7172 38.4336C31.4711 38.4336 31.2445 38.4863 31.0375 38.5918C30.8305 38.6934 30.6527 38.8457 30.5043 39.0488C30.3559 39.252 30.2406 39.5 30.1586 39.793C30.0766 40.0859 30.0355 40.4238 30.0355 40.8066V41.0527C30.0355 41.3535 30.0766 41.6367 30.1586 41.9023C30.2445 42.1641 30.3676 42.3945 30.5277 42.5938C30.6918 42.793 30.8891 42.9492 31.1195 43.0625C31.3539 43.1758 31.6195 43.2324 31.9164 43.2324C32.2992 43.2324 32.6234 43.1543 32.8891 42.998C33.1547 42.8418 33.3871 42.6328 33.5863 42.3711L34.2426 42.8926C34.1059 43.0996 33.932 43.2969 33.7211 43.4844C33.5102 43.6719 33.2504 43.8242 32.9418 43.9414C32.6371 44.0586 32.2758 44.1172 31.8578 44.1172ZM37.0742 39.0137V44H35.9902V37.6602H37.0156L37.0742 39.0137ZM36.8164 40.5898L36.3652 40.5723C36.3691 40.1387 36.4336 39.7383 36.5586 39.3711C36.6836 39 36.8594 38.6777 37.0859 38.4043C37.3125 38.1309 37.582 37.9199 37.8945 37.7715C38.2109 37.6191 38.5605 37.543 38.9434 37.543C39.2559 37.543 39.5371 37.5859 39.7871 37.6719C40.0371 37.7539 40.25 37.8867 40.4258 38.0703C40.6055 38.2539 40.7422 38.4922 40.8359 38.7852C40.9297 39.0742 40.9766 39.4277 40.9766 39.8457V44H39.8867V39.834C39.8867 39.502 39.8379 39.2363 39.7402 39.0371C39.6426 38.834 39.5 38.6875 39.3125 38.5977C39.125 38.5039 38.8945 38.457 38.6211 38.457C38.3516 38.457 38.1055 38.5137 37.8828 38.627C37.6641 38.7402 37.4746 38.8965 37.3145 39.0957C37.1582 39.2949 37.0352 39.5234 36.9453 39.7812C36.8594 40.0352 36.8164 40.3047 36.8164 40.5898ZM46.4289 37.6602H47.5187V44.7559C47.5187 45.1426 47.4562 45.4707 47.3312 45.7402C47.2102 46.0098 47.0266 46.2129 46.7805 46.3496C46.5383 46.4902 46.2316 46.5605 45.8605 46.5605C45.7629 46.5605 45.6496 46.5508 45.5207 46.5312C45.3879 46.5117 45.2766 46.4883 45.1867 46.4609L45.1926 45.5879C45.2668 45.6035 45.3508 45.6152 45.4445 45.623C45.5383 45.6348 45.6203 45.6406 45.6906 45.6406C45.8508 45.6406 45.9855 45.6113 46.0949 45.5527C46.2043 45.4941 46.2863 45.4004 46.341 45.2715C46.3996 45.1426 46.4289 44.9707 46.4289 44.7559V37.6602ZM46.3176 35.9785C46.3176 35.8027 46.3723 35.6543 46.4816 35.5332C46.591 35.4121 46.7492 35.3516 46.9562 35.3516C47.1672 35.3516 47.3273 35.4121 47.4367 35.5332C47.5461 35.6543 47.6008 35.8027 47.6008 35.9785C47.6008 36.1465 47.5461 36.291 47.4367 36.4121C47.3273 36.5293 47.1672 36.5879 46.9562 36.5879C46.7492 36.5879 46.591 36.5293 46.4816 36.4121C46.3723 36.291 46.3176 36.1465 46.3176 35.9785ZM49.3836 40.9004V40.7656C49.3836 40.3086 49.45 39.8848 49.5828 39.4941C49.7156 39.0996 49.907 38.7578 50.157 38.4688C50.407 38.1758 50.7098 37.9492 51.0652 37.7891C51.4207 37.625 51.8191 37.543 52.2605 37.543C52.7059 37.543 53.1063 37.625 53.4617 37.7891C53.8211 37.9492 54.1258 38.1758 54.3758 38.4688C54.6297 38.7578 54.823 39.0996 54.9559 39.4941C55.0887 39.8848 55.1551 40.3086 55.1551 40.7656V40.9004C55.1551 41.3574 55.0887 41.7812 54.9559 42.1719C54.823 42.5625 54.6297 42.9043 54.3758 43.1973C54.1258 43.4863 53.823 43.7129 53.4676 43.877C53.116 44.0371 52.7176 44.1172 52.2723 44.1172C51.827 44.1172 51.4266 44.0371 51.0711 43.877C50.7156 43.7129 50.4109 43.4863 50.157 43.1973C49.907 42.9043 49.7156 42.5625 49.5828 42.1719C49.45 41.7812 49.3836 41.3574 49.3836 40.9004ZM50.4676 40.7656V40.9004C50.4676 41.2168 50.5047 41.5156 50.5789 41.7969C50.6531 42.0742 50.7645 42.3203 50.9129 42.5352C51.0652 42.75 51.2547 42.9199 51.4813 43.0449C51.7078 43.166 51.9715 43.2266 52.2723 43.2266C52.5691 43.2266 52.8289 43.166 53.0516 43.0449C53.2781 42.9199 53.4656 42.75 53.6141 42.5352C53.7625 42.3203 53.8738 42.0742 53.948 41.7969C54.0262 41.5156 54.0652 41.2168 54.0652 40.9004V40.7656C54.0652 40.4531 54.0262 40.1582 53.948 39.8809C53.8738 39.5996 53.7605 39.3516 53.6082 39.1367C53.4598 38.918 53.2723 38.7461 53.0457 38.6211C52.823 38.4961 52.5613 38.4336 52.2605 38.4336C51.9637 38.4336 51.702 38.4961 51.4754 38.6211C51.2527 38.7461 51.0652 38.918 50.9129 39.1367C50.7645 39.3516 50.6531 39.5996 50.5789 39.8809C50.5047 40.1582 50.4676 40.4531 50.4676 40.7656ZM61.0219 37.6602H62.0062V43.8652C62.0062 44.4238 61.893 44.9004 61.6664 45.2949C61.4398 45.6895 61.1234 45.9883 60.7172 46.1914C60.3148 46.3984 59.85 46.502 59.3227 46.502C59.1039 46.502 58.8461 46.4668 58.5492 46.3965C58.2562 46.3301 57.9672 46.2148 57.682 46.0508C57.4008 45.8906 57.1645 45.6738 56.973 45.4004L57.5414 44.7559C57.807 45.0762 58.0844 45.2988 58.3734 45.4238C58.6664 45.5488 58.9555 45.6113 59.2406 45.6113C59.5844 45.6113 59.8812 45.5469 60.1312 45.418C60.3812 45.2891 60.5746 45.0977 60.7113 44.8438C60.852 44.5938 60.9223 44.2852 60.9223 43.918V39.0547L61.0219 37.6602ZM56.6566 40.9004V40.7773C56.6566 40.293 56.7133 39.8535 56.8266 39.459C56.9437 39.0605 57.1098 38.7188 57.3246 38.4336C57.5434 38.1484 57.807 37.9297 58.1156 37.7773C58.4242 37.6211 58.7719 37.543 59.1586 37.543C59.557 37.543 59.9047 37.6133 60.2016 37.7539C60.5023 37.8906 60.7562 38.0918 60.9633 38.3574C61.1742 38.6191 61.3402 38.9355 61.4613 39.3066C61.5824 39.6777 61.6664 40.0977 61.7133 40.5664V41.1055C61.6703 41.5703 61.5863 41.9883 61.4613 42.3594C61.3402 42.7305 61.1742 43.0469 60.9633 43.3086C60.7562 43.5703 60.5023 43.7715 60.2016 43.9121C59.9008 44.0488 59.5492 44.1172 59.1469 44.1172C58.768 44.1172 58.4242 44.0371 58.1156 43.877C57.8109 43.7168 57.5492 43.4922 57.3305 43.2031C57.1117 42.9141 56.9437 42.5742 56.8266 42.1836C56.7133 41.7891 56.6566 41.3613 56.6566 40.9004ZM57.7406 40.7773V40.9004C57.7406 41.2168 57.7719 41.5137 57.8344 41.791C57.9008 42.0684 58.0004 42.3125 58.1332 42.5234C58.2699 42.7344 58.4437 42.9004 58.6547 43.0215C58.8656 43.1387 59.1176 43.1973 59.4105 43.1973C59.7699 43.1973 60.0668 43.1211 60.3012 42.9688C60.5355 42.8164 60.7211 42.6152 60.8578 42.3652C60.9984 42.1152 61.1078 41.8438 61.1859 41.5508V40.1387C61.143 39.9238 61.0766 39.7168 60.9867 39.5176C60.9008 39.3145 60.7875 39.1348 60.6469 38.9785C60.5102 38.8184 60.3402 38.6914 60.1371 38.5977C59.934 38.5039 59.6957 38.457 59.4223 38.457C59.1254 38.457 58.8695 38.5195 58.6547 38.6445C58.4437 38.7656 58.2699 38.9336 58.1332 39.1484C58.0004 39.3594 57.9008 39.6055 57.8344 39.8867C57.7719 40.1641 57.7406 40.4609 57.7406 40.7773ZM69.0465 44H67.9625V36.9922C67.9625 36.5352 68.0445 36.1504 68.2086 35.8379C68.3766 35.5215 68.6168 35.2832 68.9293 35.123C69.2418 34.959 69.6129 34.877 70.0426 34.877C70.1676 34.877 70.2926 34.8848 70.4176 34.9004C70.5465 34.916 70.6715 34.9395 70.7926 34.9707L70.734 35.8555C70.652 35.8359 70.5582 35.8223 70.4527 35.8145C70.3512 35.8066 70.2496 35.8027 70.148 35.8027C69.9176 35.8027 69.7184 35.8496 69.5504 35.9434C69.3863 36.0332 69.2613 36.166 69.1754 36.3418C69.0895 36.5176 69.0465 36.7344 69.0465 36.9922V44ZM70.3941 37.6602V38.4922H66.9605V37.6602H70.3941ZM74.4914 44.1172C74.05 44.1172 73.6496 44.043 73.2902 43.8945C72.9348 43.7422 72.6281 43.5293 72.3703 43.2559C72.1164 42.9824 71.9211 42.6582 71.7844 42.2832C71.6477 41.9082 71.5793 41.498 71.5793 41.0527V40.8066C71.5793 40.291 71.6555 39.832 71.8078 39.4297C71.9602 39.0234 72.1672 38.6797 72.4289 38.3984C72.6906 38.1172 72.9875 37.9043 73.3195 37.7598C73.6516 37.6152 73.9953 37.543 74.3508 37.543C74.8039 37.543 75.1945 37.6211 75.5227 37.7773C75.8547 37.9336 76.1262 38.1523 76.3371 38.4336C76.548 38.7109 76.7043 39.0391 76.8059 39.418C76.9074 39.793 76.9582 40.2031 76.9582 40.6484V41.1348H72.2238V40.25H75.8742V40.168C75.8586 39.8867 75.8 39.6133 75.6984 39.3477C75.6008 39.082 75.4445 38.8633 75.2297 38.6914C75.0148 38.5195 74.7219 38.4336 74.3508 38.4336C74.1047 38.4336 73.8781 38.4863 73.6711 38.5918C73.4641 38.6934 73.2863 38.8457 73.1379 39.0488C72.9895 39.252 72.8742 39.5 72.7922 39.793C72.7102 40.0859 72.6691 40.4238 72.6691 40.8066V41.0527C72.6691 41.3535 72.7102 41.6367 72.7922 41.9023C72.8781 42.1641 73.0012 42.3945 73.1613 42.5938C73.3254 42.793 73.5227 42.9492 73.7531 43.0625C73.9875 43.1758 74.2531 43.2324 74.55 43.2324C74.9328 43.2324 75.257 43.1543 75.5227 42.998C75.7883 42.8418 76.0207 42.6328 76.2199 42.3711L76.8762 42.8926C76.7395 43.0996 76.5656 43.2969 76.3547 43.4844C76.1438 43.6719 75.884 43.8242 75.5754 43.9414C75.2707 44.0586 74.9094 44.1172 74.4914 44.1172ZM79.7078 39.0137V44H78.6238V37.6602H79.6492L79.7078 39.0137ZM79.45 40.5898L78.9988 40.5723C79.0027 40.1387 79.0672 39.7383 79.1922 39.3711C79.3172 39 79.493 38.6777 79.7195 38.4043C79.9461 38.1309 80.2156 37.9199 80.5281 37.7715C80.8445 37.6191 81.1941 37.543 81.577 37.543C81.8895 37.543 82.1707 37.5859 82.4207 37.6719C82.6707 37.7539 82.8836 37.8867 83.0594 38.0703C83.2391 38.2539 83.3758 38.4922 83.4695 38.7852C83.5633 39.0742 83.6102 39.4277 83.6102 39.8457V44H82.5203V39.834C82.5203 39.502 82.4715 39.2363 82.3738 39.0371C82.2762 38.834 82.1336 38.6875 81.9461 38.5977C81.7586 38.5039 81.5281 38.457 81.2547 38.457C80.9852 38.457 80.7391 38.5137 80.5164 38.627C80.2977 38.7402 80.1082 38.8965 79.948 39.0957C79.7918 39.2949 79.6687 39.5234 79.5789 39.7812C79.493 40.0352 79.45 40.3047 79.45 40.5898ZM86.7406 39.0137V44H85.6566V37.6602H86.682L86.7406 39.0137ZM86.4828 40.5898L86.0316 40.5723C86.0355 40.1387 86.1 39.7383 86.225 39.3711C86.35 39 86.5258 38.6777 86.7523 38.4043C86.9789 38.1309 87.2484 37.9199 87.5609 37.7715C87.8773 37.6191 88.227 37.543 88.6098 37.543C88.9223 37.543 89.2035 37.5859 89.4535 37.6719C89.7035 37.7539 89.9164 37.8867 90.0922 38.0703C90.2719 38.2539 90.4086 38.4922 90.5023 38.7852C90.5961 39.0742 90.643 39.4277 90.643 39.8457V44H89.5531V39.834C89.5531 39.502 89.5043 39.2363 89.4066 39.0371C89.309 38.834 89.1664 38.6875 88.9789 38.5977C88.7914 38.5039 88.5609 38.457 88.2875 38.457C88.018 38.457 87.7719 38.5137 87.5492 38.627C87.3305 38.7402 87.141 38.8965 86.9809 39.0957C86.8246 39.2949 86.7016 39.5234 86.6117 39.7812C86.5258 40.0352 86.4828 40.3047 86.4828 40.5898ZM95.3438 37.6602V38.4922H91.916V37.6602H95.3438ZM93.0762 36.1191H94.1602V42.4297C94.1602 42.6445 94.1934 42.8066 94.2598 42.916C94.3262 43.0254 94.4121 43.0977 94.5176 43.1328C94.623 43.168 94.7363 43.1855 94.8574 43.1855C94.9473 43.1855 95.041 43.1777 95.1387 43.1621C95.2402 43.1426 95.3164 43.127 95.3672 43.1152L95.373 44C95.2871 44.0273 95.1738 44.0527 95.0332 44.0762C94.8965 44.1035 94.7305 44.1172 94.5352 44.1172C94.2695 44.1172 94.0254 44.0645 93.8027 43.959C93.5801 43.8535 93.4023 43.6777 93.2695 43.4316C93.1406 43.1816 93.0762 42.8457 93.0762 42.4238V36.1191ZM100.754 42.916V39.6523C100.754 39.4023 100.703 39.1855 100.601 39.002C100.504 38.8145 100.355 38.6699 100.156 38.5684C99.9566 38.4668 99.7105 38.416 99.4176 38.416C99.1441 38.416 98.9039 38.4629 98.6969 38.5566C98.4938 38.6504 98.3336 38.7734 98.2164 38.9258C98.1031 39.0781 98.0465 39.2422 98.0465 39.418H96.9625C96.9625 39.1914 97.0211 38.9668 97.1383 38.7441C97.2555 38.5215 97.4234 38.3203 97.6422 38.1406C97.8648 37.957 98.1305 37.8125 98.4391 37.707C98.7516 37.5977 99.0992 37.543 99.482 37.543C99.943 37.543 100.349 37.6211 100.701 37.7773C101.056 37.9336 101.334 38.1699 101.533 38.4863C101.736 38.7988 101.838 39.1914 101.838 39.6641V42.6172C101.838 42.8281 101.855 43.0527 101.89 43.291C101.929 43.5293 101.986 43.7344 102.06 43.9062V44H100.929C100.875 43.875 100.832 43.709 100.8 43.502C100.769 43.291 100.754 43.0957 100.754 42.916ZM100.941 40.1562L100.953 40.918H99.857C99.5484 40.918 99.273 40.9434 99.0309 40.9941C98.7887 41.041 98.5855 41.1133 98.4215 41.2109C98.2574 41.3086 98.1324 41.4316 98.0465 41.5801C97.9605 41.7246 97.9176 41.8945 97.9176 42.0898C97.9176 42.2891 97.9625 42.4707 98.0523 42.6348C98.1422 42.7988 98.277 42.9297 98.4566 43.0273C98.6402 43.1211 98.8648 43.168 99.1305 43.168C99.4625 43.168 99.7555 43.0977 100.009 42.957C100.263 42.8164 100.464 42.6445 100.613 42.4414C100.765 42.2383 100.847 42.041 100.859 41.8496L101.322 42.3711C101.295 42.5352 101.22 42.7168 101.099 42.916C100.978 43.1152 100.816 43.3066 100.613 43.4902C100.414 43.6699 100.175 43.8203 99.898 43.9414C99.6246 44.0586 99.316 44.1172 98.9723 44.1172C98.5426 44.1172 98.1656 44.0332 97.8414 43.8652C97.5211 43.6973 97.2711 43.4727 97.0914 43.1914C96.9156 42.9062 96.8277 42.5879 96.8277 42.2363C96.8277 41.8965 96.8941 41.5977 97.027 41.3398C97.1598 41.0781 97.3512 40.8613 97.6012 40.6895C97.8512 40.5137 98.152 40.3809 98.5035 40.291C98.8551 40.2012 99.2477 40.1562 99.6813 40.1562H100.941ZM105.027 38.6562V44H103.943V37.6602H104.997L105.027 38.6562ZM107.007 37.625L107.001 38.6328C106.911 38.6133 106.825 38.6016 106.743 38.5977C106.665 38.5898 106.575 38.5859 106.474 38.5859C106.224 38.5859 106.003 38.625 105.812 38.7031C105.62 38.7812 105.458 38.8906 105.325 39.0312C105.193 39.1719 105.087 39.3398 105.009 39.5352C104.935 39.7266 104.886 39.9375 104.863 40.168L104.558 40.3438C104.558 39.9609 104.595 39.6016 104.669 39.2656C104.747 38.9297 104.866 38.6328 105.027 38.375C105.187 38.1133 105.39 37.9102 105.636 37.7656C105.886 37.6172 106.183 37.543 106.527 37.543C106.605 37.543 106.695 37.5527 106.796 37.5723C106.898 37.5879 106.968 37.6055 107.007 37.625ZM111.356 37.6602V38.4922H107.929V37.6602H111.356ZM109.089 36.1191H110.173V42.4297C110.173 42.6445 110.206 42.8066 110.272 42.916C110.339 43.0254 110.425 43.0977 110.53 43.1328C110.636 43.168 110.749 43.1855 110.87 43.1855C110.96 43.1855 111.054 43.1777 111.151 43.1621C111.253 43.1426 111.329 43.127 111.38 43.1152L111.386 44C111.3 44.0273 111.186 44.0527 111.046 44.0762C110.909 44.1035 110.743 44.1172 110.548 44.1172C110.282 44.1172 110.038 44.0645 109.815 43.959C109.593 43.8535 109.415 43.6777 109.282 43.4316C109.153 43.1816 109.089 42.8457 109.089 42.4238V36.1191ZM114.955 43.0215L116.69 37.6602H117.797L115.518 44H114.791L114.955 43.0215ZM113.508 37.6602L115.295 43.0508L115.418 44H114.692L112.395 37.6602H113.508ZM122.885 42.916V39.6523C122.885 39.4023 122.834 39.1855 122.732 39.002C122.635 38.8145 122.486 38.6699 122.287 38.5684C122.088 38.4668 121.842 38.416 121.549 38.416C121.275 38.416 121.035 38.4629 120.828 38.5566C120.625 38.6504 120.465 38.7734 120.348 38.9258C120.234 39.0781 120.178 39.2422 120.178 39.418H119.094C119.094 39.1914 119.152 38.9668 119.27 38.7441C119.387 38.5215 119.555 38.3203 119.773 38.1406C119.996 37.957 120.262 37.8125 120.57 37.707C120.883 37.5977 121.23 37.543 121.613 37.543C122.074 37.543 122.48 37.6211 122.832 37.7773C123.188 37.9336 123.465 38.1699 123.664 38.4863C123.867 38.7988 123.969 39.1914 123.969 39.6641V42.6172C123.969 42.8281 123.986 43.0527 124.021 43.291C124.061 43.5293 124.117 43.7344 124.191 43.9062V44H123.061C123.006 43.875 122.963 43.709 122.932 43.502C122.9 43.291 122.885 43.0957 122.885 42.916ZM123.072 40.1562L123.084 40.918H121.988C121.68 40.918 121.404 40.9434 121.162 40.9941C120.92 41.041 120.717 41.1133 120.553 41.2109C120.389 41.3086 120.264 41.4316 120.178 41.5801C120.092 41.7246 120.049 41.8945 120.049 42.0898C120.049 42.2891 120.094 42.4707 120.184 42.6348C120.273 42.7988 120.408 42.9297 120.588 43.0273C120.771 43.1211 120.996 43.168 121.262 43.168C121.594 43.168 121.887 43.0977 122.141 42.957C122.395 42.8164 122.596 42.6445 122.744 42.4414C122.896 42.2383 122.979 42.041 122.99 41.8496L123.453 42.3711C123.426 42.5352 123.352 42.7168 123.23 42.916C123.109 43.1152 122.947 43.3066 122.744 43.4902C122.545 43.6699 122.307 43.8203 122.029 43.9414C121.756 44.0586 121.447 44.1172 121.104 44.1172C120.674 44.1172 120.297 44.0332 119.973 43.8652C119.652 43.6973 119.402 43.4727 119.223 43.1914C119.047 42.9062 118.959 42.5879 118.959 42.2363C118.959 41.8965 119.025 41.5977 119.158 41.3398C119.291 41.0781 119.482 40.8613 119.732 40.6895C119.982 40.5137 120.283 40.3809 120.635 40.291C120.986 40.2012 121.379 40.1562 121.812 40.1562H123.072Z" fill="#6C8FB1"/>
<g clip-path="url(#clip0_4674_1555)">
<path d="M13.5213 0.0176774C13.1784 0.0176774 12.6728 0.0354619 11.9995 0.0684904C11.3262 0.0989782 10.8206 0.119303 10.4776 0.119303C10.1169 0.119303 9.57317 0.0989782 8.86179 0.0684904C8.15041 0.0354619 7.61433 0.0176774 7.24594 0.0176774C6.87754 0.0176774 6.69716 0.119303 6.69716 0.317474C6.70478 0.398775 6.70986 0.487698 6.73018 0.566458C7.14177 3.71686 7.33994 8.15284 7.33994 13.8668C7.33994 16.3363 7.17734 18.1096 6.85976 19.1869C6.62094 19.9796 6.27795 20.6351 5.83842 21.1584C5.625 21.4074 5.13212 21.8647 4.36992 22.5253C3.83384 22.8759 3.23933 23.1249 2.61179 23.2672C2.26118 23.3434 1.53964 23.412 0.42175 23.473H0.396343C0.353152 23.4857 0.309961 23.4984 0.26677 23.5111C0.134656 23.5619 0.040652 23.6737 0.0152455 23.8109C0.00254226 23.8668 -0.00253904 23.9227 0.00254226 23.9836C0.221038 25.226 0.401424 26.1483 0.533538 26.7606C0.622461 27.9826 0.683437 28.8998 0.708843 29.4994C0.713924 29.6874 0.769819 29.8246 0.863823 29.8983C0.97053 29.9796 1.17124 30.0101 1.45833 29.9923C3.89736 29.9033 6.28557 29.1437 8.65092 27.5151C8.7373 27.4542 8.82368 27.3906 8.9126 27.3347C8.99899 27.2789 9.08029 27.2153 9.15396 27.1467L9.18699 27.1239C9.40549 26.9486 9.61128 26.7606 9.81199 26.5624C11.3389 25.0888 12.4797 23.163 13.2165 20.7875C13.6839 19.2656 13.9151 17.1137 13.9151 14.3292C13.9151 12.7819 13.9278 10.4674 13.9456 7.37794C13.966 4.29105 13.9787 1.9816 13.9787 0.439425C14.0142 0.159954 13.8542 0.0151367 13.5239 0.0151367" fill="#6C8FB1"/>
<path d="M26.0798 19.2202C25.498 19.9265 24.7637 20.2822 23.877 20.2822C22.9903 20.2822 22.2383 19.9265 21.6565 19.2202C21.1077 18.5596 20.841 17.772 20.841 16.8498C20.841 15.9275 21.1153 15.1526 21.6565 14.4895C22.2383 13.7857 22.9802 13.4275 23.877 13.4275C24.7739 13.4275 25.4878 13.7705 26.0493 14.4641C26.5981 15.1323 26.8979 15.9809 26.8852 16.8472C26.8775 17.7695 26.6184 18.5622 26.0823 19.2177L26.0798 19.2202ZM23.8415 8.1582C21.2017 8.1582 19.1057 8.98137 17.561 10.6226C16.0137 12.269 15.2388 14.4082 15.2388 17.0479C15.2388 19.5505 16.0493 21.6033 17.6677 23.1912C19.2835 24.7817 21.3415 25.5794 23.8516 25.5794C26.3618 25.5794 28.5163 24.769 30.1067 23.1531C31.6972 21.5373 32.4898 19.4285 32.4898 16.8345C32.4898 14.2405 31.6921 12.175 30.1016 10.5591C28.4985 8.96359 26.4126 8.1582 23.844 8.1582" fill="#6C8FB1"/>
<path d="M20.0356 5.73933C20.0279 5.88923 20.0229 6.03913 20.0025 6.18394C19.9848 6.32622 19.9695 6.47104 19.9695 6.60823C19.9695 6.85722 20.0762 6.97663 20.2947 6.969H20.4522C21.8064 6.90041 23.4832 6.44563 25.4853 5.59705C27.4873 4.74848 28.9914 3.85671 29.9898 2.90904C30.1524 2.75915 30.2287 2.64228 30.2287 2.54827C30.2287 2.44665 30.1347 2.32978 29.9543 2.20528C29.3369 1.8064 28.8745 1.51931 28.5569 1.3313C27.9878 0.833333 27.5686 0.447154 27.3095 0.172764C27.2205 0.0940041 27.1291 0.0381098 27.0173 0C26.8928 0.0381098 26.7785 0.0940041 26.6718 0.170224C25.2617 1.16108 24.2099 1.90295 23.5163 2.40346C21.9131 3.31555 20.8283 3.87703 20.2719 4.09553C20.0356 4.18953 19.9111 4.31402 19.9111 4.469C19.9187 4.68242 19.9416 4.89329 19.9721 5.09909C20.0102 5.31758 20.0279 5.52846 20.0356 5.74187" fill="#6C8FB1"/>
<path d="M45.3887 9.37499C45.3887 9.11839 45.2185 8.99643 44.8755 8.99643C44.5325 8.99643 44.0269 9.00914 43.3537 9.03454C42.6804 9.05995 42.1875 9.07011 41.8699 9.07011C41.814 8.71442 41.7835 8.35365 41.7835 7.99034C41.7835 6.77337 41.9715 5.95782 42.345 5.54623C42.5635 5.30233 43.1377 5.12702 44.065 5.02794C44.8755 4.94664 45.2769 4.76625 45.2769 4.49186C45.2769 4.26066 45.2261 3.93038 45.1194 3.49847C44.9848 2.94207 44.906 2.6194 44.8958 2.5254C44.7256 1.50914 44.596 0.73424 44.502 0.218488C44.4588 0.0812929 44.3216 0.0126953 44.093 0.0126953C40.7088 0.0126953 38.2647 0.912085 36.748 2.7007C35.9858 3.60517 35.6072 5.0508 35.6072 7.04267C35.6072 7.56605 35.6377 8.29013 35.6936 9.21239C35.2947 9.2378 34.9009 9.2632 34.5147 9.29877C34.0854 9.39278 33.8669 9.65446 33.8669 10.0788C33.8669 12.002 33.9151 13.468 34.0218 14.4715C34.0346 14.6595 34.1946 14.7459 34.5147 14.7459C34.596 14.7459 34.7231 14.7383 34.9009 14.7281C35.0762 14.7154 35.2083 14.7104 35.2896 14.7104C35.7444 14.7104 35.968 14.878 35.968 15.2159V24.779C35.968 25.1855 36.1611 25.4217 36.5498 25.4903C36.936 25.5589 37.7718 25.597 39.0574 25.597C40.6047 25.597 41.5727 25.5716 41.9588 25.5284C42.2764 25.4903 42.439 25.3531 42.439 25.1092C42.439 24.2861 42.4035 23.1428 42.3222 21.6717C42.2281 20.0381 42.1773 18.8948 42.1646 18.2342C42.1316 16.6819 42.096 15.4776 42.0655 14.6036C42.7693 14.6722 43.7373 14.7104 44.9644 14.7104C45.2566 14.7104 45.409 14.5732 45.409 14.2911C45.409 13.75 45.4014 12.9319 45.3913 11.8343V9.37499H45.3887Z" fill="#6C8FB1"/>
<path d="M57.5966 19.2202C57.0147 19.9265 56.2805 20.2822 55.3938 20.2822C54.5071 20.2822 53.7525 19.9265 53.1707 19.2202C52.622 18.5596 52.3552 17.772 52.3552 16.8498C52.3552 15.9275 52.6296 15.1526 53.1707 14.4895C53.7525 13.7857 54.4919 13.4275 55.3938 13.4275C56.2957 13.4275 57.002 13.7705 57.5635 14.4641C58.1123 15.1323 58.4121 15.9809 58.3994 16.8472C58.3994 17.7695 58.1326 18.5622 57.5966 19.2177V19.2202ZM55.3633 8.1582C52.7236 8.1582 50.6276 8.98137 49.0828 10.6226C47.5356 12.269 46.7607 14.4082 46.7607 17.0479C46.7607 19.5505 47.5711 21.6033 49.1895 23.1912C50.8054 24.7817 52.8633 25.5794 55.3709 25.5794C57.8786 25.5794 60.0381 24.769 61.6286 23.1531C63.219 21.5373 64.0117 19.4285 64.0117 16.8345C64.0117 14.2405 63.2139 12.1673 61.6235 10.5591C60.0203 8.96359 57.937 8.1582 55.3684 8.1582" fill="#6C8FB1"/>
<path d="M76.4736 18.1836C75.9553 18.7883 75.2007 19.1313 74.403 19.1135C73.5976 19.1135 72.9116 18.8061 72.3501 18.2014C71.7937 17.6171 71.4939 16.8371 71.5091 16.0317C71.4964 15.2212 71.7962 14.4362 72.3323 13.8366C72.8811 13.2116 73.5747 12.894 74.403 12.894C75.1956 12.8737 75.9553 13.2192 76.4736 13.8162C77.5737 15.0637 77.5737 16.9362 76.4736 18.1836ZM83.0234 8.98139C82.9548 8.95598 82.03 8.85182 80.2464 8.66381C78.4629 8.4758 77.4822 8.37672 77.3018 8.37672C77.096 8.37672 76.9944 8.83911 76.9944 9.75629C76.9944 10.1679 76.9461 10.3737 76.8394 10.3737C76.7683 10.3737 76.6438 10.2492 76.4634 9.99257C75.5513 8.75019 74.2403 8.13281 72.5254 8.13281C70.3786 8.13281 68.6382 8.88739 67.3095 10.3915C66.0366 11.8396 65.4014 13.6587 65.4014 15.8564C65.4014 18.0541 66.0696 19.8732 67.3984 21.3696C68.7678 22.9245 70.5234 23.6968 72.6626 23.6968C74.4792 23.6968 75.968 23.1481 77.1291 22.0429V23.1963C77.1291 23.9433 76.6413 24.5607 75.6631 25.0561C74.8603 25.4677 74.0473 25.6735 73.2241 25.6735C71.7327 25.6735 70.1169 25.2365 68.3689 24.3625C68.313 24.3295 68.2444 24.3066 68.1809 24.2939C68.0132 24.2939 67.8887 24.4565 67.8074 24.7741C67.3196 26.8091 67.0757 27.9321 67.0757 28.1481C67.0757 28.6791 68.125 29.1338 70.2261 29.5276C71.8725 29.8401 73.1707 29.9951 74.126 29.9951C77.3958 29.9951 79.7358 29.2659 81.1433 27.8051C82.5025 26.3823 83.1885 24.0297 83.1885 20.7548C83.1885 20.2873 83.1834 19.5759 83.1707 18.6333C83.158 17.6907 83.153 16.9794 83.153 16.5144C83.153 15.7217 83.1784 14.5378 83.2292 12.9626C83.28 11.3925 83.3054 10.206 83.3054 9.4133C83.3054 9.1948 83.2114 9.04491 83.0183 8.97631" fill="#6C8FB1"/>
<path d="M90.8664 5.73923C90.8587 5.88913 90.8537 6.03903 90.8308 6.18384C90.813 6.32612 90.7978 6.47094 90.7952 6.60813C90.7952 6.85712 90.8994 6.97653 91.1179 6.9689H91.2729C92.627 6.90031 94.3064 6.44553 96.3084 5.59695C98.3105 4.74838 99.8145 3.85661 100.813 2.90895C100.976 2.75905 101.049 2.64218 101.049 2.54817C101.049 2.44655 100.958 2.32968 100.777 2.20519C100.158 1.8063 99.6977 1.51921 99.3775 1.3312C98.811 0.833234 98.3918 0.447055 98.1301 0.172665C98.0437 0.0964455 97.9497 0.0405512 97.843 0.00244141C97.7185 0.0405512 97.6067 0.0964455 97.5 0.172665C96.0899 1.16352 95.0381 1.90539 94.3445 2.4059C92.7414 3.31799 91.6565 3.87947 91.1001 4.09797C90.8613 4.19197 90.7393 4.31647 90.7393 4.47145C90.7444 4.68486 90.7698 4.89573 90.8003 5.10153C90.8435 5.32002 90.8613 5.5309 90.8689 5.74431" fill="#6C8FB1"/>
<path d="M96.1357 19.169C95.5208 19.8042 94.7332 20.1294 93.7652 20.1294C92.8557 20.1294 92.0808 19.794 91.4456 19.1258C90.8206 18.483 90.4725 17.6218 90.4903 16.7249C90.4903 15.7315 90.7927 14.9211 91.3948 14.291C91.9995 13.6609 92.7845 13.3433 93.7652 13.3433C94.7459 13.3433 95.5361 13.6609 96.1484 14.3037C96.7581 14.9388 97.0605 15.7518 97.0605 16.73C97.0605 17.7081 96.748 18.5339 96.1357 19.169ZM102.899 9.36974C102.411 9.20713 101.603 9.01404 100.473 8.78285C99.2861 8.53894 98.4883 8.42207 98.064 8.42207C97.8811 8.42207 97.7286 8.70409 97.5965 9.25795C97.467 9.81435 97.3475 10.0938 97.2459 10.0938C97.2104 10.0938 97.1722 10.0633 97.1265 10.0074C96.0925 8.73965 94.6824 8.10449 92.8912 8.10449C90.3201 8.10449 88.2927 8.94545 86.8165 10.6248C85.3938 12.2483 84.6824 14.3875 84.6824 17.0527C84.6824 19.3545 85.3684 21.3387 86.748 22.9902C88.2012 24.761 90.0406 25.6477 92.2612 25.6477C93.7144 25.6477 95.0813 24.9973 96.3618 23.6939C96.4659 23.5821 96.5854 23.4805 96.7225 23.4017C96.8242 23.4144 96.9156 23.7524 96.9842 24.4129C97.0605 25.0735 97.2027 25.4063 97.4238 25.4063C99.2454 25.4063 100.861 25.3555 102.271 25.2513C102.67 25.2132 102.868 24.9693 102.868 24.5095C102.868 23.6355 102.82 22.3271 102.713 20.5715C102.609 18.8184 102.558 17.5024 102.558 16.6157C102.553 14.4028 102.731 12.1873 103.107 10.0049C103.133 9.88549 103.15 9.761 103.158 9.64159C103.158 9.53742 103.072 9.44342 102.901 9.37482" fill="#6C8FB1"/>
<path d="M112.289 12.6704C112.744 12.3884 113.305 12.2461 113.979 12.2461C114.304 12.2461 114.624 12.2842 114.934 12.3579C115.102 12.175 115.191 12.0276 115.191 11.9209C115.191 11.7278 114.835 11.0469 114.116 9.87824C113.399 8.71208 112.95 8.13281 112.769 8.13281C111.004 8.13281 109.35 8.63586 107.802 9.64196C106.075 10.7776 105.208 12.1547 105.208 13.7832C105.208 14.6521 105.501 15.4753 106.082 16.2553C106.123 16.3162 106.669 16.8981 107.703 17.988C108.283 18.6181 108.577 19.1669 108.577 19.642C108.577 20.3356 108.077 20.8335 107.073 21.1333C106.263 21.2781 105.462 21.4153 104.665 21.5576C104.54 21.5754 104.477 21.6389 104.477 21.738C104.477 21.9997 104.87 22.7161 105.661 23.8899C106.453 25.0637 106.959 25.6506 107.19 25.6506C108.211 25.6506 109.334 25.3991 110.551 24.9011C111.618 24.4641 112.612 23.8721 113.504 23.1481C113.902 22.8356 114.233 22.3376 114.497 21.6567C114.715 21.0952 114.827 20.5032 114.84 19.9036C114.84 18.9611 114.548 18.082 113.966 17.2588C113.76 16.9514 113.219 16.3671 112.345 15.488C111.763 14.9011 111.471 14.4209 111.471 14.0398C111.471 13.4555 111.743 12.9931 112.287 12.6679" fill="#6C8FB1"/>
<path d="M124.522 0H123.138V30H124.522V0Z" fill="#6C8FB1"/>
<path d="M141.568 4.0166L137.815 12.8936H134.873L131.12 4.0166H134.342L136.458 9.20207L138.628 4.0166H141.57H141.568Z" fill="#6C8FB1"/>
<path d="M148.542 10.0917H143.722C143.925 10.6253 144.408 10.9022 145.117 10.9022C145.752 10.9022 146.105 10.7371 146.563 10.3941L148.059 11.9032C147.386 12.64 146.41 13.0186 145.028 13.0186C142.48 13.0186 140.831 11.484 140.831 9.41845C140.831 7.3529 142.518 5.83105 144.761 5.83105C146.817 5.83105 148.577 7.07343 148.577 9.41845C148.577 9.6217 148.552 9.88847 148.539 10.0917H148.542ZM143.671 8.70961H145.902C145.788 8.12526 145.368 7.78481 144.787 7.78481C144.205 7.78481 143.786 8.1278 143.671 8.70961Z" fill="#6C8FB1"/>
<path d="M157.355 3.48584V12.8939H154.629V12.3222C154.21 12.7922 153.59 13.0209 152.726 13.0209C150.912 13.0209 149.378 11.6515 149.378 9.4208C149.378 7.19011 150.912 5.8334 152.726 5.8334C153.488 5.8334 154.07 6.02395 154.489 6.43045V3.48584H157.355ZM154.54 9.4208C154.54 8.52141 154.045 8.06409 153.412 8.06409C152.779 8.06409 152.284 8.52141 152.284 9.4208C152.284 10.3202 152.779 10.7902 153.412 10.7902C154.045 10.7902 154.54 10.3202 154.54 9.4208Z" fill="#6C8FB1"/>
<path d="M166.331 3.48584V12.8939H163.605V12.3222C163.186 12.7922 162.566 13.0209 161.702 13.0209C159.888 13.0209 158.354 11.6515 158.354 9.4208C158.354 7.19011 159.888 5.8334 161.702 5.8334C162.464 5.8334 163.046 6.02395 163.465 6.43045V3.48584H166.331ZM163.516 9.4208C163.516 8.52141 163.021 8.06409 162.388 8.06409C161.756 8.06409 161.26 8.52141 161.26 9.4208C161.26 10.3202 161.756 10.7902 162.388 10.7902C163.021 10.7902 163.516 10.3202 163.516 9.4208Z" fill="#6C8FB1"/>
<path d="M137.104 26.0237C136.659 26.2778 136.014 26.3921 135.34 26.3921C133.425 26.3921 132.309 25.4927 132.309 23.5771V21.8012H131.359V19.7077H132.309V17.7666H135.175V19.7077H136.596V21.8012H135.175V23.5517C135.175 23.9836 135.429 24.2224 135.772 24.2224C136.001 24.2224 136.23 24.1589 136.42 24.0318L137.106 26.0237H137.104Z" fill="#6C8FB1"/>
<path d="M137.556 22.7925C137.556 20.6863 139.243 19.2051 141.588 19.2051C143.933 19.2051 145.62 20.6888 145.62 22.7925C145.62 24.8961 143.946 26.3926 141.588 26.3926C139.23 26.3926 137.556 24.8961 137.556 22.7925ZM142.716 22.7925C142.716 21.8931 142.221 21.4358 141.588 21.4358C140.955 21.4358 140.46 21.8931 140.46 22.7925C140.46 23.6919 140.955 24.1619 141.588 24.1619C142.221 24.1619 142.716 23.6919 142.716 22.7925Z" fill="#6C8FB1"/>
<path d="M154.052 19.3291L151.263 26.2651H148.295L145.506 19.3291H148.448L149.842 23.0435L151.339 19.3291H154.052Z" fill="#6C8FB1"/>
<path d="M161.484 22.538V26.2652H158.821V25.3531C158.491 26.0517 157.833 26.3922 156.855 26.3922C155.155 26.3922 154.281 25.4293 154.281 24.2352C154.281 22.8912 155.295 22.1417 157.452 22.1417H158.605C158.516 21.6081 158.11 21.3312 157.299 21.3312C156.677 21.3312 155.981 21.5345 155.523 21.8775L154.611 19.9872C155.422 19.4791 156.654 19.2022 157.731 19.2022C160.114 19.2022 161.484 20.2286 161.484 22.538ZM158.631 18.5695H156.728L158.402 16.5396H161.128L158.631 18.5695ZM158.618 24.0091V23.5263H157.909C157.299 23.5263 157.035 23.7296 157.035 24.1107C157.035 24.4283 157.289 24.6696 157.719 24.6696C158.112 24.6696 158.468 24.4664 158.618 24.0116V24.0091Z" fill="#6C8FB1"/>
<path d="M170.955 22.7924C170.955 25.0231 169.421 26.3925 167.607 26.3925C166.745 26.3925 166.123 26.1638 165.704 25.6938V26.2654H162.978V16.8574H165.843V19.7995C166.263 19.393 166.845 19.2024 167.607 19.2024C169.421 19.2024 170.955 20.5591 170.955 22.7898V22.7924ZM168.051 22.7924C168.051 21.893 167.556 21.4357 166.923 21.4357C166.291 21.4357 165.795 21.893 165.795 22.7924C165.795 23.6918 166.291 24.1618 166.923 24.1618C167.556 24.1618 168.051 23.6918 168.051 22.7924Z" fill="#6C8FB1"/>
<path d="M179.868 22.7924C179.868 25.0231 178.333 26.3925 176.519 26.3925C175.658 26.3925 175.036 26.1638 174.616 25.6938V26.2654H171.89V16.8574H174.756V19.7995C175.175 19.393 175.757 19.2024 176.519 19.2024C178.333 19.2024 179.868 20.5591 179.868 22.7898V22.7924ZM176.964 22.7924C176.964 21.893 176.469 21.4357 175.836 21.4357C175.203 21.4357 174.708 21.893 174.708 22.7924C174.708 23.6918 175.203 24.1618 175.836 24.1618C176.469 24.1618 176.964 23.6918 176.964 22.7924Z" fill="#6C8FB1"/>
<path d="M180.602 17.3882H184.027L183.455 22.8658H181.174L180.602 17.3882ZM180.64 24.8704C180.64 24.0218 181.326 23.374 182.315 23.374C183.303 23.374 183.989 24.0218 183.989 24.8704C183.989 25.719 183.303 26.3922 182.315 26.3922C181.326 26.3922 180.64 25.7063 180.64 24.8704Z" fill="#6C8FB1"/>
</g>
<defs>
<clipPath id="clip0_4674_1555">
<rect width="184.027" height="30" fill="white"/>
</clipPath>
</defs>
</svg>
