<svg width="554" height="460" viewBox="0 0 554 460" fill="none" xmlns="http://www.w3.org/2000/svg">
<g clip-path="url(#clip0_3229_6509)">
<mask id="mask0_3229_6509" style="mask-type:luminance" maskUnits="userSpaceOnUse" x="0" y="0" width="554" height="460">
<path d="M554 0H0V460H554V0Z" fill="white"/>
</mask>
<g mask="url(#mask0_3229_6509)">
<path d="M757.985 128.598C699.103 -33.7724 512.723 -195.123 345.004 -84.9857C342.655 -83.4895 340.339 -81.8508 338.045 -80.1891C335.747 -78.5412 333.435 -76.8887 331.192 -75.0753C330.875 -74.9705 330.447 -74.6454 330.181 -74.3889C287.073 -41.6719 255.676 3.84641 226.462 50.6008C221.089 59.1261 215.725 67.633 210.573 76.2691C196.337 98.8963 182.436 121.428 167.464 142.34C152.649 163.216 134.314 183.114 115.398 202.869C113.309 205.151 111.157 207.286 109.069 209.568C106.981 211.85 104.828 213.986 102.745 216.282C78.1382 241.989 53.6371 268.013 34.4791 296.185C26.7454 307.787 19.8237 319.67 14.3283 332.122C13.5215 333.981 12.7192 335.853 11.9124 337.711C-21.674 419.067 22.8973 517.17 95.5476 566.752C98.9628 568.988 102.369 571.242 105.784 573.478C111.162 576.839 116.613 579.824 122.373 582.722C133.414 588.646 145.044 593.672 156.887 598.275L157.052 598.22C158.061 598.59 158.923 599.024 159.932 599.394C170.821 603.241 181.868 606.501 193.076 609.188C196.604 610.147 200.283 611.056 203.858 611.648C216.773 614.642 229.964 616.855 243.268 618.298C254.432 619.744 265.759 620.616 276.912 621.011C277.334 621.223 277.871 621.229 278.403 621.221C280.968 621.443 283.694 621.597 286.357 621.603C289.404 621.666 292.667 621.825 295.646 621.727C306.441 622.056 317.228 621.852 327.965 621.497C335.172 621.239 342.177 620.879 349.342 620.451C404.773 616.842 459.449 605.129 510.374 586.334C520.052 582.779 529.524 579.109 538.835 574.957C540.71 574.153 542.575 573.368 544.399 572.412C584.15 554.821 620.913 532.542 652.951 506.15C655.25 504.502 657.457 502.533 659.7 500.719C661.943 498.906 663.985 496.991 666.233 495.191C672.56 489.548 678.505 483.863 684.342 477.846C709.852 452.192 731.311 423.442 747.441 392.033C750.293 386.652 752.874 381.009 755.29 375.421C780.374 318.864 788.472 254.082 773.527 183.094C772.209 176.431 770.523 169.721 768.632 162.896C765.78 151.6 762.186 140.182 758.008 128.62L757.985 128.598Z" fill="#85D1F8"/>
</g>
</g>
<defs>
<clipPath id="clip0_3229_6509">
<rect width="554" height="460" fill="white"/>
</clipPath>
</defs>
</svg>
