<svg width="554" height="460" viewBox="0 0 554 460" fill="none" xmlns="http://www.w3.org/2000/svg">
<path d="M757.984 128.598C699.102 -33.7724 512.722 -195.123 345.003 -84.9857C342.654 -83.4895 340.338 -81.8508 338.044 -80.1891C335.746 -78.5412 333.434 -76.8887 331.191 -75.0753C330.874 -74.9705 330.446 -74.6454 330.18 -74.3889C287.072 -41.6719 255.675 3.84638 226.461 50.6008C221.088 59.1261 215.724 67.633 210.572 76.2691C196.336 98.8963 182.435 121.428 167.463 142.34C152.648 163.216 134.313 183.114 115.397 202.869C113.308 205.151 111.156 207.286 109.068 209.568C106.98 211.85 104.827 213.986 102.744 216.282C78.1375 241.989 53.6364 268.013 34.4784 296.185C26.7447 307.787 19.823 319.67 14.3276 332.122C13.5208 333.981 12.7185 335.853 11.9117 337.711C-21.6747 419.067 22.8966 517.17 95.5469 566.752C98.9621 568.988 102.368 571.242 105.783 573.478C111.161 576.839 116.612 579.824 122.372 582.722C133.413 588.646 145.043 593.672 156.886 598.275L157.051 598.22C158.06 598.59 158.922 599.024 159.931 599.394C170.82 603.241 181.867 606.501 193.075 609.188C196.603 610.147 200.282 611.056 203.857 611.648C216.772 614.642 229.963 616.855 243.267 618.298C254.431 619.744 265.758 620.616 276.911 621.011C277.333 621.223 277.87 621.229 278.402 621.221C280.967 621.443 283.693 621.597 286.356 621.603C289.403 621.666 292.666 621.825 295.645 621.727C306.44 622.056 317.227 621.852 327.964 621.497C335.171 621.239 342.176 620.879 349.341 620.451C404.772 616.842 459.448 605.129 510.373 586.334C520.051 582.779 529.523 579.109 538.834 574.957C540.709 574.153 542.574 573.368 544.398 572.412C584.149 554.821 620.912 532.542 652.95 506.15C655.249 504.502 657.456 502.533 659.699 500.719C661.942 498.906 663.984 496.991 666.232 495.191C672.559 489.548 678.504 483.863 684.341 477.846C709.851 452.192 731.31 423.442 747.44 392.033C750.292 386.652 752.873 381.009 755.289 375.421C780.373 318.864 788.471 254.082 773.526 183.094C772.208 176.431 770.522 169.721 768.631 162.896C765.779 151.6 762.185 140.182 758.007 128.62L757.984 128.598Z" fill="#FBD5C0"/>
</svg>
