<svg width="64" height="64" viewBox="0 0 64 64" fill="none" xmlns="http://www.w3.org/2000/svg">
<g opacity="0.64">
<path d="M0 45.1177C0 44.9159 -7.62939e-06 44.7285 0.0143967 44.5411C-7.62939e-06 44.4113 0.0143967 44.2816 0.0143967 44.1519C0.0143967 43.9213 0.0287971 43.6906 0.0575981 43.46C0.0575981 43.3303 0.0720024 43.2149 0.0864029 43.0852C0.100803 42.9411 0.115211 42.8113 0.129612 42.6672C0.230423 41.687 0.403236 40.7068 0.633659 39.7266C0.662464 39.6401 0.662464 39.5536 0.691269 39.4816C0.907291 38.6023 1.18092 37.7374 1.49775 36.887C1.59856 36.6131 1.69937 36.3248 1.81458 36.0653C2.18902 35.0996 2.62106 34.1338 3.11071 33.2112C3.49955 32.4184 3.93159 31.6401 4.40684 30.8905C4.40684 30.8473 4.43565 30.8184 4.45005 30.7752C4.55086 30.6022 4.66607 30.4148 4.78128 30.2419C4.9109 30.0401 5.04051 29.8238 5.17012 29.6364C5.17012 29.622 5.17012 29.6076 5.19892 29.5932C5.37174 29.3337 5.53016 29.0743 5.71738 28.8148C6.00541 28.3824 6.29344 27.9499 6.61027 27.5319C6.63907 27.5031 6.65347 27.4599 6.68228 27.431C6.98471 26.9986 7.30154 26.595 7.60397 26.177C7.80559 25.9175 7.99281 25.6724 8.20883 25.4274C8.41045 25.1535 8.64088 24.8941 8.8713 24.6202C9.53377 23.8274 10.2394 23.049 10.9595 22.2994C11.7228 21.5066 12.5293 20.7427 13.3502 20.0075C13.6382 19.7481 13.9406 19.4886 14.243 19.2291C15.1071 18.5084 15.9856 17.8165 16.8929 17.1535C17.541 16.6778 18.2034 16.2165 18.8803 15.7841C19.0099 15.6976 19.1395 15.6111 19.2836 15.539C22.1783 13.7084 25.2458 12.2813 28.3709 11.3444C28.5725 11.2723 28.8029 11.2147 29.0189 11.1426C29.235 11.0705 29.451 11.0273 29.667 10.9552C30.3151 10.7966 30.9343 10.6525 31.5824 10.5372C34.3763 9.98943 37.199 9.84528 39.9497 10.1768C40.4249 10.2201 40.9146 10.2921 41.3754 10.3786C46.1711 11.2291 50.7508 13.5354 54.7256 17.6147C55.1144 17.9895 55.4744 18.3931 55.8345 18.8111C56.4393 19.503 57.0298 20.2382 57.6059 21.0165C65.4691 31.7554 67.8885 50.4655 54.2935 56.952C54.0775 57.0673 53.8615 57.1682 53.6311 57.2547C53.5734 57.2835 53.5158 57.3124 53.4582 57.3412C53.3142 57.3988 53.1558 57.4709 52.9974 57.5286C52.9398 57.543 52.8966 57.5718 52.839 57.5862C52.6229 57.6727 52.4213 57.7448 52.2053 57.8169C52.1765 57.8313 52.1477 57.8457 52.1189 57.8457C48.0865 59.2295 43.7516 59.2871 39.4168 59.1574C38.6247 59.1286 37.8326 59.1142 37.0406 59.0709C34.938 59.0133 32.8641 58.9268 30.8479 58.9989C29.955 59.0133 29.0477 59.0998 28.1261 59.2007C27.8668 59.2295 27.6076 59.2727 27.3484 59.3016C27.0891 59.3448 26.8299 59.3736 26.5707 59.4169C25.9226 59.5178 25.2746 59.6331 24.6121 59.7484C24.5545 59.7484 24.5113 59.7628 24.4537 59.7772C24.2665 59.8061 24.0792 59.8349 23.9064 59.8637C23.6616 59.907 23.4312 59.9502 23.1864 59.9935C23.1287 59.9935 23.0855 59.9935 23.0279 60.0223C22.8695 60.0511 22.6967 60.0799 22.5383 60.1088C20.0036 60.5412 17.4402 60.9304 14.9775 60.9448C13.883 60.9448 12.8029 60.8728 11.7516 60.6854C11.5932 60.6565 11.4348 60.6277 11.2763 60.5989C8.35284 60.0079 5.84699 58.3214 3.9604 56.0439C3.90279 55.9718 3.83079 55.8997 3.77318 55.8132C3.68677 55.7123 3.60036 55.6114 3.51395 55.4961C3.38434 55.3232 3.25473 55.1358 3.12511 54.9484C3.0387 54.8331 2.9811 54.7322 2.9091 54.6168C2.03061 53.2907 1.33934 51.8348 0.849686 50.2925C0.691269 49.8312 0.561653 49.3699 0.460846 48.8943C0.388836 48.5916 0.31683 48.2889 0.273624 47.9717C0.100807 47.0348 0.0144005 46.069 0 45.1177Z" fill="#F7BEBC"/>
</g>
<g clip-path="url(#clip0_4674_1413)">
<g clip-path="url(#clip1_4674_1413)">
<path d="M32.4774 50.0002C42.4185 50.0002 50.4774 41.9414 50.4774 32.0002C50.4774 22.0591 42.4185 14.0002 32.4774 14.0002C22.5362 14.0002 14.4774 22.0591 14.4774 32.0002C14.4774 41.9414 22.5362 50.0002 32.4774 50.0002Z" fill="#E52520"/>
<path d="M43.976 26.2243C43.7014 25.1923 42.888 24.379 41.8534 24.1017C39.9814 23.6003 32.4774 23.6003 32.4774 23.6003C32.4774 23.6003 24.9734 23.6003 23.1014 24.1017C22.0694 24.379 21.256 25.1897 20.9787 26.2243C20.4774 28.0963 20.4774 32.0003 20.4774 32.0003C20.4774 32.0003 20.4774 35.9043 20.9787 37.7763C21.2534 38.8083 22.0667 39.6217 23.1014 39.899C24.9734 40.4003 32.4774 40.4003 32.4774 40.4003C32.4774 40.4003 39.9814 40.4003 41.8534 39.899C42.8854 39.6217 43.6987 38.811 43.976 37.7763C44.4774 35.9043 44.4774 32.0003 44.4774 32.0003C44.4774 32.0003 44.4774 28.0963 43.976 26.2243ZM30.0774 35.6003V28.4003L36.312 32.0003L30.0774 35.6003Z" fill="white"/>
</g>
</g>
<defs>
<clipPath id="clip0_4674_1413">
<rect x="14" y="14.0002" width="36" height="36" rx="18" fill="white"/>
</clipPath>
<clipPath id="clip1_4674_1413">
<rect width="150.717" height="36" fill="white" transform="translate(-62 14.0002)"/>
</clipPath>
</defs>
</svg>
